<mxfile host="app.diagrams.net" modified="2022-12-06T14:03:03.762Z" agent="5.0 (Windows NT 10.0; Win64; x64) AppleWebKit/537.36 (KHTML, like Gecko) Chrome/107.0.0.0 Safari/537.36" version="20.6.0" etag="56-LaWxUK4tsrPO1Fjsv" type="github">
  <diagram id="kGmD4KM7hyW_ZtCW-rll" name="Page-1">
    <mxGraphModel dx="1022" dy="468" grid="1" gridSize="10" guides="1" tooltips="1" connect="1" arrows="1" fold="1" page="1" pageScale="1" pageWidth="850" pageHeight="1100" math="0" shadow="0">
      <root>
        <mxCell id="0" />
        <mxCell id="1" parent="0" />
        <mxCell id="Mn12eef7mgjaIkqNjSOi-3" value="&lt;b&gt;Step 1&lt;br&gt;&lt;br&gt;&lt;/b&gt;Tap &lt;b&gt;Install &lt;/b&gt;to proceed with Installation" style="text;html=1;strokeColor=none;fillColor=none;align=center;verticalAlign=middle;whiteSpace=wrap;rounded=0;" vertex="1" parent="1">
          <mxGeometry x="67.92" y="70" width="150" height="40" as="geometry" />
        </mxCell>
        <mxCell id="Mn12eef7mgjaIkqNjSOi-7" value="On successful installation, click&lt;b&gt; Open.&lt;/b&gt;" style="text;html=1;strokeColor=none;fillColor=none;align=center;verticalAlign=middle;whiteSpace=wrap;rounded=0;" vertex="1" parent="1">
          <mxGeometry x="585" y="80" width="135" height="30" as="geometry" />
        </mxCell>
        <mxCell id="Mn12eef7mgjaIkqNjSOi-11" value="" style="shape=image;verticalLabelPosition=bottom;labelBackgroundColor=default;verticalAlign=top;aspect=fixed;imageAspect=0;image=data:image/jpeg,/9j/4AAQSkZJRgABAQAAAQABAAD/2wBDAAcFBQYFBAcGBgYIBwcICxILCwoK&#xa;CxYPEA0SGhYbGhkWGRgcICgiHB4mHhgZIzAkJiorLS4tGyIyNTEsNSgsLSz/&#xa;2wBDAQcICAsJCxULCxUsHRkdLCwsLCwsLCwsLCwsLCwsLCwsLCwsLCwsLCws&#xa;LCwsLCwsLCwsLCwsLCwsLCwsLCwsLCz/wAARCASSAhwDASIAAhEBAxEB/8QA&#xa;HAABAAEFAQEAAAAAAAAAAAAAAAECAwQFBgcI/8QAUxAAAQMDAgMEBAoGBwUG&#xa;BQUAAAECAwQFEQYSEyExBxRBURciYXEVMjdTVXSBk6TSI0JSkrHBCBYzcnOR&#xa;oSQ0NUOyJTZUgrPRGGJjdcIoOESj4f/EABoBAQADAQEBAAAAAAAAAAAAAAAB&#xa;AgMEBQb/xAArEQEAAgIBAwMDBAIDAAAAAAAAAQIDESEEEjFBUWEFIiMTFDKB&#xa;kcFC0fD/2gAMAwEAAhEDEQA/ANCAAAAAAAAAAAAAAAAAAAAAAAAAAAAAAAAA&#xa;AAAAAAAAAAAAAAAAAAAAAAAAAAAAAAAAAAAAAAAAAAAAAAAAAAAAAAAAAAAA&#xa;AAADotK26iqae7VdbRSVzKSnascDHujV71e1qc2mNUx0FwvEFLDRtsLFVI5O&#xa;PK5yMVfFcplANMDfaat9nqb+2kucssjHzMhiZT8kkVXbcq5ejS9bbDR1mta2&#xa;hk4iUVGs8isjX13sjyu1qr4rgDmwdPPSWm8aauFxt9udbJra+PLOO6VkjHu2&#xa;/rdHIcwAAN1Q6Zqau01FVtfHMxI3U8KxOV1Qjlxlp7nTfS65cMZsl+2J+P6e&#xa;N1H1OcWWcVa700oKpIpIJlhlY6N8aq1zHtwrFTkqYXoqFJxdd0n7S/Zvbs6L&#xa;qo6nH3a0AA4HaAAAAAAAAAAAAAAAAAAAAAAAAAAAAAAAAAAAAAABmWm3Put4&#xa;pbfG9rHzyNjR6tVUTPjhAMMHXSw2awWG2uq7NFdKqpWZXyd6e1qbJFjRGbVR&#xa;FTkUag03Ttp5Lpb2tpaVKalmWn3K5zHSt6IvXanmoHKAHoNgsNnlib8G2ao1&#xa;LUIxFmmlf3aliVUzt9qoB58D1OosFO6mc6t0VE+mb8ae01u58f8A5M8zzy80&#xa;tvpLk+O1Vjqukw1UerNqplM7VTzQDXg6XSmmqO901VNVVUsfDkjp2MgZuVHv&#xa;yjXPT9hFQ2Nn05Y2Mnprm6NayCVYZmzVzYGI5FVP0eGuV3vXagHEgzLrHRQ3&#xa;OaO3ulWmbyZxnNV3t5t5L7FMMADJoaKpuVZHSUUDp55M4YxvPkmTpLVaKR3Z&#xa;xqGtqKVvfaSWJjHr1j9dGqgHJA21qtNLUW2puFbUSw08MjIcQRJI9XORVTkq&#xa;phE2iXT1Q3U8lkje18kcisWTo1GpzVzvJETmoGpB1dNodaq/XG2trXYopmU6&#xa;PSJXZcqqiK5M+qxMc1OdrqGa3SRxTbUkdG2RWI7KsReaI724AxgdVadI1dXo&#xa;2tvDKOepkkc2GljhZuXr678J4IiYOYmhlp6h8E0To5I8osb2q1yKngqKBQAA&#xa;AAAAAAAAOg0vFeZaaujsdxbTTqjUWBJUjkmbn9RVx0NnqTgytsFHfK//ALQj&#xa;R7a6ojxM6ONXJsRyt6uRDjABttPLFHrO1qx+YWV0WHry9VJE5qV3CvqKHWNb&#xa;W0M/DmZVyqx7Pa9TTADtdWXyWGxwWBXUveZFSpru6xMjYj1T1Y/VREVU6qpx&#xa;QAA7Gz6nZDp+d9SsS11A2FlI18r04jUcuEwnkccD6Hp/qGD9vXDmiePZ4PU9&#xa;BmtmnLimOf8ApcqJ5aupkqJ14kkzlc5faq5UtgHF9R6unVZItjjURGnb9P6W&#xa;3TY+288gAPLeiAAAAAAAAAAAAAAAAAAAAAAAAAAAAAAAAAAAAABstO1lPQak&#xa;oaypc5sEMzZH4aqrhFz0RUNaAO5ulouOptPWiqtNHPVsRanfjG6NVmc5Edgu&#xa;anroaKzz2Sp3JW9yoE2dWscxuHtXHRxwQAG6sd7go/8AZrnFU11tTMiUjJ1j&#xa;Y+TwV2DSgDu7/WRWKdkLbD8B3bDJIZqGrXa5i9Uca3W9vZQz0mLSy2K9i4Rl&#xa;Uk3GYi4a9ff5+JzL5HyLmR29cImVdnkhDnOdjc5y4RETPkgG103f5tPXPvLN&#xa;zoZW8GojY5Wq9i9URU6L5KdZY9KU07Kqqtl7qZ6euTuyJSxI6SNjuvHavRp5&#xa;4VxyPjXMbtiqiouHY5KBeuFGtuuU9GssUywyLHvhdlq4Xqimxh066XRc2oO9&#xa;YSKq7twNnX1WrnJpSviycHhb3cNeas3cs+eAPTbPYaOw9q2nIaPibJ6Fah29&#xa;2fWWORFMGn+TvWf12P8A9VDgu9T8RknHfxGphi7lyiJ4IpSk0iROjR7tj8Kq&#xa;buSqnmB0mnbh3WyzwUV0itVxfM16zSZbviRPio5EXGFLtVqK0Q3K7pHQSVUd&#xa;dtYs8MvAVUREV+EVq4RzuZyYA6i83m2rrqsuNMx8lKrnLhH5SZ3hnp6ir1Qt&#xa;anudquVNBLTNzVufvlXYrXc2JlHL+squyuTnAB6nZ+0Spo9BVUr6ejplhVtJ&#xa;QMgRybnbfWVdyr0PL3vfLI6SR2978qqrzVVULK9YUiV36NmVRngir1UoAAAA&#xa;AAAAAAAAAAAAAAAAAAAAAAAAAAAAAAAAAAAAAAAAAAAAAAAAAAAAAAAAAAAA&#xa;AAAAAAAAAAAAAAAAAAAAAAAAAAAAAAAAAAAAAAAAAAAAAAAAAAAAAAAAAAAA&#xa;AAAAAAAAAAAAAAAAAAAAAAAAAAAAAAAAAAAAAAAAAAAAAAAAAAAAAAAAAAAA&#xa;AAAAAAAAAAKqI3KluKVZVyjfU8F8ys2iJiE69VwAFkAAAAGq1BfWWKjZMsXG&#xa;fI/a1m7aBtQY9DWR11BBVR/Elajk9mfA0UeqLjVVVTFRWTvKU0ixq9KhE6L7&#xa;UA6UGptF/Zc55qSWnfRVcKZWKTy80UiyX5l0oKqplibTMp5FjVVflMImc9EA&#xa;24NTZr3JeXzSR0fDomrsZM9/N6+xuDbAAAAAAAAAAAAAAAAAAAAAAAAAAAAA&#xa;AAAAAAAAAAAAAAAAAAAsOc+WThx+oxvVSlrdqYhfBY7qnhLIjvPcVQyOy6OT&#xa;46f6oVi8xOrRpPb7LoANVQAAAAq4a5QAMZJ5drJF27H8seJkmdMkW8JmugAG&#xa;iAAAAAAAAGJVq/iMTa3h/wAVLiLUfNM/eLzmo5uFblFKIWvi9RebE+Ivics4&#xa;5i+9+WndxpTvn+ab+8XI1crPWa1FKgb0pr1UmfgABdAcdX11DWa1SOtniZS0&#xa;Eap+kdyc9ep2Dt2x2xrd+OWemTQWXTMVLTTOusFNWVU0iyK9WpInPy3IBjaJ&#xa;rWJHWWtkrZUppFWJyc0cxVNdYrlU2+5XdKe2y1yPqVzw/DCqb34AdSalguFu&#xa;ZTQU/D4c0aJt+1ERCuwWeotdTcZJnxKlTMskexyrhMr1yiAYtnoK6q1HNeq6&#xa;l7pmPhxxbsu96nGxSVzrVVwxxSOt0dRxahWcuuEwerGk05Y5bXQVVPV8KRJp&#xa;VfhmVTaqImFyiAbG2upX22B1C1raVWptRPBDKNHY7PV2WqqYGSxyW2RVdGxX&#xa;LuYpvAAAAAAAAAAAAAAAAAAAAAAAAAAAAAAAAAAAAAAAAAAAAAAAWKX4sieK&#xa;PXJfLT4VV/Ejdh/+imV4mJi0ei1da0uljrWpjwZzGaleW2NPaUojqV+V9dju&#xa;q+KKZXvvXHC1a6ZIAOpmAAAAF+KBjsjp+Ny2708NxkGGyF+1kfCaisXKvMw5&#xa;8E8fx0vYAB0KAAAAAAAAAAAAAAAAAAAAAAAAAAAAAAAAAAAAAAAAAAAAAAAA&#xa;AAAAAAAAAAAAAAAAAAAAAAAAAAAAAAAAAAAAAAAAAAAAAAAAAAAAAAAAAAAA&#xa;AAAAAAAAAAAAAAAAAAAAAAAAAAAAAAAAAAAAAAAAAAAAAAAAAAAAAAAAAAAA&#xa;AAAAAAAAAAAAAAAAAAAAAAAAAAAAAAAAAAAAAAAAAAAAAAAAAAygADKAAAFV&#xa;EAAAAAAAAAAAAAAAAAAAAAAAAAAAAC33iDhcXix8Pz3JguIqK3KAAAABRHLH&#xa;K3Mb2vROSqjslYAAAAAAAAAAAAAAAAAAAAAAAAAAAAAAAAA16Sujqnu/UzhT&#xa;YGJC1HTzsXopydRuZiKtceo3tNQv+0wY6KXZahsT9iN3v8kMRu9tTFE79VeS&#xa;+xS9GqNrZd3LPQwpknc+m5/0tNYjS6yoa5jlRrsp1Z4lukmfI3Dm59pESo6v&#xa;kczpgUCpwnJ45UvW9rXjc+6JrERPC5WKqUzvsI47YaeNXeKIKz/dXfYWpv7O&#xa;n+wtktNbzMe0FYjUQusqmrIjFa5memWlT6hGv2I1z18UQt1X9vB7yHI1alyx&#xa;y8OTxz0Uicl43GyKwrWoRYHOY12enuIpp1WnzJ4dVKYpFkhmRWtyiLzTxIhk&#xa;Rtuym1VTPL7SIyT3Rbfodsa1pX3xvJVY5GL0Uif/AHyAszKq0yKsrVzj1ELj&#xa;/wC3p/cZzktaNT8JisR4VQf75MStYzwa5WJ1VGlDEVZ6lE64LcOVp8d4axOe&#xa;WK1BGS1Y1HynthlvnY2NJOqL0MaabiTReq5ioviQ9qRsp13ZYi9Suoka6aDD&#xa;mrzLXyWtGp48IrWI8MsAHosAAAAAAAAAAAAAAOYtsr17Q7pGr3KxIW4Zu5dG&#xa;HTnK235Sbr9XZ/CMDITWNNIyTu9BWTvieqOSNmcIniqobCC/0M9kddGucynY&#xa;nPLeaKnLBqtD/wC7XH6041Vj7l/UOtSvbJ3VanCrG3Ks+LhQN7DqynWaBtRR&#xa;VVJHOqJFNKzDVyYNfqOrp9WQQR0tZ3dEciwoxFWVUzzZ5oY01ZU2aKi/7Rpr&#xa;xQySNbHC9ibkTwwZt3eyDtBtMkr2sYkLsvfyTo4DZ3HUEFBVR0rKeerqpE38&#xa;GFmVRPNSaC9U92papI2SwzQoqSQzNw5hrLhcZ5tUuoIq6C2RxxIqzqxquk9i&#xa;K4w9OORb/e8VXev0SfpeSb8e4DXM+S1/+P8A/kddPeKa0WqkWZskkkrGpHHG&#xa;3LlXHghyLPktf/j/AP5GbeWSxX2zTd6bRRrTI1k6sRyRuwvVFA6O2X+C41j6&#xa;N1PPSVTU38Odm1VTzQx5tV0sdbNBDR1dU2HlLJAzc1hhUdBv1NS1M+oIK6qi&#xa;jXaxkTWqrcKnVq+0t6OraW32yrpqyeOmqIpnLIkmEUC9oDDrNVKnRap3/S06&#xa;g5fQCotmqlTotU7/AKWnUAAAAAAAAAAAAAAAAAAAAAAAAAAAAAAAAAClI2tX&#xa;KN5r1KgRMRPIpWNivRytblOikPiZJ8ZrVKwRNK+NJ2pZG2NuGNaiEJExH7ka&#xa;1FKwOyvHBtDmtc3CtyhCxMVqIrenQqAmkewpdG1yoqtyqdCHwxyfGa1SsCa1&#xa;n0I4QxrWtwjWohSyGNvRrUz1KwOyvsbW+7Q/NtKuGzKLt6dCoERSseINypSN&#xa;qP3I3mvUhYInLlWNyVgdtfGjcwhWtVmxWtx5FKQRJjDG8isCaV9iLaAAXQAA&#xa;AAAAAAAAAAABjx0NLHWvq2RNSpkTDn+KohkADHpKGmoWvSmibG2RVeuPFVIp&#xa;rbR01K+mhp42QSZVY9uUXJkgDXU9gtdLOk8FBEx6dF29PcXq210NzaxKunZN&#xa;t+LnqhlgDCqrNbq/b3qjZIrEw1VbzRCqC00FLI99PSsjWRqNXY3GWp4GWAML&#xa;4Ht6UHcu6s7qq54fhkvVFDS1NKlNUQMkhREwx7comC+AMOhtFBbVctHSsiV3&#xa;6yN5lFRZLZV1Peaiiikk81b195ngCxSUVNQxPjpomwsc5XKieKr4l8AAAAAA&#xa;AAAAAAAAAAAAAAAAAAAAAAAAAAAAUcaL9uP94rKODF81H+6Ut3f8Uxo40X7c&#xa;f7w40X7cf7w4MXzUf7o4MXzUf7pX8nwt9pxov24/3hxov24/3hwYvmo/3RwY&#xa;vmo/3R+T4PtONF+3H+8ONF+3H+8ODF81H+6ODF81H+6PyfB9pxov24/3hxov&#xa;24/3hwYvmo/3RwYvmo/3R+T4PtONF+3H+8ONF+3H+8ODF81H+6ODF81H+6Py&#xa;fB9pxov24/3hxov24/3hwYvmo/3RwYvmo/3R+T4PtONF+3H+8ONF+3H+8ODF&#xa;81H+6ODF81H+6PyfB9pxov24/wB4caL9uP8AeHBi+aj/AHRwYvmo/wB0fk+D&#xa;7VYANVAAAAAAAAAAAAAAAAAAAAAAAAAAAAAAAAAAAAAAAAAAAAAAAAAAAAAA&#xa;AAAAAAAAAAAAAAAAAAAAAAAAAAAAAAAAAAAAAAAAAAAAAAAAAAAAAAAAAAAA&#xa;AAAAAAAAAAAAAAAAAAAAAAAAAAAAAAAAAAAAAAAAAAAAAAAAAAAAAAAAAAAA&#xa;AAAAAAAAAAAAAAAAAAAAAAAAAAAAAAAAAAAAAAAAAAAAAAAAAAAAAAAAAAAA&#xa;AAAAAAAAAAAAAAFmpq6ejh4tTOyGP/53IiEUlbS1sfEpKiOZiclVjkXBq75b&#xa;6iouVFV0zIKl9KjlWlmdhFRfFPahbtD6R1+nzRS2+4rEm+FXJse3Pxk28lA2&#xa;El8tcbWK6vpkR2di7054XBlS1VPBTpNJOxkK4w9XIic+nM57SVuo59O5mp4n&#xa;rK96PVWIqqiKqGodz0DU0+5z44q3hRr/APIjkA6quuUUlvnWiuVLDJErUWR7&#xa;kVsaqvRTNmrKanejJqiKN6or0R7kTKJ1U0Oq6Omo9H1UdNBHCzLOTGonR6FV&#xa;4p4anV9njmYkjOHKuxemUQDc0tyoa1r1pqqKbh9djkXBgUGo6StvFTRNlgxH&#xa;tSJ6PReNlOePcYs0MVPrqk4TGx8Wlej8NxnBNnghTV17xExOHwNnL4uWARf7&#xa;xd6CnqZqaiZDBCqJxpnZVcrj1WodA+RsUTpHOwxqKqr5IhpNa/8AdGr/APJ/&#xa;1oZeoFVNNV23/wAO7+AGLb6y63V8dZFwKS3q/LWPYqvkYi9fJMm8OSbYomaV&#xa;ZXR1lSlXHTJLHNxVREw3KNROm06K01T6y00lTI3D5YmvX3qgFdXXUlvYjqqo&#xa;ihReivciZKoKumqYONTzskj82ORUNNXSQu1Fsprd36tjhTesj9rI2KvtzzUx&#xa;bQkkV6vkb4GU6rHG5Y43Za1VavNOSAbp17tcezdX0ycRMs9dOaGLqOrmpaWi&#xa;dTy7OJVRsVU8WqYml7ZRVGkoOLTxLxmrvcrUyvNUNO6ol/qJapMcV8VY1I08&#xa;VRrnYQDt5aqCGaOKSWNkkvKNiuwr/chdOa03/tFzrZri1yXdi4Vj+kca9EZ7&#xa;DpQAAAAAAAAAAAAAAAAAAAAAAAAAAAAAAAAAAAAAAAAAAAAAAAAAAAAAAAUT&#xa;SsghdJI7DGJlRM6jYieeOmi3ScmljvrZIkWPamfFTnKyV8lw7wyXex3NE3Z+&#xa;w2dDbapYkdI9rEXnsU5Ms5eLY/DX8fiJ5ZiXNE5Staj0Vejspt88mbDNHPCk&#xa;kbmvY5MoqHNXiK4UMzJYGtWPplG55r5l+gvCtnigcxqRu5e5TXHa+o74WyY4&#xa;jU1ny6AAGzAAAGuuVnbXTxVMVRJSVUKKkc0eF5L4Ki9UKbfZ+6Vr62oqpa2r&#xa;ezh73tRqI3OcIiGzAHH6btVTU2FH09znpWySPR7GNRU+MqZb5G6m09SusLLV&#xa;E50cLVau7qqqi7jasa1rcMa1G+SEgYV3tjLtbJKJ7+Gkityqexcie2snu1Lc&#xa;Ffh9KjmIzwXJmgDCltjJbzBcVfh8MaxozwXJZ+BlbfH3GnrHw8VG8aPaitft&#xa;TCGzAGFd7ay72uSie/hpJt5p7FyZbo2yROjc1qsVMKi+KKVADQf1WXu/c23S&#xa;pS3Kv+78unXbu64NpNQq59LwJ308dMqLw4+j2omEavsMsAaqusa1Fy79SVkt&#xa;DUKzhvVjUcj2p5opbpLEy2PrapKiWZ88WHcTmqqidTcgDkbBZqir0xTpHdKm&#xa;CCZq74ka1fFUXavVDdz2OmlttLRMc6KGklbImOe7abJjWtaiMa1E8kJAwKy0&#xa;sqLlT10croaiHllP12L1a4zwAAAAAAAAAAAAAAAAAAAAAAAAAAAAAAAAAAAA&#xa;AAAAAAAAAAAAAAAAAAAa6+o9bU5GeKobEtVcCVFM6NfEpf8Ajwia7jtcxZ6B&#xa;XXCOSTbhF6eSoh1hzFaj6GFJIPUVj0VTYw6joliRah3Bf/mhzdJebxLpnDMU&#xa;iY9Gzl28F+7phcnIzOpJ3pwPUk8M9DZXS8JPRujoue/qvs9hprZAtbcI4tvN&#xa;Fyq+SIa5sMzMS86ep7bxWjt41VWIq9cEgG7pAABafVQx1MdO52JJEVWIKiqi&#xa;pIeLM7DDX3GF0tyTh/2jIVfH/eRyKWa+ZtfTPcz+zih4i/3lTCJ9iAbWarig&#xa;xu9ZX/EYxqqq/YhMNTFMxysd8TkqK3Cp70Uxof8AjEuevBbs92VyUvSP4VnR&#xa;3KNaZOIv2qBeZcqdyp/aIx3Jj1YqNVfeXVqok4+f/wCOmX+xMZMF/FpKVGTt&#xa;ZU0iI1M9HI3wVU6KUzdbv/hJ/wBAGWy5U64zvYj8YV8Tmpz9qmRLI2GJ8juT&#xa;Goqr7kNasdVWW9lOsEcbHsaivV2eXsTBmXD/AIZU/wCE7+AFMdxp3KxP0jN/&#xa;JivY5qLn2qZRqHOnlp6SmlY2OOTb66O3dOaJ0TCqS+Saoqan1KleG/hx8FyN&#xa;RMJ1XmmQNsUSSJErEVvxlwmG5NfKlTJwFlbKqJF68cLtrkd58lTKDjLwaHZP&#xa;I9Fm2Kq8lVMLycBsXyJFE+RejEVV+wRSJLCyROj0RU+01axuqqatmdLKitV7&#xa;GIjsIiJ7ClJZHLT0+2V8aU7XqkLkaqqvLmuUA3BCqjWuVXYRDV/7TwqeOR0s&#xa;eZlZncm5WYVUzgOiVFrqfiyrGkTXsy5coqoviBtGOa5iOZzRUyiluaoip1jS&#xa;R2OIqMZ71LdujRtugxzzG1eblXqhg1kkdRWTsc2RUjj4bFZErsPXmq8vIDbg&#xa;1bqh9VT0Ko+SNZJNj8OwuURcoRULJS98gjlkVnd+IzLlVWL05KBtQa5zXUsl&#xa;JIyWV6yPRj0e5VRcobEAWJ6yKB6MXcr8ZwxiuXHmuC+YTmzQV8k0cHGZKxqc&#xa;nIisVPf4AX3VkDaZJt+5j8bMNyqqvgiE09VHUbkZyVnVj2qioaul3baFXNai&#xa;LNIqInTxwZrP+Nv+rtz79ygX56qOnVEfze/oxjVVVJgnjqGbo3dOSorcKip4&#xa;KilFQ6Gn/wBoc310TYmOq58EKaOF8THyS7UklfvVE8PBEAuJVQrVd23fpkTf&#xa;j2Ceqip1jSR2FkVGM9qmsqEVtznqWdaZI3+9vNHIRWOSqqUmTnHFJHFH71ci&#xa;uUDYPuEMcz4tsqrHjOxjnImUz4F6KVk8SSRuarF6Ka+NKn4Tru78JPi53tVf&#xa;1fYX7Vjuez9dr3I/+9nmBmFE8zKeF0snJidSsoljbLC+N3RyKi/aBE0zIIXS&#xa;ycmMTKqXEXLUU1EbnVEVLRO5vY9Ul9zP/cl8k1RU1PqVK8N/Dj4LkaiYTqvN&#xa;MgbYGsRs9RWxRzPkjXu6PexjsZdn2FM/EbJNJM+dEzmOSN2WsTyVoGz4icbh&#xa;7eaJn4vIqNfPUSQ1lS5HZRtKkiJ4ZypQ5r6WmgqUnlfIqszlyqj8rjoBswaz&#xa;hOnmrt08qJGv6NGOVET1UUyqPM9NS1Ejnb+Gn62EXKeKAZIAAAAAAAAAAAAA&#xa;AAAAAAAAAAMG425KyL1HYXxTwU5SssNe2d+KVys8FZzO5BTHStLd1WsZbdvb&#xa;6ORtNjr9rklZwWL+2dHbrbDbodkfN681VeqmWDa15tw5q46xbuAAUaAAAoWB&#xa;i1KTfrois+xS0lvp0p5oEbhkuVX7TIAFmakjn2Ku5Hs+IrHYVBDSRQseiNzx&#xa;Pjq92Vf78l4hjmuais2qi9FQDFbbYOSK6VY05pGrlVpddSRO4+f+cmH/AOWC&#xa;8AKY2pGxGJ0RERCJY2ywvjd0eiovuUrAFl9LHJTJArfUZjHmmOhRLRRSSOk3&#xa;PYrkwuxyt348zJKEmYs7oP12Ijl9ygWn0UTnMVN8bmJsRWOwuPIJRQoyNiN5&#xa;RP3p63j5qXZZooGbpXtYnmrsFTHNkYjmc0VEVFAx5bdDI96rxEST47EcqI8O&#xa;oonNj27mLGmxisdhcGSWpqqGnxxHOTPT1VX+AFLaOJGx/GXhqr0VXZXK+ZX3&#xa;aPiSSK3nIiMX3IU09XDUK5In5VmMptVOpeAt00DaeFI2blROmXZwTDAyBmGe&#xa;Kq9faqln4QpeLw+K3dnZ8VcZ8smSBgVFvR0kPDa7CzLI/DsYy3qhM9AjaGpS&#xa;LdJNKxUy92VXyQyZqqGnxxHOTPT1VX+BRHXU0iPVkvqxplctVMJ9oFMNDHE+&#xa;OReIqtT1Ee5VRnuMosw1kFQ/ZG/K4zhWqi4+0vAC1PTsqGokm7b5I5URffgq&#xa;4zO88D9fZv8AszgrAtS0sUsKRK3DG42Y5bFTpgojo44mSInEVZEwr1cu5ftM&#xa;gAY01FHOsaq+RFjTDFR2C7DAkH6735/bdklJ2LUug/XREf8AYq4KwLaU0aTS&#xa;SbeciIi+5C0yggbTR06NxHGqPT3ouTJAGM+3xunfKj5WLJjOxyoi4TBehhjp&#xa;40jjbhiCaVsEL5XfFYiqpDJmOk4afHwj8exQLgIc5rW5dtRE8VJAtR0sUVTJ&#xa;UI39JIiIq+4ty0UUkjpEdIxXphdjlbv95kgC0ymjbMkiNwqM4ae4tPt0Ej3r&#xa;+kRknNY0cqNevtQygBb7vH3h0u3mrEjXywhajt0MT2L67kj5xsVyq1nuQySh&#xa;s7HTyRJ8eNGqv2gQyBjVkVN36Xmv+WCI6VkaQozciRJsYm7+JdAAFHFZxki/&#xa;XVM49hWAAAAAAAAAAAAAAAAAAAAAAAAAAAAAAAABjcR/wtw93qcHOPbuMN08&#xa;6xYSVyKtYsaL5NyZs9IksySpK+OREVMsxzRfBclMduibEjEc9cS8bKuyu4Cy&#xa;jZG1klMtTK5ixJIiq5NyLnHJS1SqsNjg/TyM4m3o3cvPwabHgM713j9fZw8e&#xa;GM5MdLbGlIkHFlwxUfGu5Mx48gMeOqlgfVIvFVI4uK1JsZzz8g5J4YqSXvUj&#xa;1lkYj0XGFz5GVHQsZJLIr5JnyM2LvcnNDCjpZHSU8aNqUZFIj1SZybWIngmO&#xa;oFzM00VVUd4fGsauZGxMYRG+ZQtVLI+CJXS47u2RVhblyqpNXA/fOyKKpTi5&#xa;5Mcmx6qnVV8DKSgThxfpXRzRxpHvZ5faBipNUvZBTuc+NZJFZvVuHKxEz/mp&#xa;XEj6e5T/ANpPiJmE5buq+4yXUTHU6Rq+XLV3o/d6yKTBRtgmfLxZJHuREVXu&#xa;8gKahGz0T5JIMPSN2Ee1FVBBK6O206sgdJ+jbyZjy9qoZD40kidGvR6Ki/aR&#xa;FGkMLI06MRET7ANdNVSS1jottSxjGNVUhaiuyvmZdJNIlBxKnkrc5VW4XCeJ&#xa;M1Ij5klZK+GTGFVmOae3OSX0jJKXu7nyKzxVXZVeeeYGNEro7dNVSP4Mk3rq&#xa;qtzsReTUwU00sjLhHF+nVkjFVeNjqnihnTwMqIHRSfEUsx0CNnZM6eWSRiKi&#xa;b3J0UCzPFG5iW6nbyTCvX5tqLn/NRUuc6pexks+WInqQtT1FXxcqlcdt4O7h&#xa;1lSmcqvrN5qv2Fb6BrpnSJLKzciI9GORN+AJpKhZLXHUS7f7PeqlukhbLSPl&#xa;qGtzUKkiovl+qhc7jH3BKTc7hpj3qiLnCl6aFlRC6KRvqKBhOdL8KwrUMamG&#xa;O4aMdnevjnOCaiqmdFHGjH0yyyNjyuM4XmqphVL0VGjZkldK+Z7UVGb3Jyz7&#xa;kQu1FMyoi2O5dFRU5Kip4oBrn7qOvkk3uk20qvTf15KIJanfTuTvL1djib2Y&#xa;ZhfFDMjoGMmdK6V8z3sWNd7kxgQ0SQqzE8qsZ8SNXckAxUnmViUm/wDT8bhq&#xa;vjsT1s/5Fp1RPOs7md5R8b1ZGkbMt5eZskpIkrXVP/MVmz2Ft1A1ZHujlljS&#xa;Tm9jHJhVAxXTuirJqhW4elI16s9uVXBU7j0sENStQ6RVVu9i42qirjkZndY+&#xa;O6VeavjSNUXphC1HbmNdHmWV8cfOONXJhFQC0yOaqqapO8SxpG9EjRmOXqop&#xa;XSVsstNA5YHvV6JlWYwi5x5lDKJ8lTVKr5YUc9PiORN6bUM2KJkMSRxtwxiY&#xa;RANVNxaq1VNSs8iZR2I0xtRqKqYL7ppGzzMR3qspUeieS8+ZcfbI5ElZxZWR&#xa;yZVY0cmMqXVo41e93rZdFwl9wGvqYZFsLpZKiV73Ma9emDKfI6iqod0rlgcx&#xa;WKr/AAcnrIpkOpI5KHuy/E2Iz28jGrYFnp46NWvkyqKsi+CIvMCaWedKaN0k&#xa;Esiy5eqpjDEVeSc1Qsrx3w1sveHsWne7homMckzzNoWEpI0hnj9bE2VX7Uxy&#xa;AwpauSWohi/SoxYmyLwW81VSY56hrYJJeIjElWNd7cK9q/FVTKdRMXhqx8kb&#xa;402IrMZx5LkSUTJKN1NI970f1VXZd5gYKVlQtPMiu9eba+H2Iq7UKpZnUs9x&#xa;lZzcyKPGftM51HE6aCRW86fOwLSRLJO5efGRGKi9MIBjvSaifTu7xJJxJEje&#xa;j8YXPihbzNNFVVHeHxrGrmRsTGERvmZMdA1sjHOllkSP+zR7kwhiVcD987Io&#xa;qlOLnkxybHqqdVXwAriqpEmhVXOVO6cRU83JgrpoqmSngqe8OV7tr1YvxcL4&#xa;Iheho2xLHIvN8cSRezBSy3RtVicWVY2rlkauTaioBlgAAAAAAAAAAAAAAAAA&#xa;AAAAAAAAAAAAAAAAAAAAAAAAAAAAAAAAAAAAAAAAAAAAAAAAAAAAAAAAAAAA&#xa;AAAAAAAAAAAAAAAAAAAAAAAAAAAAAAAAAAAAAAAAAAAAAAAAAAAAAAAAAAAA&#xa;AAAAAAAAAAAAAAAAAAAAAAAAAAAAAAAAAAAAAAAAAAAAAAAAAAAAAAAAAAAA&#xa;AAAAAAAAAAAAAAAAAAAAAAAAMbvEvwl3bur+Dwt3H3JtznG0yQAAAAAAAY9d&#xa;US0tG+WClkqXpjEbHYVcqBkAGvqbk+C/UVvRjVZUte5V8U2oBsAAAAMaatp6&#xa;etp6WRzkmqc8NNvXamVAyQAAAAAAAAAAANfX3J9JdbdSIxqpVOcxV8sJkDYA&#xa;AAAAAAAAAAAAAAAAAAAAAAAAAAAAAAAAAAAAAAAAKqI3KltZ2I1Mbn56IhWb&#xa;1jyaXAWI62B7co/Hr7OfLmXyYmJ8E1mPIACQAAHPXlJ5tT22jjqpYI5YpN/B&#xa;dhVwhjSUE1LqOC209xqmUlVEsjkWRVcm39ly9Mm1q7fPLqW31rGt4MEciP8A&#xa;W55VBUW+eTVFJXI1vAihdGvrc8qBhUcT7XqtKGOonkpZqZZeHM9XbHI7HJVL&#xa;VrpH6jhmuNVWVLGOkc2GOKVY0jai4zy6qbKW3zu1VBXI1vAjp1jX1ueVXJh0&#xa;1HdrKs9PQU8FVSSSLJHvfw1iz1RfNALVPWXNbJdaSJ7p66hk4Ub/ANZzfBf7&#xa;2DGt/dX1FP8AB94qI65qt4sNW93rp4tVq+Js6WyVlPZ6pG1jY7jUyLM+Vieq&#xa;jvL3GNWUV3vXd4KuipqVsUjZFnZLleX7CY5ZAymTS/17dBvdwe4b9m5dueJ1&#xa;wa6z2593hrZKqvrMMqZI42Ryq1GYU26UE6asW47W8BaTg/G57t+409hmu0EF&#xa;ctFSwVEa1cuEe/arHZ/1QDZ6ZqqiakqqaqfxpqOodT716qidFUtanfUb7XFT&#xa;1D6dZapseWO8FQu263Vtrs1SrOFPXzSLMucoxXKV3Ohq619qkRrN9NMyWVu7&#xa;kmE54A115l+AqOkoY6ypYyqlXiVD3LJKxidcGNTXGkpb3QttdbVVMczuFNHP&#xa;vxz6ORXIb29WyatbT1FI9rKukk4kav8Air5tX3kUs17qKqPvFLTUkDM7/X4j&#xa;n+7GMAaWoliW8Vrb3WVlEnExSrG5zYtngqK3lkv3iSrpNCyPWv48ybdtRE7C&#xa;q1Xp4oZr0vlNNPGyCC508r1WNZH8NY0X9VUxzRDDm07VpouS1xuY+okekmEd&#xa;hjMuRcIBkXh01dfKS0R1ElNAsa1Eyxu2ueiLhGopjLb/AIO1la42TzyRrHKr&#xa;EmfuVnLwVTYXe3Va3Cludv4bqinRY3wyOwj2L4ZMeKiutXqCiuNZBBDDC17N&#xa;jH5VmU8VA1a3SiuFwq3XK41VMyKVYoYYN6IiJ+sqtRcqpTJdauXR1VsqnrJT&#xa;VTYo6jm1z2bkwqm3jo7pZqyqW3wRVtLUyLNw3v4bo3r1+wm52+6XLTz6ebgO&#xa;qnytcjGcmsajkXGV6gYt4o5LLFT3CGvq5J0mYyTiPVWvRV5orSm9W2OTVlqz&#xa;PUp3ni5xKqbMM/U8ja6ht89ytrIadrVekzJObsckUtXqhrX3C3XCiiZNJRq/&#xa;Mb3bco5MdQKL7wYpqWOquUsFLhU4EO7fM73t54MfT1Xi+1VDBPUyUiRNljSo&#xa;R26Nc4VE3c8GRXUVyivUF2o4Ip3934MkD37cc92WqTbaG5pqKa410cDWywJG&#xa;iRuzw1R2UQDXWG2SXiyJUVNyruJuekeyVU4eHFqouVdJoqVzp3Nq6apSnWRj&#xa;sKqo5EyVacmvEVgRKGlpp43Ofw1e/asa5XqniTeLY+16GdTue1875mySP8Fc&#xa;rwL94t89loPhWmr6qSeBWrIkj1VsiKuFRUOnY5HMRydFRFOer6O9XmFLfUwU&#xa;0FMrmrNNG9Xb2oucNTHI3LlrG3CKOOKLuW1dyq5dyO8ERANHdFpFu0jLhdKl&#xa;eScOlpd+Y083bTHo66ok0pem94letI+SOKR/qv2omUz45MxKO7Wy7V01FTQV&#xa;UNY9JMyP4axqnn5oYrrdWUGm78tbsV9RvlRY+i5QCX2mf+rqXKO5VnfGU6TI&#xa;qyrtXDd23b0wWrrdY0XTt0na5G7HSPRvmrE5IXmR32s09Bb44KZIpadjVqN/&#xa;Rit/Z88GdUWV3erK2BGrBb8o/f1xtREUCNPrPcv+2aiozxkVIoGOXZE1PPzc&#xa;bw09Jbai2XuV1I1q26py98e7HCf5t9im4AAAAAAAAAAAAAAAAAAAAAAAAAAA&#xa;AAAAAAAAAFVEblQa++yuitUuzxwnIi06jas21G2puVxqXVrol/3bww0vUK1M&#xa;sSIyJyx9UU11tgmrK2Fkm5YfNW+CczsGNRrURjWoidEOScVc0bny3/UvqOIi&#xa;HL3KtWhrESWJ65Tmu7HJeXJTaW25U+2KkR3VPUVea/aZ1ZSQ1dPslY1+OaZ8&#xa;FOXmpuC9ksErX7FyiJ1Qbrh1Va9631ERp14IYuWIvmhJ2MAAAAMpnaFVE6gA&#xa;FVEbldqIEVFblAAI3Nzj1c+QygEmNQ0EFvjlZTtciSSLKuXZ9ZepkI5q9NpI&#xa;AEI5q9NriQAAyiAAFVEblXYROqhFRzUVNqoqZRQAAAADKAAAAAAGNQUEFtpE&#xa;pqZuI0yuFdnquRXUMFypXU9S3Maqi4R2OaLkySFc1vXagEgKqI3IRUVuU9ZA&#xa;Baq6WKspZKaZrljlRWqnTkpcVUTrtQIqL02uAphhZBTxwRtwyNEYz3ImCsZT&#xa;O0KqIABG5qLjc0kAAFVEAAAAAAAGUzgAAAAAAAAAAAAAAAAAAAAAAAAADGuE&#xa;Cz0b2J16oZIK3ruuhzKyvtbWSp6/r8zoKarhqo0dE9q/xQ113t8ktPiJuUXm&#xa;qJ1Q5GpSWKZ8aucm37Dl6OlomaWdlq0tj3Ho7O8XKOko3oznI5MIieGfFTl6&#xa;SNZ6yJkfx1VEJtST1bHR7eJg6Ky2RKFe8TbVnf8A5MQ7suGI528WYvfJr0ht&#xa;0TDUQAFXcAADU3Lc25xzM608SyY80RyZT/Ii9SJUU3Cj+IkazKvs/VM91Mrq&#xa;9Kj1cJEsap71yYzLUraGpg4uVl5MVfBqdEAnhsq7lw5mtfHFE1UYvTK+Iji4&#xa;FfPTU/6NkkPEYngx2cZQvTUsvHSop3tSRGbFR7co9CI6N6rNJM/M0qbMs5bE&#xa;8kAwo4qeKKOCog7pOmMTbervPd7Subrd/wDCT/oLz6Oqnp+7yysWHllUYu5U&#xa;QuPo3OWt9Zv+0MRiez1cAa9yUslBGlJB/tWG7FZErVRfNVwbO4f8Mqf8J38C&#xa;7DHw4WM/ZREIqIlnpJIk5LIxWZ96Aaj/AGZ0NPHSQbKtdioqMWPp1VVXGUMm&#xa;e5Kk0zI5aaPhcsSO5vUyJaNzqaBGOak0O1WL7uS/YpStJPHNI6ndFiX11SRq&#xa;rhemUAtPuLnd32OjhZLHu3zc0z+z4FUs0mykWWKPe6VE80TkvNpelhqcoscs&#xa;b27NiskbyX28i1HblbDTx72/opOIvq4TnnkgFuaepqKesWPhJDHujwrVy/Cc&#xa;1KG13Bip6dJYIV4LXqs3TyRE6F51FUI2eOCWNIZsquWqqsVeuCe5SxrDJE6P&#xa;iNiSJ6PblHogFtlylkhh4TYle+VYlXq3kirlCp09UrKqBzouJGxHoqNXCoqL&#xa;4Z6l5aWV3d1ke1XxyK9cNwnRUwhK0irPPIruUsaR+7GQFvWRaCFZHNVVY1cp&#xa;5YMS4I6qqeHG7C0rOIn+IvRDOo4pIKVkUm1ysRGIqeSFmK2w5ldURRzSSPV6&#xa;qrM+5AKZa17oaR1O1q94VE9fwymSl9bUU7amOVrHSRxcWNUaqIqe1CzNSyU7&#xa;6eONzUTvCrH6vJiK1VwV1dNKlJWVEzmrIsSsRGdERALveKqGSBZmxLHMqM9R&#xa;q5YqplPeZxgx088qwLNLGscWHojGqiquMJkzgBh1cEKP7xLBJUrjYke1HY9y&#xa;GYY0sVSk/EglbhURFjkyqJjxTAGvTaluoll2rTcRd/iiJz2ovsQyaCSH4QnZ&#xa;TbeBhr+Xxd3NFwX4ad9PR8ONzXSLlVV7eSqq5XkhMVPJCyV29r55E6q3CJjo&#xa;mPJALNxhfKtOiQNnYj1VWK5EToqJ1K7esX6SNlO2CRioj2Jj7F5Fc0U68N0c&#xa;rUkZ1Rc7X5FLTPifJLK5rpJcZw3CIiJhEQDXzOWC+SVPgxGMf/dXKZJubllr&#xa;I0T4lNIzPtcrk/ghmrRJJPUuc5qsmY1mPcWWW56UbIllzJxGyvXzVFAx3JCt&#xa;zreJROqfiYwxHY9X2mZav+HM9bPXl+xz+L9hHdqqKsnlgfBiXauHtVVTCYL1&#xa;JT91hcxXb3vVXqvTKqBfLVXAlVSSQL+uhdAGrlndWW+ng/5lQqMd7ET4xM1y&#xa;VJpo45aaNtPyxI7m9UTw5phC/DQcG4SVG7ci52M8lX4wWknjmkdTuixLzVJG&#xa;quF6ZTAFCVs9RNCynaxEkiSVVflccyl1bOtTJHHwEWNcJG/k56eaKZLaZyVi&#xa;TK5q4i4a+rjK5zksVFFUTtfEssawu5or2ZczPkBVJUNhr5lcxuI6dJFXb63V&#xa;eRT3qqhZFNM2LhyK1FYjVyzPTn4l11EklTI53NkkKRKniW0o6hzY4ppY3Qx4&#xa;Xk1Uc/HTIEOqKuSSqSLgIlOvLe1VVeWTIglkqIoJk2pG9mVTxyqER0qtfUru&#xa;b+mXKezlgU0MsENPFuarI2YX1eaqnkBkAAAAAAAAAAAAAAAAAAAAAAAAFD4Y&#xa;pP7SJr/e1FKwBSyNkbcMa1E8kbgqAAAAAAAALHHXv/d9rccLiZ+3BjuuEiRZ&#xa;ZE1Xd4WFE3YAzwYSVFTxpKdzIkkRiSMVHLjCrgoo56n4IhkVrZHqiYVXY5eb&#xa;lUDYAwYbh606S7F4TOJmN2UVCO+VTWwSSQRoyZ7UREcuWZ8wM8GA6sqFbPJB&#xa;ExYafKLlyor1Trgl1wcvBjj4SSSRJKqyOw1EUDOGU3Y9XJgNuTpIWJGxqzvk&#xa;WPG71cp1XPkUQyuiuc7qrZHiJmV3cuq+YGyBh1aMqaN0kc7tiMVf0buS/ahX&#xa;BPFBbad0srWIsbOb3Y8AMkGHUw0awvqpGNemM53dUKaWiVLcyNXvjVV4i7HY&#xa;6+AGcDCtjkbamOc7km5VVfY5THhWSS7QTO5JLG7YzyamMfaoG1BqqykZDTuV&#xa;XcSrkf8Ao16LuVeWPYhkz0sSvdNVOa+NjEwxeSM81AzAajDko6RlRuSB0i5y&#xa;7nt5q1HFcCNdPVUlJLsj2NVFTmkblyi4A2gNdwIoLlAymbhWIqy+t+rjluL0&#xa;1xhSDdA9kz8tYjGOTqq4QDLBiR1FQlYynmYz1mK/LHL4e8tfCErZo0lbAiSP&#xa;RnDR2Xsz0yBsAqomM+JjS3CmjikVJWvWJFVWI5FXkYszqlami4zI0RZMpscq&#xa;qnqryUDZg1rrq5GPmY2LgxqqYV3rqiLhVRC+tdw+9cRrf9nRHp7WqnIDLCqi&#xa;KiLtyvQwHV0vESJGwMkRiPfxHYRFXwQt94SqqbdLtxl70VOuFRqoBswYC1tQ&#xa;6J9RFE1YI89XLueidVQrdWSvqWRU7Y1R0XFR73KgGYDEhuEfCd3l0cL2PWNU&#xa;V3LKeWQtVNLUvjpmRqkaJlXu6qqZwmAMtFRW5TaqA1NBIiQ25FY1VesmF8up&#xa;kQ1FXUMlcxkSMYqsRVcuVVFwBnA1lJVzx0FJJNtekioxV3LlEXoqmSlexJp+&#xa;I6OOONUjRVdjLsZUDKBhOq5pKp0VM2J6cNsiPV3Ln7in4SXukLtjUmkeseFd&#xa;hqKnVVUDPBr/AISe1k25savi2qqsdlFaq9UL3f0+EH06twxGZz7U5qn+SgZW&#xa;UyierlQa2OZ09bb5XNwr4nrj2Lgq+EJ1pu+JA3u3XG5d+3zA2AMSSqmdVcCm&#xa;bGu1EeqvcqJz6ImCz3tZ2U7pIG5WoWPG7oqZTIGxBhLV1MiyOp4mvjiVWYVy&#xa;7nqnXBmMXLEXbjKdFAkAAAAAAAAAAAQAGRkyrVa6y9XKOgoIuNPLnCdOnNVV&#xa;VOr9EeqPmqX75AOKyMna+iPVPzVL98g9EeqfmqX75AOKyMna+iPVHzVL98g9&#xa;EeqPmqX75AOKyMna+iPVHzVL98g9EeqPmqX75AOKyMna+iPVHzVL98g9EeqP&#xa;mqX75AOAninSsSog4arsWNWPcqeOclmOin4SI5zN/eeMuM4wei+iPVHzVL98&#xa;g9EeqPmqX75AOC4DvhDjersWLh+3OcmKlFUfBsdOvCVYXoqJuVWvRPM9H9Ee&#xa;qPmqX75B6I9UfNUv3yAedMo5XSzuqOExksXDxH4GMs0sncouLBIiSNVFjcqq&#xa;9E8VTwPTvRHqj5ql++Qob2P6lauW09Gir4pMgHm08jqWKsjjlgVj8qqPcu5i&#xa;qnNMeJdSik208zGRPekLY1jk9h6IvY/qZXo5aelVf8ZCv0R6o+apfvkA88dS&#xa;TcKKRjYGTxPV6IjcNwqYVCuCGfvks03C9djWIxmVxhVPQPRHqj5ql++QeiPV&#xa;HzVL98gHDzM3U8kbNqK5FRPtIgj4dJHG7aqtY1F+xDufRHqj5ql++QeiPVHz&#xa;VL98gHBVMDp1hZ6qQo/e9PPHRDIydr6I9UfNUv3yD0R6o+apfvkA8/go0S2p&#xa;SVG16c84cvnkoW2sStilZu2NRc5e5Vz4Hofoj1R81S/fIPRHqj5ql++QDztI&#xa;a1Kp8ytgeq8o8vcmxvknImohq55o12wLGxEVY1cqIr/8uaIeh+iPVHzVL98g&#xa;9EeqPmqX75AOD/2h1M5JGQcTwZuVW/byLcNPLDFNImzjyImPVwxMdEPQPRHq&#xa;j5ql++QeiPVHzVL98gHndJFV0+EcyBdy5e/equX29C/V03Hp8R7WPYrXsXwy&#xa;i5O99EeqPmqX75B6I9UfNUv3yAecLx3XWHjNjYqxPRNjlXyKWW+pSOni20yJ&#xa;TyNeqpnL8KekeiHVGc8Cl++Qn0R6o+apfvkA4SpgZUUz4l5cRFTJj8Gslmp1&#xa;l4CJE/K4cqq/kqHofoj1R81S/fIPRHqj5ql++QDzllBLDujjipnsVVVHyN9Z&#xa;EVc/aXaujWephkRzUYnKRPNqLuRD0H0R6o+apfvkHoj1R81S/fIB55PSP746&#xa;ojZBJvREVkns8UXClSUsnEpHLwk4W5VRjcJzTHI9B9EeqPmqX75B6I9UfNUv&#xa;3yAed91qoqeSli4XBdnCq5dzEXqmChWyQ3ONlO1q7afGHuxyRT0f0R6o+apf&#xa;vkI9EOqM54FL98gHB0kDoWSLLtWSR6vXHRPDCFtYaiGqkkp+EqS4yj3KmFRM&#xa;ZTB6D6I9UfNUv3yD0R6o+apfvkA87gopYm0WXNXu6uVfblF6F+kgdBTvY7bz&#xa;e5/LyVcne+iPVHzVL98g9EeqPmqX75APN3RLT2R9PUujTYxUYqO645ovvMuh&#xa;hWOhYknORfXf/eXmp3buyDU78bqelXH/ANZCr0R6o+apfvkA4JkLm18s/q7H&#xa;RtYie5VMb4Of3aP+zWSOR0iIvNqoqryU9G9EeqPmqX75B6I9UfNUv3yAcBFT&#xa;udDMyWKCNJE2Yjb/ABXkYy22ZbakXFbx8qqv9/Jf9D0j0R6o+apfvkHoj1R8&#xa;1S/fIBwT6ZVrKeRm1I4mOYqe/BjdzqkpO5I5nA6b9y7tq+GD0b0R6o+apfvk&#xa;Hoj1R81S/fIB51Mvda3dFLAivjaixyO28k6Khao4JJ6Snk9XlULKq9Mpleh6&#xa;PJ2P6mf8amo198yFfoj1R81S/fIB54kFXAsjKfhbJHq9FfnLFXry8TNblGoi&#xa;81x1O29EeqfmqX75B6I9U/NUv3yAcVknJ0l57PNQWG3PraunhWCPG5Y3ouw5&#xa;hqgVggkAAAABAEEKSUqB3HZF/wB/4/q8h72eBdj/AP3+j+ryHvoAAAAAAAAA&#xa;AAAAAAAAAAAAAAAAAAAAAAAAAAAAAAAAAAAAAAAAAAAAAAAAAAAAAAAAAAAA&#xa;AAAAAAc7r/8A7hXj6up83Ip9I6+/7g3n/AX+R82NUC4SUoSBUCCQBBJAEFCl&#xa;SlCgdv2P/KBH/gSnvx4B2QfKBH9XlPfwAAAAACAM8jFkr6diO9dq7eqJzMcm&#xa;WmOO686hMVmfDJJNL/WKlhroKKZkkUk+9Y1cibdrfHKckRfA2FJXU1cki00r&#xa;ZEikWJ+PBydUJpkpk/hKZraI3MMsAGqoAAAAAAAAAAAAAAAAAAAAAAAAAAAA&#xa;AAAAAAAAAAAAAAAAAAAAAAAAAAAAAAAAA5zX/wAn95+rr/I+amH0rr/5P7z9&#xa;XX+R81MAutKihCsCSSCQBBJAFKlClalCgdr2PfKBH9XlPoA+f+x75QI/q8p9&#xa;AAAABSOmSTS6puK2jTFdVsdsfHH6q+SryQi06jatrRWvdPo4rX+srjbbolto&#xa;ms7vJGmX+LlXqiGqtF2liqnpRwSTo5Nqojf4J5nLS3+4VSMpHObU/wDMYqu+&#xa;zby957hprT1LYbYjImN7xKiOmk8XOx/BDxsnSU+oU3knVo41HjTtp1+T9KsY&#xa;8cRSY8+szDjb/WSUWnn1Va2qhhZtXYrFRc9ETC4NZpLV1urrhFWq6opZ6KDu&#xa;/BkqE4D2qqru6JzPWp6aGqp3QTxNkjcmFaqclT3Hll97P4bRWudZmYSbmrFX&#xa;pz6IZY+lxfTMM7vMb437R7N79VjydNNJpu8a17PTbVdaS80DKuilSWF/RTMU&#xa;8t7LJ56C8XCzzx8PCLLs8GYdjl70VD1NOfM9rFkpkrFqTuHFlxzjtqRz2xsV&#xa;zuSIaiz6tsF/nfBabvR10kbdzmQSo9UT7DYV/wDw6o/wnfwPkrstuE+k9S2b&#xa;UcjsW6rrZLZN7PVjx/15NWT6+NJb9X6dulzdbaC80dVWszmGOVFcmOvJPIwu&#xa;0TUiaT0FdLq12Jo4tkP+I71W/wCp4N2LWqezdslFT1X9tJblqFTySSNHoB9L&#xa;11wpLXRvq66qipaeNPWklejWp9qmjtnaHpK8VraOg1DQz1D+TY0kwq+7OMnl&#xa;erY5O0vt4j0lUzPbZLQziSwsdjiOwiu/9jo9e9jml5dG1stntcNur6OF00Ek&#xa;OUyrUzhfYB6uczcu0TSNorHUldqGhgnbydHxMq3346Hn2l9X3rUX9HS6VVPK&#xa;+S8W+KSmWVPjLtRF3e/YpqOxaw9n180pHDcaa31t8kc7vEdR8fqu3ai+GPID&#xa;3K23Ohu9G2rt1ZBV07+kkD0e1ftQx7fqK0XS4VVBQ3GnqKqkVWzQxyIro1Rc&#xa;c08Dh9Ddmtx0Nre6VNBWwf1crE/R0eXK+NU6YzyOY7Hvlt159Yn/APXUD0+r&#xa;7QNJW+slpKvUVugqIXbJI3zoisXywZdq1dp2+TcG13ugrJk/5cM7XO/yRcni&#xa;Wj9NWjU3b5rSmvNBFXQROmkYyToi8ZEL/bToOwaO09R6h09B8D3Gnqo2M4D3&#xa;JvyB7+ai86psWnXxMu91paBZv7Ns8iN3Y8idLV8900laa+pbtnqqOGaRP/mc&#xa;xFU8f7e6eKr11ommmZvhmlWORnm1ZIwPU6XtB0hWTNhp9TWqSR3RiVTM/wAT&#xa;ozynXvZNomn0PdayC0wW6alpnzRzxucmxyN5eJPY1qVafsY+E73U7KW3PlZx&#xa;pPmmdAPVQeNr27181M+50WhblUWJmUWu3qicvYjF/id23tBsK6B/rf3hfgtI&#xa;96+r6yLnbsx+1nlgDqTW3q+2zTlsfcLrWR0lKxURZH9Mr0TkeXr243WK2svM&#xa;2gbhHY3YxWcfwXx27Ohvdear05WdlCX6ptrb7Z53xKkCv4auy7H2KgHeUVZT&#xa;3GghrKSVs1POxHxyM6K1U5KhYvV4pNP2Squtcrm01LHxJFa3K4T2HMv1tZNL&#xa;9ldt1BJSrRW99LEtNRx4VfWZlkbf4HnOq+1q437s7ukdw0XcbXQ3CnVlNXbu&#xa;JGuemctQD2XTWoaHVVggvFtc91JUbuHvbtX1XK1eX2G3PMuyC50dk7BbZcrh&#xa;K2ClpmVEkkjvBEnkNQvbvXzUz7nRaFuVRYmZRa7eqJy9iMX+IHsgOIunaXba&#xa;TsyXWlBC6uo/UxFu2O5vRiovXCocpP26VjrQl1teh7lXW6ONH1FVuWOOPzRH&#xa;bFzgD2IHmV67SHXnstderBZKy4x10c0ErI3YdSYYuXOwi9Dnf6Puo7rLZ0tM&#xa;torJ6JZpX/CauzGjkRvqAe3mHcLlRWihkrLhVRUlNFjfLK5Gtb4dVMw8b7c6&#xa;+a8V+n9C0UjWy3apa+b2MRcJ/qB6xbbjQ3agjrLdVRVVLL8SWJyOavhyVDMP&#xa;G+wqums9dqHQ1a9qzWipc6H2sVcL/rg6TXfapSaE1FbrbV2yeqZWR7+JC9Ms&#xa;5qmNniB6ADyFe3Oe2Ximh1Lo25WGgqlxHVTqv+rdqHT9ofaTS6Ao7bUy0Dq6&#xa;GvkVmY5UbsRERc9FyB24PHa/t1qrY6KrrNDXWmskq4bWy+plPNGK09Xtlwpr&#xa;tbKe4UUrZqapjbLE9P1mqmUAywAAAAAAAAAAAAHOa/8Ak/vP1df5HzUw+ldf&#xa;/J/efq6/yPmpgFxCsoQrAkkhpIAhSSFApUoUrUoUDtex75QIfq8p9AHz/wBj&#xa;3ygQ/V5T6AAAACDS6ro++aYrYtm/9Hnb54VF/kbohURW4Uyy17qTEI1E8S8X&#xa;ttKy1MnqZ6VkdM3EiIrPFPFD1mz3KmutrgrKV26KRiKns9n2HJastbae2VLJ&#xa;HbYntwx/l5IeX2/V900h6lPuRzl5RPTLHnzX0S2T9xkx5o1L369DTN0kTjnX&#xa;b/h9FqiNb7EPH+0XUbqrUbKS31jmJSs2ycN+PXznH+RqKftfvN0k7jUtipeK&#xa;u1JIDQXS2Sd8hZRNfJUVMmI40blVd7D67qfpt8mLUxD4L6n1t8VowY4/98PQ&#xa;+yepqq25Vz6vc98EaJvXxVy5/keqHM6G04/TmnmQVD+LWS/pJne1fBPYnQ6Z&#xa;F8Dkw4Yw07Yer0sXjFEZJ5WK/wD4dUf4Tv4HzToXTa6o7AdTUcbM1FLW97p/&#xa;77Im4PpqeFJqWWHpxGK33ZTBx3Zn2eejyzVdB8JfCPeJuNv4PCxyRMY3L5G7&#xa;qeSVGpndrP8AUTSiP3/8+6e9mWfwa9TfWpf/ANXFzajcNZTIxqeSJTxnYaF7&#xa;JqHRGq7reoKvj98y2GLg7e7sV25WouVyX6Xs3Wm7W6nXHwru47dndOAnL9Gj&#xa;Pj7vZ5AcJaHs09/SqukdY7hsukSpTu8Hq5rHY/kes6zudPZ9E3itqXNZFFSS&#xa;dfFVaqNT7V5Gq192aWnXlNC6pfJR19N/Y1cHx2ez2ocd6DbtdXxQ6m15cbvQ&#xa;QrlKfa5uftc9wGF2LXSk0T2OVt+u7nR0ctcr/UYrlxhkafwN5cOynQvaJbob&#xa;9bI5Le6tZxY6ik/R7va5mMfwPQHabtL9Mrp9aKP4LWHgd3/V2eR5pH2KXqzO&#xa;fBpbXtytNveue7q1X7PcqOQDC7LL7fLJ2lXLQF2uLrrT0kavp539W4wuCz2P&#xa;fLbrz6xP/wCup3GgOy6g0RPU3B9ZPc7tV/29XP1X3IRo7s2/qrrW/ah+FO9L&#xa;eHvfwODsSLc/f13Ln/IDyS0acu2pu3LV9LaNR1NgmjlmkfPA1VV7eKibeTkO&#xa;7g7CnXC4wVOq9X3HUUcHxIJmq1v+r3HRaY7OP6u9od71T8Kd5+Ft/wDs/A28&#xa;Lc9H/G3Lnp5Id0BbjjZDEkcbUYxqYRE5IiIeE/0gqZ1ZrHRtKyd1Os0jo0kZ&#xa;1Zl8aZQ96OE112b/ANc9Q2O6JdO5raZOIkfd9/E9ZHYzuTHQDyHtS0Dd9I2+&#xa;3V9w1HddRWhalG1UM8rk2J4frKdn2tMt8X9H+mTTrGx2l76fhpH80p6jqOw0&#xa;mp9O1lnrU/QVcaxqqdWr4KntRTmtJ9mzLHoap0pdrkl6t025ERafg7Wr1b8Z&#xa;QOJ01QdqNboG3U1rn0y6zz0TY4mPjfnhq3GFMiy9nTbD2OXTTGsb1QUEFbV8&#xa;SGqSZEZGuGK3m/b4s6F6m7FNQWqF9BZO0O4W+1OVVSnbEq7M+So9DrouzGyJ&#xa;2ef1PmdPUUS5XiSPzIj+u5FA89l9InZ/pLZNFZdVaYpYUTyXg4/1/gXu0K82&#xa;u/8A9HNlys9Cy30s00e2nYxGJG5H4cmG8vMz/QzqR9r+BJe0OsfY8JH3bu/P&#xa;hp0Znd0Onv3ZjRXLs0j0Zbqr4OpYlYrZeFxVTDty8spzUDyntSx6IezhH/7p&#xa;wYuL7uEzB632opD6IL6kW3g9z9THTHLBXcOzu33js3otI3Gd0kVHTxRR1DWo&#xa;jmuY3aj0TocazsOvFTZ1tF015XVdtjjVlPTJErWsVPiKqK9c48gOSuCyp/RF&#xa;tfC6LVqkn93jyf8A+HQ6aoO1Gt0Dbqa1z6ZdZ56JscTHxvzw1bjCnf6c7PqO&#xa;09mzNHXGVtypNj45HcLh70c5XdMrjGTjqbsU1BaoX0Fk7Q7hb7U5VVKdsSrs&#xa;z5Kj0A527aOumiP6OV+tt1mgkc+sjmiWBVc1Gq+NP5Ho2mWJ/wDD/SN8Fsi/&#xa;+kpFd2W00nZa/RVFcp4IXua/vMzeM/KPR68sp5G/tmmfg/QEOmu9cThUXc+P&#xa;sx+rt3bf5AeX9jfyAai/v1f/AKLTdf0c/kuf9el/g06LQXZ7HozRlVp6av8A&#xa;hGGqlkkc/hcLk9qNVuMr5Gm0D2V3LQt9dJT6nnnsq7lSgczCblTCKvuA9NPm&#xa;Kl1jca/tpuWr7dpm4akpqTdTUyUzHYjTG1Fy1jj6MvlvnudiraClq+5S1ELo&#xa;mz7N3DymMomU6Gi7ONCQdn+m3WuOq75JJK6WSfh7N6r7Mr0A8Qn1lcLf2023&#xa;V9w0zX6cp6vbS1LKpjkSRMbVciuY3odf2pfL3oP/ABIv/WO/7RdBw9oGm2Wu&#xa;Sq7nJFK2WOfhcTYqezKHkvabp98vaJoLT9fXyzvdTxUslXGnCev6TbuTrhwH&#xa;bf0hkpvRa9ZscRKqLg/388jhO1bi+i3s47x/acGPf90w7B/YhcLvdqaTU2tK&#xa;6926lfvjpZY9ufeu5TWf0kYY/grTUCJhneXtRE9zQO87XO7eii/d527O7+r/&#xa;AHspt/1wYvYfxfQ/ZeL/APV2/wB3ivwc3X9iF2ufCt9drq5VNjhVFbSyNy7C&#xa;eGT1i2W6ltFsprfRxNhpqWNsUTE/VaiYQDLAAAAAAAAAAAAAc5r/AOT+8/V1&#xa;/kfNTD6V1/8AJ/efq6/yPmpgFxCsoQrAlpJDSQBCkkKBSpQpWpQoHa9j3ygQ&#xa;/V5T6APn/se+UCH6vKfQAAAAAABi1lJBW0zoKiNskbuqL0PP9SdkdNd3xyUd&#xa;c6kWLOGububzPSMeA8DP9OnfF9cw1x5slImtZ4eOUXYZNFcI6mpvLOHG9HbI&#xa;4OuD0mz6Wt1nckkMW+ZExxZObseSeRu0B1Wz5LxqZctsVLX75jlIAMWoAAAA&#xa;AAAAAAAAAAAAAAAAAAAAAAAAAAAAAAAAAAAAaC66Msd6v9Bea+j41wtyotNL&#xa;vcnDwu5OSLhefsN+ABodSaMsWro6Zl6o+9JSv4kScVzML/5VQ3wAAAAAAAAA&#xa;AAAAAAAA5zX/AMn95+rr/I+amH0rr/5P7z9XX+R81MAuIVlCFYEtJIaSAIUk&#xa;hQKVKFK1KFA7Xse+UCH6vKfQB8/9j3ygQ/V5T6AAAAAAcnqbXtNpm+UdoW0X&#xa;W51dZE+WOOhhbIuG9erkA6wHI2HtCtV5uyWialuFnujm746S5U/BfI1PFvVF&#xa;T3HXAAAAAAAAAAAAAAAAAADXWa82/UFqiuVrqW1NJLnZIzouFwv8ANiDX3m8&#xa;2/T9qluVzqG0tHDjfI7omVRE6GeioqZQCQAABqrLefhhtbm3VtD3WpfT/wC1&#xa;RbOJt/XZ5tXwU2oAAAAa+gvVvudXW0tHVNlmoJOFOxP+W7yU2AAHN671V/Ur&#xa;R9Vfe599SmVicHfszucjeuF8/IXfVS2vWun9Pd04nwyk68XfjhcJm/pjnkDp&#xa;ADVUN/t90tc9fbZ21cECvarmZT1mdW80A2oNFozUf9bNIUF9Sl7olYxXcHfv&#xa;24creuE8vIyLzeVtDqFEt1ZW97qWU/8As0W9Is/rv8mp5gbUAAAAAAAAAAAA&#xa;AAAAAAAAAAAAAAc5r/5P7z9XX+R81MPpXX/yf3n6uv8AI+amAXEKyhCsCWkk&#xa;NJAEKSQoFKlClalCgdr2PfKBD9XlPoA+f+x75QIfq8p9AAAAAPOr7/8AuB0r&#xa;/wDbao9FPOtY23UcPaTY9R2WwuvEVDSTQSRpVRwc39PjqBR20sbTaVt12i9S&#xa;st9yp5KeTxRVdjBe1JW3XUHaLDpC2XKe1UkFF36uqKfDZXIrtjGMd4eZYnsW&#xa;qNc3m3P1HboLFZbdM2q7iypSeSokb8Xc5uGo1PIzNSWW+WzXVPq7T9Ey5PWk&#xa;7lWUKypEsjEdua5rncsp5AYtBUXXR3aPbdO1d3q7xar1DKtK+scj54JY03OR&#xa;XoiZarTf9okd1doO5yWSqlpa+mi48T4+Srs9ZW/aiGltVmvuo9eUWpb9a0s9&#xa;NaoZI6Kj47ZXq9/J73K3knLoh6CqIqYUDzS+6trNQWjRNLZKqSjqNRzslkkh&#xa;dh0cDG75sfwLk8l21v2gXe0QXestFmsSRRyOoX8Oaome3d8fnhqIabss0w+j&#xa;1/qBXT8a3WGSSgtzfm0kfxHp705Ib2steodK66ul+sdp+GaC8sjWppmztiki&#xa;lYm1HN3clRUAtWG6XexarvekbjcpbkkVu+EaCpmxxeH8RWuVOqo4zNE3e4Vv&#xa;YlT3Sqq5Zq5aGaRZ3/GVyK/C/wCiFOm9N3a46puuqdRUrLdUVdIlBTUbJElW&#xa;CHqu5yclcq+RobJSa6sOhn6Mi0rFUvhilpori6tY2F7XbsOVnxvHoB2fZnX1&#xa;d07NrLXV076iqnp98kj+rlypraa+VFn7VL9b7lWSPt0ttjudKj/iwtZlkqN/&#xa;0U2vZ3aq2xdn1ntlwg4FZTQ7JWbkdhcr4pyOe7VtGXXUslpmsa7J2uko6pyK&#xa;1MUszdsnX3AazQWubtDbtQ1GpHvc7uvw7Ro/9Wlei4ansarcGbTu1Azsjs9R&#xa;XanZa56hGT19fVuw9kT8u2x8sI/CoiDtL0JcL3JZm2JjYokZ8G12HI3FE5zH&#xa;LjPlsNn2jacudygsVZZqKKvdZqxtQtvkcjGztRMYRXckVPADlbLqeCg7RrDb&#xa;rFrCu1DbrpxY6iGucsqxq1m5rmP2J/kbGhpr3qrX+r7fJqW42612+ohSOOke&#xa;jJcujzyeqLtaTUUmtNR680teavTcdtt1rmlc+N1WySREezbuXH8EOg0lYrjb&#xa;dcawuFXAkdPcp4JKZ+5F3NaxWr06AaTRzbpeqPU2mbjf7ir7RX8GKvhlSOoW&#xa;NUyiK7CoW+wO1ug7NqG4LX1kjalJUSmkkzFDiZ/xG+BvdGWC42vU+r6qsp+F&#xa;Bcq1stO/ei72I3GcJ0MPsmtt903p1NNXe0d3it6v4VY2Zr21COeruTU5p1A1&#xa;/b3bHT9mtdcEr6yNKbhItPG/EU2ZWJ67TO1VWXPSOl7VZrRdKuqud3rGUUNb&#xa;XObK+Hf1evJEXangbXtP09Wap7ObpaLdtWrmaxYkXkiq17XY/wBDWX60X3WW&#xa;krdWpbvgW/WqtZW01PUTJI1zo/BzmctrgNXqelvPZtbItS02prrdaWnlibX0&#xa;1e9JWvjc5GqrMImxUPVEVFTKHmF+otWdoVNT2K46aSw2t0rJK6aSrZMr2NXO&#xa;xiN8/M9QA8joNRXd/Zv2h1zrhP3q3XOtipZc84mMRuxG+4x7xQamoOzJusv6&#xa;5XP4Tho4qvgIrUpXZRq7Vjx7TYUOkL3F2e6+tr6JG1d3uNbUUbN7V3skRqMX&#xa;PROhu9Qafudb2LPsNNT77kttipki3tT10a1FTcvLwA1naBqO4w2TTdRHW1Fo&#xa;tVwcjrlXUrFV1OxWI5uFwu1FXlku6TpaypuVS20a1dfdOz06xq+SqSWrppvB&#xa;zXI3p7zY3CDV1ps9hkskMFalFA2Gutj3NYs6bETLJF6K1fsU1OnNO3Ss7S01&#xa;PNpxmmqWOkdTvhbLG91U5V6vRnLkBruzCwPg17q2T4aucyUVfw9kk7XNnyzG&#xa;ZERqZchN7qoW3u4s1D2kT2uqR691o7XLhtPH+rxGo1Vc43WmrZfNPdo9/wB9&#xa;nWe1XqpSpZXNnZiLDfiqz4xqtOUWtNFrdLVR6Ygua1dZJUxXVatjGvR6/wDM&#xa;b8fKAaLUeoK3VH9FuouVxc2SrdIyNzkTCPVtU1qL/odhq7Hpu7Pv7tw/9A5t&#xa;+htTL/R7qtLLbWrd3VO9IkmZh6cdJM7s4Ox1HY7hWdqOj7xT0++htjatKmTc&#xa;ibN8W1vIDqbpb1ulsmo21lXQ8VMcelejJGf3VVFx/keW9j9mfBo67Vy3SukZ&#xa;3irh7u96LFyX4+3bncewHm+grTf9PwXnT1dZsUr56ipp69s7FZNvVNrdnVqg&#xa;crojTN5rOxqkukeq7nb3wUsslJBRORkMaNV64e3GX5U29bq671eiezq5sq1g&#xa;qLpdqSGr4fJJGOVWvT3cjotGWC52rscgsVXT8O4R0k0Sxb2r6yq/CZTKeKHO&#xa;N0bfm6F7PrZ3JverPdKeprWcRv6KNrnKq+37AMjXV7nh1/S2y8X6u05p19Lv&#xa;jqqReFx51djY6XC7cJ4HS6Diu0NNWNqr9Bf7UsiLb6xsqSSqzxbIrURqqnsL&#xa;N/n1dbtQSS0tpi1HYqmFGdzR0cMlO9Oq5d8drvLwMXs50zcbTdb/AHast0Vl&#xa;gussbobXE9rkgRjdquXb6uXewDvwAAAAAAAAAAAAAAAAAAAAAAAc5r/5P7z9&#xa;XX+R81MPpXX/AMn95+rr/I+amAXEKyhCsCWkkNJAEKSQoFKlClalCgdr2PfK&#xa;BD9XlPoA+f8Ase+UCH6vKfQAAAAADRah1dZtLpA251Dmy1C7YYIonSySKn7L&#xa;Goqgb0Gi05q+zaobOlrqXPkpVRs8EkTopIlXojmORFQ0T+2HRrKVJ23CaaNM&#xa;8RYqaR/CRFxl+G+qB3Rrb3a3Xm0TUDa+rtyy4/2ikejJWYVF9VVRcf5GLW6w&#xa;sdBpqO/zV8fwXLt2VDfWau5cJ0NVR9qOlK67wW6KvkbJUv4dPJJA9kczvJj1&#xa;REUDdab05Q6WszLdQI/hI5XvfI7c+R683Ocviqm3PP7pUSt7e7FAkr0ifap1&#xa;Vn6qqjjc6Xq6eovOoo4b3U3J0NZskglbhtIuP7NnmgHTg4l3a1pBtRw/hF6w&#xa;JJwVq0p392R/lxcbf9Td3/Vln0zSRT3Os4aTrthZG1ZHyr5Na1FVQN2DmbRr&#xa;yw3qGt7pPMktBHxKinkhfHNG1EznYqIv+Rz2ie06PUuqrvapkc1rKnbQ7aSR&#xa;n6NG7l4iuTCL/kB6ODmNHV1LUxXt8N8qbo2C4zRyuqG7e6uTGYm8k9Vpgs7W&#xa;tHuqEZ8JSJAsnCSrWnelNu8uLjb/AKgdqDR37V1k0vJSMu9ayk75v4SuTkux&#xa;u53T2GHYe0HT2orotsoaqVtYjOIkE9O+Fzm+aI5E5AdQDz6s0tqu93O5VVfq&#xa;mrstLHI5KCGge1G8NOjpMt5+42XZhqCv1N2e0FzuTmvqnq+N8jEwkmx6t3In&#xa;twB14AAAAAAAAAAAAAAAAAAAAAAAAAAAAAAAAAAAAAAAAAAAAAAAOc1/8n95&#xa;+rr/ACPmph9K6/8Ak/vP1df5HzUwC4hWUIVgS0khpIAhSSFApUoUrUoUDtex&#xa;75QIfq8p9AHz/wBj3ygQ/V5T6AAAAAef6iulVJ2mUlmsNuty3ttvdUvr61qq&#xa;kMCv27Wo3CqqqegHM6k0LZ9T1tPXVS1VLXUyK2Kqo5lhla1eqbk8AOR0nHcY&#xa;e3a8RXSqo6qr+B4le6lhWJvx0xlFcpm9iEcPoxj9Vibqqo3/AHi9Tfaf7PbD&#xa;pq8uuttinZVyQd3le+ZzuKiu3bnZ6uz4nB9nPZpR3XQjX3L4Wtk9RLMyphgq&#xa;pIEnbvXG9gHOPSP/AOHm5si525L6qU3+Bx24/meidtsdJ6Jq9XoiSRuhWl2d&#xa;Uk4jUbtLXajp6Gl7I/gaz293d4ZqdkdPAzd6qSJ0Q2tN2XafguVLWPdcKplE&#xa;5H0tJUVb5aeBydFYx3JANVXb/T1prif2nwNNu9+TRUrqhtp7XlpM8dKibZj/&#xa;AAlPT5tOUFRqqm1C9r+/UtO6mjXd6uxy5XkLTpu32asudVSsdxLpNx6jc7KK&#xa;7GOQGk07TWOTsct8NQ2FLM+1M43gzYsab/5mjuVwpIb3pSzaUt9BVVr6F0tD&#xa;XVrnObT0yNxlv6zlVDaL2R6a3LGnwg23q/iLbUq3pSZ/w+httQ6Gs2pW0i1U&#xa;c1PPQ/7tUUkqwyQ+xqp0A421xXWH+kDA28VlBVVS2J3rUkKxYbxuSKjnKbPs&#xa;4/77a/8A/ujf+g29k7OLDYb3HeKSOodcGxuidPLO6R0qL1V+eql+LRFqptYy&#xa;akp31VPWTf20cc6thmXbtRXM6KuAPLolqm9kHagtJ8f4cren7P6Pd/pk9Euc&#xa;Nm9Dc8e2L4IS0KrP2dnC9XBuLNpe22OnuUFJE5Y7lUyVdQ2Rd2570RHfZy6H&#xa;Pp2RaYRUiX4Qdbmu3pbVrX90Rf8ADzgDjKOOWpZ2OpcWb34lVd/shTZ/pg6j&#xa;WPq9tPZ85PHvyf8A9KHXV+m7fcbrarhOxyTWlzn0212Gorm7V5e4V+nLfctQ&#xa;Wq9VDXrV2rid3VHYRN7drsp7gNNr2yXjUkFutFDJwbZUz/8AacjJNr+AifFb&#xa;7zpqCgpbXQQUNFAynpadiRxxsTCNROiIYlzsFHdbjba6d0yS22RZYUjkVrcq&#xa;mPWROqG1AAAAAAAAAAAAAAAAAAAAAAAAAAAAAAAAAAAAAAAAAAAAAAAAA5zX&#xa;/wAn95+rr/I+amH0rr/5P7z9XX+R81MAuIVlCFYEtJIaSAIUkhQKVKFK1KFA&#xa;7Xse+UCH6vKfQB8/9j3ygQ/V5T6AAAAAAAAAAAAAAAAAAAAAAAAAAAAAAAAA&#xa;AAAAAAAAAAAAAAAAAAAAAAAAAAAAAAAAAAAAAAAAAAADnNf/ACf3n6uv8j5q&#xa;YfSuv/k/vP1df5HzUwC4hWUIVgS0khpIAhSSFApUoUrUoUDtex75QIfq8p9A&#xa;Hz/2PfKBD9XlPoAAAAAAAAAAAAAAAAAAAAAAAAAAAAAAAAAAAAAAAAAAAAAA&#xa;AAAAAAAAAAAAAAAAAAAAAAAAAAAAAAOc1/8AJ/efq6/yPmph9K6/+T+8/V1/&#xa;kfNTALiFZQhWBLSSGkgCFJIUClShStShQO17HvlAh+ryn0AfP/Y98oEP1eU+&#xa;gAAAAAAAAAAAAAAAAAAAAAAAAAAAAAAAAAAAAAAAAAAAAAAAAAAAAAAAAAAA&#xa;AAAAAAAAAAAAAAAAA5zX/wAn95+rr/I+amH0rr/5P7z9XX+R81MAuIVlCFYE&#xa;tJIaSAIUkhQKVKFK1KFA7Xse+UCH6vKfQB8/9j3ygQ/V5T6AAAAAAAAAAAAA&#xa;AAAAAAAAAAAAAAAAAAAAAAAAAAAIyhIAAAACMoBIBGUAkDIAAAAAAAGQAAyR&#xa;yAkDIygADIAAAAAAAAA5zX/yf3n6uv8AI+amH0rr/wCT+8/V1/kfNTALiFZQ&#xa;hWBLSSGkgCFJIUClShStShQO17HvlAh+ryn0AfP/AGPfKBD9XlPoAAAAAAAA&#xa;AAAAAAAAAAAAAAAAAAAAAAAAAAAAKU6HP61vr9N6Vq7hE1rpmIjYkXpuVcId&#xa;B0OY7QrNUXzRlZSUjd86bZI2p+sqLnBNfMMM3dGO3b500TtI6ijsqXGm1Hc5&#xa;L1sa/hPmTu7nfs7FTGDd3+/VNm0BJcaqJKe4LAjUjT1sSqmERMe00zu1Ch+A&#xa;mx0kMsl72JG2gWF+5JOmF5dDA1K67alv9jsLeBBWU0SXGqXar42PTk1Me801&#xa;7uGb1rSf053Om37OrjcmvuFivVQ+e4UDmO3yO3K5j25Tmc+zV9zs/aVdFrJ5&#xa;ZrNHO2CTevqU+74ioX6mC9aW1tar3d6ymqI65e4Svhi2I1F5syZNhtsF41fr&#xa;e31jN0E74WPT7Fxgnjyx7skxWkcTE/64bN1wqvS+yjSql7p8G8TgbvU3bsZx&#xa;7jV2OC4a+lrrpNerhbqGOd0NLDRy8Lk39Z3I1Wj4LlR9qaW24u3y0FA6ma/5&#xa;yJFyxTP0rfqHQLK6xX5z6RI53y08ixOVssa+W1FExrwml5tMTk4jcrt5l1PZ&#xa;uzm+R3GoektJKxtLXI9EfLGsjUyu1ctXBdtFjo62GlkXXN3WokaxViS5Ndly&#xa;oiq3GDG1LfLjfuzC+1lVRJS0iyxpSbstc+NJW+s5F6FFkvvZxRx0UmymjrWN&#xa;jw9tK/cj0T+6PRO4/UiN8a9f7byy11W/tYv9E6pldSxQROjhVfVaqtZlUQ7d&#xa;OnQ8sTUds032u6gmutTwGSwwsZ6jnZXYz9lFO9sOpbXqOnlmtdTx44nbXLsc&#xa;3C/+ZEKTDs6bJXmu+dzw3AAKO0HgB4AefWy5Vq6v1jC+rndHSxsWFirlI8sV&#xa;fVQ1fZhq2vmRltvU0si1bHTUc8rsrIiLhzcr5YMu0/8AffXP+FH/ANCmBYNO&#xa;yX3shtslI5GXGhfJNSyJ+q9JHLj+RtqNPE3k7omvpvj+2XaL7d4tP6wqIpZa&#xa;qeirJW0ySZdtangiL4IY1ooa+72KG52XWNZVXnY2R0E1Qiw58WrH4FGgbrdI&#xa;9LajuNJQNqK5a10vd+mVXqhgaguOlLnbm1VmhlpdT5ascVLE9kqSZTKKiJga&#xa;51CItPbF5n08eP8ADptX2SuistbfUvd1o6qOmR60tPUKkLHI1EVEREMvRFiq&#xa;O4268z3261TpqZsjoJ6jiR5c3y9hlap7z6Lq3vX+89xTi/3tqbi1RXdtg7JK&#xa;O5P/AORbo1b7V2Ijf5FfTTq1FcvdPiI25q76puUOuZLpBUPSxWyqjoKiNHKj&#xa;XK7O92Oi7Tf9pdwq6Cy26Sjqpadz6+KN7o37FVqo7KZTwOatWidTVWiHUiXG&#xa;hZT3FneJIpIVV+52HJl32GFe738I9l1imqF2yUVyjgqPY6Nri+o3GnNGS9a2&#xa;i3G429nz6qr7DjOzWuq66hu76uqlqXR3CWNnEdnaxEbhEMy29ommrpXRUNJc&#xa;eLUS+qxnCemf80Q4/Q+srHpyG701zrOBK+4SyIiRPd6q4RObUUpFZ1Madd81&#xa;e+kxPHL1oGBaLpSXq3RV9FLxKeXOx+FTOFx0X3GeZu+JiY3CQAEuc1/8n95+&#xa;rr/I+amH0rr/AOT+8/V1/kfNTALiFZQhWBLSSGkgCFJIUClShStShQO17Hvl&#xa;Ah+ryn0AfP8A2PfKBD9XlPoAAAAAAAAAAAAAAAAAAAAAAAAAAAAAAAAAAAAA&#xa;AAp2NznCE7fYSArpGE8icIAFkbfYUqxruqFYCukbfYRtTyKgDSnan7JKIidA&#xa;AnSQAEgAAjCeROAAI2oU7G5zhCvAwFdQEYQkBYIwn7JIBpTtTyG1PJCrAwFd&#xa;QAALAAA5zX/yf3n6uv8AI+amH0rr/wCT+8/V1/kfNTALiFZQhWBLSSGkgCFJ&#xa;IApUoUrUoUDtex75QIfq8p9AHz/2PfKBD9XlPoAAAAAAAAAAAAAAAAAAAAAA&#xa;AAAAAAAAAAAAAAAAAAAAAAAAAAAAAAAAAAAAAAAAAAAAAAAAAAAAAAOc1/8A&#xa;J/efq6/yPmph9KdoHyf3n6uv8j5rYBcQrKEKwJaSQSAIJIApUpUqUpUCuir6&#xa;u11sdZRTOgni+K9ngdF6VdZ/TP4eL8hyyoUqgHVelbWn0z+Fi/IR6Vta/TP4&#xa;WL8hymwjaB1npW1r9M/hYvyD0ra1+mfwsX5Dk9o2gdZ6Vta/TP4WL8g9K2tf&#xa;pn8LF+Q5PaNoHWelbWv0z+Fi/IPStrX6Z/CxfkOT2jaB1npW1r9M/hYvyD0r&#xa;a1+mfwsX5Dk9o2gdZ6Vta/TP4WL8g9K2tfpn8LF+Q5PaNoHWelbWv0z+Fi/I&#xa;PStrX6Z/CxfkOT2jaB1npW1r9M/hYvyD0ra1+mfwsX5Dk9o2gdZ6Vta/TP4W&#xa;L8g9K2tfpn8LF+Q5PaNoHWelbWv0z+Fi/IPStrX6Z/CxfkOT2jaB1npW1r9M&#xa;/hYvyD0ra1+mfwsX5Dk9o2gdZ6Vta/TP4WL8g9K2tfpn8LF+Q5PaNoHWelbW&#xa;v0z+Fi/IPStrX6Z/CxfkOT2jaB1npW1r9M/hYvyD0ra1+mfwsX5Dk9o2gdZ6&#xa;Vta/TP4WL8g9K2tfpn8LF+Q5PaNoHWelbWv0z+Fi/IPStrX6Z/CxfkOT2jaB&#xa;1npW1r9M/hYvyD0ra1+mfwsX5Dk9o2gdZ6Vta/TP4WL8g9K2tfpn8LF+Q5Pa&#xa;NoHWelbWv0z+Fi/IPStrX6Z/CxfkOT2jaB1npW1r9M/hYvyD0ra1+mfwsX5D&#xa;k9o2gdZ6Vta/TP4WL8g9K2tfpn8LF+Q5PaNoHWelbWv0z+Fi/IPStrX6Z/Cx&#xa;fkOT2jaB1npW1r9M/hYvyD0ra1+mfwsX5Dk9o2gdZ6Vta/TP4WL8g9K2tfpn&#xa;8LF+Q5PaNoHWelbWv0z+Fi/IPStrX6Z/CxfkOT2jaB1npW1r9M/hYvyD0ra1&#xa;+mfwsX5Dk9o2gdZ6Vta/TP4WL8g9K2tfpn8LF+Q5PaNoHWelbWv0z+Fi/IT6&#xa;VtafTP4WL8hyW0nAHQXXXepL7Quo7jcnTQLhVYkTGZx57UQ0bClEK2gVoVlL&#xa;SoCSSCQBBIApKVKgBbVCnBcwRgC3gYLmBgC3gYLmBgC3gYLmBgC3gYLmBgC3&#xa;gYLmBgC3gYLmBgC3gYLmBgC3gYLmBgC3gYLmBgC3gYLmBgC3gYLmBgC3gYLm&#xa;BgC3gYLmBgC3gYLmBgC3gYLmBgC3gYLmBgC3gYLmBgC3gYLmBgC3gYLmBgC3&#xa;gYLmBgC3gYLmBgC3gYLmBgC3gYLmBgC3gYLmBgC3gYLmBgC3gYLmBgC3gYLm&#xa;BgC3gYLmBgCjBU1CcFWACEgASSAAAAEEFQApBIAgEgCASAIBIAgEgCASAIBI&#xa;AgEgCASAIBIAgEgCASAIBIAgEgCASAIBIAgEgCASAIBIAgEgCASAIBIAgEgC&#xa;ASAIBIAgEgCASAIBIAgEgCASAIJJAAAAAAAAAAAAAAAAAAAAAAAAAAAAAAAA&#xa;AAAAAAAAAAAAAAAAAAAAAAAAAAAAAAAAAAAAAAAAAAAAAAAAAAAAAAAAAAAA&#xa;AAAAAAAAAAAAAAAAAAAAAAAAAAAAAAAAAAAAAAAAAAAAAAAAAAAAAAAAAAAA&#xa;AAAAAAAAAAAAAAAAAAAAAAAAAAAAAAAAAAAAAAAAAAAAAAAAAAAAAAAAAAAA&#xa;AAAAAAAAAAAAAAAAAAAAAAAAAAAAAAAAAAAAAAAAAAAAAAAAAAAAAAAAAAAA&#xa;AAAAAAAAAAAAAAAAAAAAAAAAAAAAAAAAAAAAAAAAAAAAAAAAAAAAAAAAAAAA&#xa;AAAAAAAAAAAAAAAAAAAAAAAAAAAAAAAAAAAAAAAAAAAAAAAAAAAAAAAAAAAA&#xa;AAAAAAAAAAAAAAAAAAAAAAAAAAAAAAAAAAAAAAAAAAAAAAAAAAAAAAAAAAAA&#xa;AAAAAAAAAAAAAAAAAAAAAAAAAAAAAAAAAAAAAAAAAAAAAAAAAAAAAAAAAAAA&#xa;AAAAAAAAAAAAAAAAAAAAAAAAAAAAAAAAAAAAAAAAAAAAAAAAAAAAAAAAAAAA&#xa;AAAAAAAAAAAAAAAAAAAAAAAAAAAAAAAAAAAAAAAAAAAAAAAAAAAAAAAAAAAA&#xa;AAAAAAAAAAAAAAAAAAAAAAAAAAAAAAAAAAAAAAAAAAAAAAAAAAAAAAAAAAAA&#xa;AAAAAAAAAAAAAAAAAAAAAAAAAAAAAAAAAAAAAAAAAAAAAAAAAAAAAAAAAAAA&#xa;AAAAAAAAAAAAAAAAAAAAAAAAAAAAAAAAAAAAAAAAAAAAAAAAAAAAAAAAAAAA&#xa;AAAAAAAAAAAAAAAAAAAAAAAAAAAAAAAAAAAAAAAAAAAAAAAAAAAAAAAAAAAA&#xa;AAAAAAAAAAAAAAAAAAAAAAAAAAAAAAAAAAAAAAAAAAAAAAAAAAAAAAAAAAAA&#xa;AAAAAAAAAAAAAAAAAAAAAAAAAAAAAAAAAAAAAAAAAAAAAAAAAAAAAAAAAAAA&#xa;AAAAAAAAAAAAAAAAAAAAAAAAAAAAAAAAAAAAAAAAAAAAAAAAAAAAAAAAAAAA&#xa;AAAAAAAAAAAAAAAAAAAAAAAAAAAAAAAAAAAAAAAAAAAAAAAAAAAAAAAAAAAA&#xa;AAAAAAAAAAAAAAAAAAAAAAAAAAAAAAAAAAAAAAAAAAAAAAAAAAAAAAAAAAAA&#xa;AAAAAAAAAAAAAAAAAAAAAAAAAAAAAAAAAAAAAAAAAAAAAAAAAAAAAAAAAAAA&#xa;AAAAAAAAAAAAAAAAAAAAAAAAAAAAAAAAAAAAAAAAAAAAAAAAAAAAAAAAAAAA&#xa;AAAAAAAAAAAAAAAAAAAAAAAAAAAAAAAAAAAAAAAAAAAAAAAAAAAAAAAAAAAA&#xa;AAAAAAAAAAAAAAAAAAAAAAAAAAAAAAAAAAAAAAAAAAAAAAAAAAAAAAAAAAAA&#xa;AAAAAAAAAAAAAAAAAAAAAAAAAAAAAAAAAAAAAAAAAAAAAAAAAAAAAAAAAAAA&#xa;AAAAAAAAAAAAAAAAAAAAAAAAAAAAAAAAAAAAAAAAAAAAAAAAAAAAAAAAAAAA&#xa;AAAAAAAAAAAAAAAAAAAAAAAAAAAAAAAAAAAAAAAAAAAAAAAAAAAAAAAAAAAA&#xa;AAAAAAAAAAAAAAAAAAAAAAAAAAAAAAAAAAAAAAAAAAAAAAAAAAAAAAAAAAAA&#xa;AAAAAAAAAAAAAAAAAAAAAAAAAAAAAAAAAAAAAAAAAAAAAAAAAAAAAAAAAAAA&#xa;AAAAAAAAAAAAAAAAAAAAAAAAAAAAAAAAAAAAAAAAAAAAAAAAAAAAAAAAAAAA&#xa;AAAAAAAAAAAAAAAAAAAAAAAAAAAAAAAAAAAAAAAAAAAAAAAAAAAAAAAAAAAA&#xa;AAAAAAAAAAAAAAAAAAAAAAAAAAAAAAAAAAAAAAAAAAAAAAAAAAAAAAAAAAAA&#xa;AAAAAAAAAAAAAAAAAAAAAAAAAAAAAAAAAAAAAAAAAAAAAAAAAAAAAAAAAAAA&#xa;AAAAAAAAAAAAAAAAAAAAAAAAAAAAAAAAAAAAAAAAAAAAAAAAAAAAAAAAAAAA&#xa;AAAAAAAAAAAAAAAAAAAAAAAAAAAAAAAAAAAAAAAAAAAAAAAAAAAAAAAAAAAA&#xa;AAAAAAAAAAAAAAAAAAAAAAAAAAAAAAAAAAAAAAABegqHU+7DIn5+cYji78Iy&#xa;f+Go/uWgYgMmWtfLFsWCBM+LIkRTGAAAAAAAAAAAAAAAAAAzLdhHzSq1qrFE&#xa;r2Z5pnKIR8LV/wD4p4GIDY09XNWMniqX8REiV7FVvNFRMmuAAAAAAAAAAAAA&#xa;AAAAAuQwS1EiRxM3vMrh0lH/AGrm1M3zbHeonvUDE4b1Zu2+onVdvIoNnS1s&#xa;9Q+dkjsR93fiNnJqYTyNYAAAAAAAAAAAAAAAAAAAAAAAAAAAAAAAAAAAAAAA&#xa;AAAAF6Cqmp93Cc1M9csR38S78J1v7bfumf8AsWoKuel3cCV0eeuC78K1/wD4&#xa;qQCmWvqZ4uHI5qsXyY1P4IYxky3Crmi4ctQ57F6opjAAAAAAAAAAAAAAAAAZ&#xa;lvRVbVMTqtOuE+1FMMrjkfDIkkbtj06KhkfClb8437pv/sBNuRc1LvBKd+V9&#xa;6YMMyJq+pqIuHJL6nkjUai/5GOAAAAAAAAAAAAAAAABfparu6vyziRyJsezd&#xa;hcF7uUdQ3dQP4nnG/k9P/cwiW5RUVOSp0UDMt6Kk06K3CpDJ/AwjLW51LonM&#xa;dse9UVnEVvr4XwyYgAAAAAAAAAAAAAAAAAAAAAAAAAAAAAAAAAAAAAAAAAAA&#xa;AAAAAAAAAAAAAAAAAAAAAAAAAAAAAAAAAAAAAAAAAAAAAAAAAAAAAAAAAAAA&#xa;AAAAAAAAAAAAAAAAAAAAAAAAAAAAAAAAAAAAAAAAAAAAAAAAAAAAAAAAAAAA&#xa;AAAAAAAAAAAAAAAAAAAAAAAAAAAAAAAAAAAAAAAAf//Z&#xa;;" vertex="1" parent="1">
          <mxGeometry x="40" y="140" width="205.85" height="446" as="geometry" />
        </mxCell>
        <mxCell id="Mn12eef7mgjaIkqNjSOi-12" value="" style="shape=image;verticalLabelPosition=bottom;labelBackgroundColor=default;verticalAlign=top;aspect=fixed;imageAspect=0;image=data:image/jpeg,/9j/4AAQSkZJRgABAQAAAQABAAD/2wBDAAcFBQYFBAcGBgYIBwcICxILCwoK&#xa;CxYPEA0SGhYbGhkWGRgcICgiHB4mHhgZIzAkJiorLS4tGyIyNTEsNSgsLSz/&#xa;2wBDAQcICAsJCxULCxUsHRkdLCwsLCwsLCwsLCwsLCwsLCwsLCwsLCwsLCws&#xa;LCwsLCwsLCwsLCwsLCwsLCwsLCwsLCz/wAARCASSAhwDASIAAhEBAxEB/8QA&#xa;HAABAAEFAQEAAAAAAAAAAAAAAAIBAwQFBggH/8QAURAAAQMDAQQFCAYGBwcD&#xa;AwUAAAECAwQFERIGEyExBxQXQVEiN1NVYXGk0hUydIGTwSMzQlKSsQgWJHOR&#xa;oaI0NUNicrKzJTaCGGPCKERUddH/xAAaAQEAAwEBAQAAAAAAAAAAAAAAAQID&#xa;BAUG/8QALxEBAAICAAQFBAEDBQEAAAAAAAECAxEEEiExExVBUmEFIiNRFDJC&#xa;kXGBwdHh8P/aAAwDAQACEQMRAD8A0IAAAAAAAAAAAAAAAAAAAAAAAAAAAAAA&#xa;AAAAAAAAAAAAAAAAAAAAAAAAAAAAAAAAAAAAAAAAAAAAAAAAAAAAAAAAAAAA&#xa;AAAAAAOi2Vt1FU092q62ikrmUlO1Y4GPdGr3q9rU4tMapjoLheIKWGjbYWKq&#xa;Ryb+VzkYq965TKAaYG+2at9nqb+2kucssjHzMhiZT8EkVXacq5eTS9bbDR1m&#xa;2tbQybxKKjWeRWRr5b2R5XS1V71wBzYOnnpLTeNmrhcbfbnWya2vjyzfulZI&#xa;x7tP7XJyHMAADdUOzNTV2moqtL45mJG6nhWJyuqEcuMtPc4b6XXLhjNkvyxP&#xa;x/s8bP8AU5xZZxVrvTSgk+KSCZYZWOjfGqtcx6YVipwVMLyVCJxcdwn8S/Jv&#xa;bs4Lio4nHza0AA4HaAAAAAAAAAAAAAAAAAAAAAAAAAAAAAAAAAAAAAABmWm3&#xa;Put4pbfG9rHzyNjR6tVUTPfhAMMHXSw2awWG2uq7NFdKqpWZXydae1qaJFjR&#xa;GaVRFTgQ2g2bp208l0t7W0tKlNSzLT6lc5jpW8kXnpTxUDlAD6DYLDZ5Ym/R&#xa;tmqNpahGIs00r+rUsSqmdPtVAPnwPqdRYKd1M51bsVE+mb9ae01up8f/AMM8&#xa;T55eaW30lyfHaqx1XSYaqPVmlUymdKp4oBrwdLsps1R3ymqpqqqlj3ckdPGy&#xa;BmpUe/KNc7/kRUNjZ9nLGxk9Nc3RrWQSrDM2aubAxHIqp+jw1yu966UA4kGZ&#xa;dY6KG5zR290q0zeDN85qu9vFvBfYphgAZNDRVNyrI6SigdPPJnDGN48EydJa&#xa;rRSO6ONoa2opW9dpJYmMevOPy0aqAckDbWq00tRbam4VtRLDTwyMhxBEkj1c&#xa;5FVOCqmETSJdnqhu08lkje18kcisWTk1GpxVzvBETioGpB1dNsOtVfrjbW1r&#xa;sUUzKdHpErsuVVRFcmfJYmOKnO11DNbpI4ptKSOjbIrEdlWIvFEd7cAYwOqt&#xa;OyNXV7G1t4ZRz1Mkjmw0scLNS8/LfhO5ETBzE0MtPUPgmidHJHlFje1WuRU7&#xa;lRQIAAAAAAAAAADoNl4rzLTV0djuLaadUaiwJKkckzc/sKuORs9pNzK2wUd8&#xa;r/8A1CNHtrqiPEzo41cmhHK3m5EOMAG22eWKPbO1qx+YWV0WHrw8lJE4qTuF&#xa;fUUO2NbW0M+7mZVyqx7Pa9TTADtdrL5LDY4LArqXrMipU13VYmRsR6p5Mfko&#xa;iKqc1U4oAAp2Nn2nZDs/O+pWJa6gbCyka+V6bxqOXCYTwOOB9Dw/1DB/Hrhz&#xa;RPT9PB4ngM1s05cUx1/6XKieWrqZKidd5JM5XOX2quVLYBxfUeLpxWSLY41E&#xa;Rp2/T+Ftw2PlvPUAB5b0QAAAAAAAAAAAAAAAAAAAAAAAAAAAAAAAAAAAAANl&#xa;s7WU9BtJQ1lS5zYIZmyPw1VXCLnkioa0AdzdLRcdptnrRVWmjnq2ItTrxjVG&#xa;qzOciOwXNp66Gis89kqdSVvUqBNHNrHMbh7VxyccEABurHe4KP8As1ziqa62&#xa;pmRKRk6xsfJ3K7BpQB3d/rIrFOyFth+g7thkkM1DVrpcxeaONbtvb2UM9Ji0&#xa;stivYuEZVJNvmIuGvX3+Pecy+R8i5kdrXCJlXZ4IUc5zsanOXCIiZ8EA2uzd&#xa;/m2eufWWanQyt3NRGxytV7F5oipyXwU6yx7KU07Kqqtl7qZ6euTqyJSxI6SN&#xa;jue/avJp88JxyPjXMbtCqiouHY4KBeuFGtuuU9GssUywyLHrhdlq4Xmimxh2&#xa;ddLsXNtB1rCRVXVtxo5+S1c5NKT3sm53Wt27XirNXDPjgD6bZ7DR2HpW2cho&#xa;95onoVqHa3Z8pY5EUwafzd7Z/bY//KhwXWp94yTfv3jUwxdS5RE7kUik0iRO&#xa;jR7tD8KqauCqniB0mztw6rZZ4KK6RWq4vma9ZpMt1xIn1UciLjCl2q2itENy&#xa;u6R0ElVHXaWLPDLuFVERFfhFauEc7icmAOovN5tq7dVlxpmPkpVc5cI/KTO7&#xa;s8vIVeaFrae52q5U0EtM3NW5+uVdCtdxYmUcv7Sq7K5OcAH1Oz9IlTR7BVUr&#xa;6ejplhVtJQMgRyanafKVdSryPl73vlkdJI7W9+VVV4qqqFlesKRK79GzKozu&#xa;RV5qQAAAAAAAAAAAAAAAAAAAAAAAAAAAAAAAAAAAAAAAAAAAAAAAAAAAAAAA&#xa;AAAAAAAAAAAAAAAAAAAAAAAAAAAAAAAAAAAAAAAAAAAAAAAAAAAAAAAAAAAA&#xa;AAAAAAAAAAAAAAAAAAAAAAAAAAAAAAAAAAAAAAAAAAAAAAAAAAAAAAAAAAAA&#xa;AAAAAAAAAAAAAAAAAAAKqI3KluKVZVyjfI7l8Ss2iJiE69VwAFkAAAAGq2gv&#xa;rLFRsmWLfPkfpazVpA2oMehrI66ggqo/qStRyezPcaKPai41VVUxUVk6ylNI&#xa;savSoROS+1AOlBqbRf2XOeaklp30VXCmVik8PFFKWS/MulBVVMsTaZlPIsaq&#xa;r8phEznkgG3BqbNe5Ly+aSOj3dE1dDJnv4vX2NwbYAAAAAAAAAAAAAAAAAAA&#xa;AAAAAAAAAAAAAAAAAAAAAAAAAAAAFhznyybuPyGN5qUtblTEL4LHVU7pZEd4&#xa;6iUMjsujk+un+aFYvMTq0aTy/pdABqqAAAAFXDXKABjJPLpZIunQ/hjvMkzp&#xa;ki3ZM10AA0QAAAAAAAAxKtX7xiaW7v8AmpcRaj0TP4i85qObhW5RSELXxeQv&#xa;FifUXvOWccxfe+7Tm6aR1z+ib/EXI1crPKa1FJA3pTXqpM/AAC6A46vrqGs2&#xa;1SOtniZS0Eap+kdwc9eZ2DtWh2hrdeOGeWTQWXZmKlppnXWCmrKqaRZFerUk&#xa;Tj4akAxtia1iR1lrZK2VKaRVicnFHMVTXWK5VNvuV3Sntstcj6lc7vuwqm9+&#xa;gHUm0sFwtzKaCn3e7mjRNP3oiITsFnqLXU3GSZ8SpUzLJHocq4TK88ogGLZ6&#xa;Cuqto5r1XUvVMx7uOLVl3vU42KSudaquGOKR1ujqN7UKzhzwmD6saTZyxy2u&#xa;gqqer3UiTSq/DMqmlURMLlEA2NtdSvtsDqFrW0qtTSidyGUaOx2erstVUwMl&#xa;jktsiq6NiuXUxTeAAAAAAAAAAAAAAAAAAAAAAAAAAAAAAAAAAAAAAAAAAAAA&#xa;AAsUv1ZE70euS+Wnwqr95G7D/wDJTK8TExaPRautaXSxzrUx3M4jNSvDTGnt&#xa;IojqV+V8tjua96KZXvvXTotWumSADqZgAAABfqgY7I6ffcNOtO7UZBhshfpZ&#xa;HumorFyrzMOfB2nppewADoUAAAAAAAAAAAAAAAAAAAAAAAAAAAAAAAAAAAAA&#xa;AAAAAAAAAAAAAAAAAAAAAAAAAAAAAAAAAAAAAAAAAAAAAAAAAAAAAAAAAAAA&#xa;AAAAAAAAAAAAAAAAAAAAAAAAAAAAAAAAAAAAAAAAAAAAAAAAAAAAAAAAAAAA&#xa;AAAAAAAAAAAAAAAAAAAAAAAAAAAAAAAAAAAAAAAAAAAAAAAAAAAAAAAAAAAA&#xa;BlAAGUAAAKqIAAAAAAAAAAAAAAAAAAAAAAAAAAAAFvrEG63u9j3fjqTBcRUV&#xa;uUAAAACEcscrcxva9E4KqOyTAAAAAAAAAAAAAAAAAAAAAAAAAAAAAAAAAGvS&#xa;V0dU937GcKbAxIWo6edi8lOTiNzMRVrj1G9q1C/2mDHJS7LUNifoRut/ghiN&#xa;1tqYonfsrwX2KXo1RtbLq4Z5GFMk7n03P/C01iF1lQ1zHKjXZTmzvLdJM+Ru&#xa;HNz7SkSo6vkczlgUCpunJ35UvW9rXjcomsRE9FysVUpnfcU37YaeNXd6IKz/&#xa;AGV33Fqb9XT/AHFslpreZj9QViNRC6yqasiMVrmZ5ZaSfUI1+hGueveiFuq/&#xa;Xwe8o5GrUuWOXdyd+eSkTkvG42RWE1qEWBzmNdnl7ilNOq0+ZO7mpGKRZIZk&#xa;Vrcoi8U7ykMiNt2U0qqZ4feRF55omZ9DljWtJ9cbwVWORi8lKT/7ZAWZlVaZ&#xa;FWVq5x5CFx/6+n9xSck2jU/CYrEdkoP9smKrWM7muVic1RpBiKs9Sic8FuHK&#xa;0+OsNYnHLFahEZLVjUfJywy3zsbGknNF5GNNNvJovJcxUXvKPakbKddWWIvM&#xa;nUSNdNBhzV4lr5LWjU9OxWsR2ZYAPRYAAAAAAAAAAAAAAcxbZXr0h3SNXuVi&#xa;QtwzVw5MOnOVtvnJuv2dn8owMhNsaaRknV6CsnfE9UckbM4RO9VQ2EF/oZ7I&#xa;66Nc5lOxOOW8UVOGDVbD/wCzXH7U41Vj6l/UOtSvbJ1VanCrG3Ks+rhQN7Dt&#xa;ZTrNA2ooqqkjnVEimlZhq5MGv2jq6fayCCOlrOrojkWFGIqyqmeLPFDGmrKm&#xa;zRUX/qNNeKGSRrY4XsTUid2DNu72QdINpkle1jEhdl7+CcnAbO47QQUFVHSs&#xa;p56uqkTXuYWZVE8VK0F6p7tS1SRslhmhRUkhmbhzDWXC4zzbUuoIq6C2RxxI&#xa;qzqxquk9iK4w9nHIt/veKrrX6JP0vBNePcBrmea1/wDf/wD5HXT3imtFqpFm&#xa;bJJJKxqRxxty5Vx3IcizzWv/AL//APIzbyyWK+2abrTaKNaZGsnViOSN2F5o&#xa;oHR2y/wXGsfRup56Sqamvdzs0qqeKGPNtXSx1s0ENHV1TYeEskDNTWGFR0Gv&#xa;aalqZ9oIK6qijXSxkTWqrcKnNq+0t7HVtLb7ZV01ZPHTVEUzlkSTCKBe2Aw6&#xa;zVSpyWqd/wBrTqDl9gFRbNVKnJap3/a06gAAAAAAAAAAAAAAAAAAAAAAAAAA&#xa;AAAAAAARSNrVyjeK8yQImInuIrGxXo5WtynJSj4mSfWa1SYImle2k7RZG2Nu&#xa;GNaiFEiYj9SNaikwOSvTobUc1rm4VuUKLExWoit5ciQE0j9CLo2uVFVuVTkU&#xa;fDHJ9ZrVJgTWs+hHRRjWtbhGtRCLIY28mtTPMmByV/Rtb6tD6NpLdsyi6eXI&#xa;kCIpWO0G5RSNqP1I3ivMosETlyrG5Jgcte2jcworWqzQrW48CKQRJjDG8CYH&#xa;JX9EW0AAugAAAAAAAAAAAAADHjoaWOtfVsialTImHP71RDIAGPSUNNQtelNE&#xa;2Nsiq9cd6qUprbR01K+mhp42QSZVY9OUXJkgDXU9gtdLOk8FBEx6cl08vcXq&#xa;210NzaxKunZNp+rnmhlgDCqrNbq/T1qjZIrEw1VbxRCUFpoKWR76elZGsjUa&#xa;uhuMtTuMsAYX0Pb0oOpdVZ1VVzu+7JeqKGlqaVKaogZJCiJhj25RMF8AYdDa&#xa;KC2q5aOlZErv2kbxIVFktlXU9ZqKKKSTxVvP3meALFJRU1DE+OmibCxzlcqJ&#xa;3qveXwAAAAAAAAAAAAAAAAAAAAAAAAAAAAAAAAABDfRfvx/xEyG5i9FH/CUt&#xa;zf2pjRvov34/4hvov34/4huYvRR/wjcxeij/AISv5Phb7TfRfvx/xDfRfvx/&#xa;xDcxeij/AIRuYvRR/wAI/J8H2m+i/fj/AIhvov34/wCIbmL0Uf8ACNzF6KP+&#xa;Efk+D7TfRfvx/wAQ30X78f8AENzF6KP+EbmL0Uf8I/J8H2m+i/fj/iG+i/fj&#xa;/iG5i9FH/CNzF6KP+Efk+D7TfRfvx/xDfRfvx/xDcxeij/hG5i9FH/CPyfB9&#xa;pvov34/4hvov34/4huYvRR/wjcxeij/hH5Pg+030X78f8Q30X78f8Q3MXoo/&#xa;4RuYvRR/wj8nwfamADVQAAAAAAAAAAAAAAAAAAAAAAAAAAAAAAAAAAAAAAAA&#xa;AAAAAAAAAAAAAAAAAAAAAAAAAAAAAAAAAAAAAAAAAAAAAAAAAAAAAAAAAAAA&#xa;AAAAAAAAAAAAAAAAAAAAAAAAAAAAAAAAAAAAAAAAAAAAAAAAAAAAAAAAAAAA&#xa;AAAAAAAAAAAAAAAAAAAAAAAAAAAAAAAAAAAAAAAAAAAAAAAAAAAAAAAAAAAA&#xa;AAAAAAAAAAAAAAAAAAAAAAAAAAABZqauno4d7Uzshj/53IiFKStpa2PeUlRH&#xa;MxOCqxyLg1d8t9RUXKiq6ZkFS+lRyrSzOwioventQt2h9I6/T5opbfcViTXC&#xa;rk0Pbn6yaeCgbCS+WuNrFdX0yI7OhdaccLgypaqngp0mknYyFcYerkROPLic&#xa;9slbqOfZ3M1PE9ZXvR6qxFVURVQ1DuOwNTT6nPjird1Gv/IjkA6quuUUlvnW&#xa;iuVLDJErUWR7kVsaqvJTNmrKanejJqiKN6or0R7kTKJzU0O1dHTUex9VHTQR&#xa;wsyzgxqJyehK8U8NTtfZ45mJIzdyroXllEA3NLcqGta9aaqim3fPQ5FwYFBt&#xa;HSVt4qaJssGI9KRPR6Lvspxx7jFmhip9uqTdMbHvaV6Pw3GcFbPBCm117xEx&#xa;N3uNHD6uWAUv94u9BT1M1NRMhghVE30zsquVx5LUOgfI2KJ0jnYY1FVV8EQ0&#xa;m2v/ALRq/wD4f96GXtAqps1Xaf8A+O7+QGLb6y63V8dZFuKS3q/LWPYqvkYi&#xa;8/BMm8OSbYombKsro6ypSrjpkljm3qoiYblGonLSdFaap9ZaaSpkbh8sTXr7&#xa;1QCdXXUlvYjqqoihReSvciZJQVdNUwb6nnZJH4scioaaukhdtFoprd16tjhT&#xa;Wsj9LI2KvtzxUxbQkkV6vkb4GU6rHG5Y43Za1VavFOCAbp17tcejVX0ybxMs&#xa;8tOKGLtHVzUtLROp5dG8qo2Kqd7VMTZe2UVRslBvaeJd81dblamV4qhp3VEv&#xa;9RLVJjevirGpGneqNc7CAdvLVQQzRxSSxskl4RsV2Ff7kLpzWzf9oudbNcWu&#xa;S7sXCsfyjjXkjPYdKAAAAAAAAAAAAAAAAAAAAAAAAAAAAAAAAAAAAAAAAAAA&#xa;AAAAAAAAAAAACE0rIIXSSOwxiZUTOoFJ546aLVJwaWOutkiRY9KZ71OcrJXy&#xa;XDrDJdbHcUTVn7jZ0NtqliR0j2sReOhTkyzl6Tj7Nfx9onqzEuaJwla1Hoq8&#xa;nZTT45M2GaOeFJI3NexyZRUOavEVwoZmSwNasfLKNzxXxL9BeFbPFA5jUjdw&#xa;9ymuO19RzwtkxxGprPd0AANmAAANdcrO2uniqYqiSkqoUVI5o8LwXuVF5oRt&#xa;9n6pWvraiqlrat7N3re1Gojc5wiIbMAcfs3aqmpsKPp7nPStkkej2Maip9ZU&#xa;y3wN1Ns9SusLLVE50cLVaurmqqi6jasa1rcMa1G+CFQMK72xl2tklE9+7SRW&#xa;5VPYuRPbWT3aluCvw+lRzEZ3LkzQBhS2xkt5guKvw+GNY0Z3Lks/Qytvj7jT&#xa;1j4d6jd9HpRWv0phDZgDCu9tZd7XJRPfu0k08U9i5Mt0bZInRua1WKmFRe9F&#xa;JADQf1WXq/U23SpS3Kv+z8OXPTq54NpNQq59LuJ308dMqLu4+T2omEavsMsA&#xa;aqusa1Fy69SVktDUKzdvVjUcj2p4opbpLEy2PrapKiWZ88WHbziqqiczcgDk&#xa;bBZqir2Yp0julTBBM1dcSNaveqLpXmhu57HTS22lomOdFDSStkTHHVpNkxrW&#xa;tRGNaieCFQMCstLKi4U9dHK6Goh4ZRv12Lza4zwAAAAAAAAAAAAAAAAAAAAA&#xa;AAAAAAAAAAAAAAAAAAAAAAAAAAAAAAAAAAa6+o9bU5Gd6obEtVcCVFM6Ne8p&#xa;f+noia7jlcxZ6BXXCOSTThF5eCoh1hzFaj6GFJIPIVj0VTYw7R0SxItQ7cv/&#xa;AMUObhLzeJdM4ZikTHo2cuncv1csLk5GZ1JO9Nx5EndnkbK6XhJ6N0dFx181&#xa;9nsNNbIFrbhHFp4ouVXwRDXNhmZiXnTxPLeK0dvGqqxFXngqAbukAAFp9VDH&#xa;Ux07nYkkRVYgqKqKkh3szsMNfcYXS3JN3+sZCr4/ejkUs18za+me5n6uKHeL&#xa;/wBSphE+5ANrNVxQY1eUr/qMY1VVfuQrDUxTMcrHfU4Kitwqe9FMaH/fEuee&#xa;5bo92VyRekf0rOjuEa0ybxfvUC8y5U7lT9YjHcGPVio1V95dWqiTf5//AG6Z&#xa;f7ExkwX72kpUZO1lTSIjUzycje5VTkpGbnd/7pP+wDLZcqdcZ1sR+MK+JzU4&#xa;+1TIlkbDE+R3BjUVV9yGtWOqrLeynWCONj2NRXq7PD2JgzLh/uyp/unfyAjH&#xa;cadysT9IzXwYr2Oai59qmUahzp5aekppWNjjk0+WjtXLiickwqlXyTVFTU+R&#xa;Uru37uPcuRqJhOa8UyBtiEkiRKxFb9ZcJhuTXypUybhZWyqiReXHC7S5HePB&#xa;Uyg3y7mh0TyPRZtCqvBVTC8HAbF8iRRPkXkxFVfuEUiSwskTk9EVPvNWsbqq&#xa;mrZnSyorVexiI7CIiewiksjlp6fTK+NKdr1SFyNVVXhxXKAbgoqo1rlV2EQ1&#xa;a9Z3VPHI6WPMyszqTUrMKqZwHRKi11PvZVjSJr2ZcuUVUXvA2jHNcxHM4oqZ&#xa;RS3NURU6xpI7G8VGM96lu3Ro23QY45javFyrzQwaySOorJ2ObIqRx7tisiV2&#xa;HrxVeHgBtwat1Q+qp6FUfJGskmh+HYXKIuUKVCyUvXII5ZFZ1feMy5VVi8uC&#xa;gbUGuc11LJSSMllesj0Y9HuVUXKGxAFiesigejF1K/GcMYrlx4rgvmE5s0Ff&#xa;JNHBvmSsanByIrFT39wF91ZA2mSbXqY/GjDcqqr3IhWnqo6jUjOCs5se1UVD&#xa;V0urTQq5rURZpFRE5d+DNZ/vt/2duffqUC/PVR06oj+L38mMaqqpWCeOoZqj&#xa;dy4KitwqKncqKQqHQ0/9oc3y0TQmOa57kI0cL4mPkl0pJK/WqJ3dyIBcSqhW&#xa;q6tq/TImvHsE9VFTrGkjsLIqMZ7VNZUIrbnPUs50yRv97eKOQpWOSqqUmTjH&#xa;FJHFH71ciuUDYPuEMcz4tMqrHjOhjnImUz3F6KVk8SSRuarF5Ka+NKn6Trur&#xa;7pPqZ1tX932F+1Y6no/ba9yP/wCrPEDMITzMp4XSycGJzJkJY2ywvjdycioo&#xa;FJpmQQulk4MYmVUuIuWopqI3OqIqWidxex6pL7mf/wClXyTVFTU+RUru37uP&#xa;cuRqJhOa8UyBtgaxGz1FbFHM+SNero97GOxl2fYRn3jZJpJnzomcxyRuy1ie&#xa;CtA2e8TfbvTxRM/V4EjXz1EkNZUuR2UbSpIid2cqQc19LTQVKTyvkVWZy5VR&#xa;+VxyA2YNZunTzV2qeVEjX9GjHKiJ5KKZVHmempaiRzte7T9rCLlO9AMkAAAA&#xa;AAAAAAAAAAAAAAAAAAAGDcbclZF5DsL3p3KcpWWGvbO/FK5Wdys4ncgpSlaW&#xa;5qtYy25eX0cjabHX6XJKzcsX986O3W2G3Q6I+L14qq81MsG1rzbo5q46xbmA&#xa;AUaAAAgsDFqUm/bRFZ9ylpLfTpTzQI3DJcqv3mQALM1JHPoVdSPZ9RWOwqCG&#xa;kihY9EbnefXV7sq/35LxRjmuais0qi8lQDFbbYOCK6VY04pGrlVpddSRO3+f&#xa;+MmH/wCGC8AIxtSNiMTkiIiFJY2ywvjdyeiovuUmALL6WOSmSBW+QzGPFMci&#xa;EtFFJI6TU9iuTC6HK3XjxMkgkzFndB+2xEcvuUC0+iic5iprjcxNCKx2Fx4B&#xa;KKFGRsRvCJ+tPK7/ABUuyzRQM1SvaxPFXYJMc2RiOZxRURUUDHlt0Mj3qu8R&#xa;JPrsRyojw6iic2PTqYsaaGKx2FwZJamqoafG8c5M8vJVf5ARbRxI2P6y7tVe&#xa;iq7K5XxJ9Wj3kkit4yIjF9yEaerhqFckT8qzGU0qnMvAW6aBtPCkbNSonLLs&#xa;4KwwMgZhneqvX2qpZ+kKXe7vet1Z0fVXGfDJkgYFRb0dJDu2uwsyyPw7GMt5&#xa;oVnoEbQ1KRapJpWKmXuyq+CGTNVQ0+N45yZ5eSq/yIR11NIj1ZL5MaZXLVTC&#xa;feBGGhjifHIu8VWp5CPcqoz3GUWYayCofojflcZwrVRcfeXgBanp2VDUSTVp&#xa;8EcqIvvwS3zOs7j9vRr+7OCYFqWlilhSJW4Y3GjHDQqcsEI6OOJkqJrVZEw5&#xa;6uXV/iZAAxpqKOdY1V8iLGmGKjsF2GBIP23vz++7JVJ2LUug/bREf9yrgmBb&#xa;SmjSaSTTxkREX3IWmUEDaaOnRuI41R6e9FyZIAxn2+N075UfKxZMZ0OVEXCY&#xa;L0MMdPGkcbcMQTStghfK76rEVVKMmY6Tdp9fCPx7FAuAo5zWty7SiJ3qVAtR&#xa;0sUVTJUI39JIiIq+4ty0UUkjpEdIxXphdDlbr95kgC0ymjbMkiNwqM3ae4tP&#xa;t0Ej3r+kRknFY0cqNevtQygBb6vH1h0unirEjXwwhajt0MT2L5bkj4xsVyq1&#xa;nuQySDZ2OnkiT68aNVfvAoyBjVkVNX6Xiv8AhgpHSsjSFGakSJNDE1fzLoAA&#xa;hvWb5Iv21TOPYTAAAAAAAAAAAAAAAAAAAAAAAAAAAAAAAAAxt4/6W3eryNzn&#xa;Ht1GG6edYsJK5FWsWNF8G5M2ekSWZJUlfHIiKmWY4ovcuSMduibEjEc9cS77&#xa;KuyuoCyjZG1klMtTK5ixJIiq5NSLnHBS1SqsNjg/TyM3mnk3UvHuabHcM611&#xa;j9vRu8d2M5MdLbGlIkG9lwxUfGupMx48AMeOqlgfVIu9VI4t61JsZzx8A5J4&#xa;YqSXrUj1lkYj0XGFz4GVHQsZJLIr5JnyM0LrcnFDCjpZHSU8aNqUZFIj1SZy&#xa;aWIncmOYFzM00VVUdYfGsauZGxMYRG+JBaqWR8ESulx1dsirC3LlVStXA/XO&#xa;yKKpTe54Mcmh6qnNV7jKSgTdxfpXRzRxpHrZ4feBipNUvZBTuc+NZJFZrVuH&#xa;KxEz/ipOJH09yn/WT4iZhOGrmvuMl1Ex1Okavly1daP1eUilYKNsEz5d7JI9&#xa;yIiq93gBGoRs9E+SSDD0jdhHtRVQQSujttOrIHSfo28GY8PaqGQ+NHxOjXk9&#xa;FRSkUaQwsjTkxERPuA101VJLWOi01LGMY1VSFqK7K+Jl0k0iUG8qeCtzlVbh&#xa;cJ3lZqRHzJKyV8MmMKrMcU9uclX0jJKXq7nyKzvVXZVeOeIGNEro7dNVSP3M&#xa;k3lqqtzoReDUwRppZGXCOL9OrJGKq77HNO9DOngZUQOik+opZjoEbOyZ08sk&#xa;jEVE1uTkoFmeKNzEt1O3gmFevo2ouf8AFRUuc6pexks+WInkQtTyFXvcqk47&#xa;budW7rKlM5VfKbxVfuJvoGumdIksrNSIj0Y5E14ArSVCyWuOol0/q9aqW6SF&#xa;stI+Woa3NQqSKi+H7KFzqMfUEpNTt2mPeqIucKXpoWVELopG+QoGE50v0rCt&#xa;QxqYY7dox2da9+c4K1FVM6KONGPpllkbHlcZwvFVTCqXoqNGzJK6V8z2oqM1&#xa;uThn3IhdqKZlRFodw5KipwVFTvQDXP1UdfJJrdJppVemvnwUQS1OuncnWXq7&#xa;G81swzC96GZHQMZM6V0r5nvYsa63JjAhokhVmJ5VYz6kau4IBipPMrEpNf6f&#xa;fbtV79CeVn/AtOqJ51nczrKPjerI0jZlvDxNklJEla6p/wCIrNHsLbqBqyPd&#xa;HLLGknF7GOTCqBiundFWTVCtw9KRr1Z7cquCTt/SwQ1K1DpFVW62LjSqKuOB&#xa;mdVj37pV4q+NI1ReWELUduY10eZZXxx8Y41cmEVALTI5qqpqk6xLGkb0SNGY&#xa;4eSik6StllpoHLA96vRMqzGEXOPEgyifJU1Sq+WFHPT6jkTWmlDNiiZDEkcb&#xa;cMYmEQDVTb2qtVTUrPImUdiNMaUaiqmC+6aRs8zEd5LKVHongvHiXH2yORJW&#xa;b2VkcmVWNHJjKl1aONXvd5WXRbpfcBr6mGRbC6WSole9zGvXlgynyOoqqHVK&#xa;5YHMViq/ucnlIpkOpI5KHqy/U0Iz28DGrYFnp46NWvkyqKsi9yIvECtLPOlN&#xa;G6SCWRZcvVUxhiKvBOKoWV374a2XrD2LTvdu0TGOCZ4m0LCUkaQzx+VibKr9&#xa;6Y4AYUtXJLUQxfpUYsTZF3LeKqpWOeoa2CSXeIxJVjXW3Cvav1VUynUTF3as&#xa;fJG+NNCKzGceC5ElEySjdTSPe9H81V2XeIGClZULTzIrvLm0vh9iKulCUszq&#xa;We4ys4qyKPGfcpnOo4nTQSK3jT50BaSJZJ3Lx3yIxUXlhAMd6TUT6d3WJJN5&#xa;Ikb0fjC570LeZpoqqo6w+NY1cyNiYwiN8TJjoGtkY50ssiR/q0e5MIYlXA/X&#xa;OyKKpTe54Mcmh6qnNV7gJxVUiTQqrnKnVN4qeLkwTpoqmSngqesOV7tL1Yv1&#xa;cL3Iheho2xLHIvF8cSRezBFlujarE3sqxtXLI1cmlFQDLAAAAAAAAAAAAAAA&#xa;AAAAAAAAAAAAAAAAAAAAAAAAAAAAAAAAAAAAAAAAAAAAAAAAAAAAAAAAAAAA&#xa;AAAAAAAAAAAAAAAAAAAAAAAAAAAAAAAAAAAAAAAAAAAAAAAAAAAAAAAAAAAA&#xa;AAAAAAAAAAAAAAAAAAAAAAAAAAAAAAAAAAAAAAAAAAAAAAAAAAAAAAAAAAAA&#xa;AAAAAAAAAAAAAAAAAAAAAAAAAAAY3WJfpLq3VX7ndat/qTTnONJkgAAAAAAA&#xa;x66olpaN8sFLJUvTGI2Owq5UDIANfU3J8F+orejGqypa9yr3ppQDYAAAAY01&#xa;bT09bT0sjnJNU53aaeelMqBkgAAAAAAAAAAAa+vuT6S626kRjVSqc5ir4YTI&#xa;GwAAAAAAAAAAAAAAAAAAAAAAAAAAAAAAAAAAAAAAAAAVURuVLazsRqY1PzyR&#xa;Cs3rHc0uAsR1sD25R+PL0ceHEvkxMT2JrMdwAEgAAOevKTzbT22jjqpYI5Yp&#xa;Ne5dhVwhjSUE1LtHBbae41TKSqiWRyLIquTT+65eWTa1dvnl2lt9axrdzBHI&#xa;j/K45VBUW+eTaikrka3cRQujXyuOVAwqOJ9r2rShjqJ5KWamWXdzPV2hyOxw&#xa;VS1a6R+0cM1xqqypYx0jmwxxSrGkbUXGeHNTZS2+d21UFcjW7iOnWNfK45Vc&#xa;mHTUd2sqz09BTwVVJJIsket+7WLPNF8UAtU1bc1sd2pInunrqGTdMf3vb3L7&#xa;8GNb+qvqKf6PvFRHXNVu9hq3u8tO9qtXvNnS2Ssp7PVI2sbHcamRZnysTyUd&#xa;4e4xqyiu966vBV0VNStikbIs7Jcrw/cTHDIGUyaX+vboNbtz1DXo1LpzvOeD&#xa;XWe3Pu8NbJVV9ZhlTJHGyOVWozCm3SgnTaxbjpbuFpNz9bjq16jT2Ga7QQVy&#xa;0VLBURrVy4R79Ksdn/NANnszVVE1JVU1U/fTUdQ6n1rzVE5Kpa2nfUa7XFT1&#xa;D6dZapseWO7lQu263Vtrs1SrN1PXzSLMucoxXKTudDV1r7VIjWa6aZksrdXB&#xa;MJxwBrrzL9BUdJQx1lSxlVKu8qHuWSVjE54MamuNJS3uhba62qqY5nbqaOfX&#xa;jjyciuQ3t6tk1a2nqKR7WVdJJvI1f9VfFq+8pSzXuoqo+sUtNSQMzr8veOf7&#xa;sYwBpaiWJbxWtvdZWUSbzFKsbnNi0dyoreGS/eJKuk2Fketfv5k06aiJ2FVq&#xa;vTvQzXpfKaaeNkEFzp5XqsayP3axov7KpjiiGHNs7VpsXJa43MfUSPSTCOwx&#xa;mXIuEAyLw6auvlJaI6iSmgWNaiZY3aXPRFwjUUxlt/0dtla42TzyRrHKrEmf&#xa;qVnDuVTYXe3Va3Cludv3bqinRY3wyOwj2L3ZMeKiutXtBRXGsgghhha9mhj8&#xa;qzKd6gatbrRXG4VbrlcaqBkUqxQwwa0REThqVWouVUjJdauXY6q0VT1kpqps&#xa;UdRxa57NSYVTbx0d0s1ZVLb4Iq2lqZFm3b37t0b15+OUK3O33S5bPPp5tw6q&#xa;fK1yMZwaxqORcZXmBi3ijkssVPcIa+rknSZjJN49Va9FXiitI3q2xv2stWZ6&#xa;lOsrLnEqpowxPqeBtdobfPcrayGna1XpMyTi7HBFLV6oa19wt1woomTSUavz&#xa;G92nKOTHMCF93MU1LHVXKWClwqbiHVrmd728cGPs9V4vtVQwT1MlIkTZY0qE&#xa;dqjXOFRNXHBkV1Fcor1BdqOCKd/V9zJA9+nHHVlqlbbQ3NNoprjXRwNbLAka&#xa;JG7O7VHZRANdYbZJeLIlRU3Ku3mp6R6JVTd4cWqi5V0mxUrnTubV01SlOsjH&#xa;YVVRyJkls5NeIrAiUNLTTxuc/dq9+lY1yvNO8reLY+17DOp3Pa+d8zZJH9yu&#xa;V4F+8W+ey0H0rTV9VJPArVkSR6q2RFXCoqHTscjmI5OSoinPV9HerzClvqYK&#xa;aCmVzVmmjertbUXOGpjgbly1jbhFHHFF1LSupVcupHdyIgGjui0i3aRlwulS&#xa;vBN3S0uvMaeLtJj0ddUSbKXpvWJXrSPkjikf5L9KJlM9+TMSju1su1dNRU0F&#xa;VDWPSTMj92sap4+KGK63VlBs3flrdCvqNcqLHyXKAVfaZ/6upco7lWdcZTpM&#xa;irKulcN1adPLBaut1jRdnbpO1yN0OkejfFWJwQvMjvtZs9Bb44KZIpadjVqN&#xa;fJit/d8cGdUWV3WrK2BGrBb8o/XzxpREUCmz6z3L/wBZqKjO+RUigY5dETU8&#xa;fFxvDT0ltqLZe5XUjWrbqnL3x6sbp/i32KbgAAAAAAAAAAAAAAAAAAAAAAAA&#xa;AAAAAAAAAAAAVURuVBr77K6K1S6O/CcCLTqNqzbUbam5XGpdWuiX/Zu7DS9Q&#xa;rUyxIjInLHzRTXW2CasrYWSalh8Vb3JxOwY1GtRGNaiJyQ5JxVzRue7fxL6j&#xa;pqHL3KtWhrESWJ65TiurHBeHBTaW25U+mKkR3NPIVeK/eZ1ZSQ1dPolY1+OK&#xa;Z7lOXmpty9ksErX6FyiJzQbrh1Va94yaiI068FGLliL4oVOxgAAABlM6Qqon&#xa;MAAqojcrpRAiorcoABTU3OPJz4DKAVMahoILfHKyna5EkkWVcuz5S8zIRzV5&#xa;aSoAFEc1eWlxUAAMogABVRG5V2ETmoRUc1FTSqKmUUAAAAAygAAAAABjUFBB&#xa;baRKambiNMrhXZ5rkV1DBcqV1PUtzGqouEdjii5Mkormt56UAqAqojchFRW5&#xa;TykAFqrpYqylkppmuWOVFaqcuClxVROelAiovLS4CMMLIKeOCNuGRojGe5Ew&#xa;TGUzpCqiAAU1NRcamlQAAVUQAAAAAAAZTOAAAAAAAAAAAAAAAAAAAAAAAAAA&#xa;Ma4QLPRvYnPmhkgrau66HMrK+1tZKnl+XxOgpquGqjR0T2r/ADQ113t8ktPi&#xa;JuUXiqJzQ5GpSWKZ8aucmn7jl4Otoma2dlopbHuPR2d4uUdJRvRnGRyYRE7s&#xa;96nL0kaz1kTI/rqqIVtST1bHR6d5g6Ky2RKFesTaVnf/AIMQ7smGI67eLMXv&#xa;k16Q26JhqIACruAABqblqbc45mc6eJZMeKI5Mp/gUvUiVFNuo/qJGsyr7E+q&#xa;Z7qZXV6VHk4SJY1T3rkxmWpW0NTBvcrLwYq9zU5IBXdsq7lu5mtfHFE1UYvL&#xa;K94ji3FfPTU/6NkkO8Yncx2cZQvTUsu/Sop3tSRGaFR7co9CkdG9VmkmfmaV&#xa;NGWcNCeCAYUcVPFFHBUQdUnTGJtPN3jq9pObnd/7pP8AsLz6Oqnp+ryysWHh&#xa;lUYupUQuPo3OWt8pv9oYjE9nk4A17kpZKCNKSD+1YboVkStVF8VXBs7h/uyp&#xa;/unfyLsMe7hYz91EQpURLPSSRJwWRisz70A1H9mdDTx0kGirXQqKjFj5c1VV&#xa;xlDJnuSpNMyOWmj3XDEjuL1MiWjc6mgRjmpNDpVi+7gv3KRWknjmkdTuixL5&#xa;apI1VwvLKAWn3Fzur6HRwslj1a5uKZ/d7iUs0mikWWKPW6VE8UTgvFpelhqc&#xa;oscsb26NCskbwX28C1HblbDTx62/opN4vk4TjnggFuaepqKesWPdJDHqjwrV&#xa;y/CcVINrtzFT06SwQruWvVZuXgiJyLzqKoRs8cEsaQzZVctVVYq88FepSxrD&#xa;JE6PeNiSJ6PblHogFtlylkhh3TYle+VYlXm3girlCTp6pWVUDnRbyNiPRUau&#xa;FRUXuzzLy0srurrI9qvjkV64bhOSphCq0irPPIruEsaR+7GQFvWRaCFZHNVV&#xa;Y1cp4YMS4I6qqd3G7C0rN4n94vJDOo4pIKVkUmlysRGIqeCFmK2w5ldURRzS&#xa;SPV6qrM+5AIy1r3Q0jqdrV6wqJ5fdlMkX1tRTtqY5WsdJHFvY1Rqoip7ULM1&#xa;LJTvp443NROsKsfk8GIrVXBOrppUpKyomc1ZFiViIzkiIBd6xVQyQLM2JY5l&#xa;RnkNXLFVMp7zOMGOnnlWBZpY1jiw9EY1UVVxhMmcAMOrghR/WJYJKlcaEj0o&#xa;7HuQzDGliqUn3kErcKiIscmVRMd6YA16aUt1EsulabeLr70ROOlF9iGTQSQ/&#xa;SE7KbTuMNfw+rq4ouC/DTvp6Pdxua6RcqqvbwVVXK8EKxU8kLJXa2vnkTmrc&#xa;ImOSY8EAs3GF8q06JA2diPVVYrkROSonMnb1i/SRsp2wSMVEexMfcvAnNFOu&#xa;7dHK1JGc0XOl+RS0z4nySyua6SXGcNwiIiYREA18zlgvklT3MRjH/wDSuUyV&#xa;ubllrI0T6lNIzPtcrk/khmrRJJPUuc5qsmY1mPcWWW56UbIllzJvGyvXxVFA&#xa;x3JCtzrd5ROqfqYwxHY8n2mZav8AdzPKzz4fucfq8fAp1aqirJ5YHwYl0rh7&#xa;VVUwmC9SU/VYXMV2t71V6ryyqgXy1VwJVUkkC/toXQBq5Z3Vlvp4P+JUKjHe&#xa;xE+sVmuSpNNHHLTRtp+GJHcXqid3FMIX4aDc3CSo1akXOhngq/WC0k8c0jqd&#xa;0WJeKpI1VwvLKYAglbPUTQsp2sRJIklVX5XHEi6tnWpkjj3CLGuEjfwc9PFF&#xa;MltM5KxJlc1cRbtfJxlc5yWKiiqJ2viWWNYXcUV7MuZnwAlJUNhr5lcxuI6d&#xa;JFXT5XNeBHrVVCyKaZsW7kVqKxGrlmeXHvLrqJJKmRzuLJIUiVO8tpR1Dmxx&#xa;TSxuhjwvBqo5+OWQKOqKuSSqSLcIlOvDW1VVeGTIglkqIoJk0pG9mVTvyqFI&#xa;6VWvqV1N/TLlPZwwKaGWCGni1NVkbML5PFVTwAyAAAAAAAAAAAAAAAAAAAAA&#xa;AAACD4YpP1kTX+9qKTAEWRsjbhjWongjcEgAAAAAAACxv16/1fS3G63mfvwY&#xa;7rhIkWWRNV3WFhRNWAM8GElRU76SncyJJEYkjFRy4wq4IUc9T9EQyK1sj1RM&#xa;KrscPFyqBsAYMNw8qdJdC7pm8zG7KKhTrlU1sEkkEaMme1ERHLlmfEDPBgOr&#xa;KhWzyQRMWGnyi5cqK9U54KuuDl3Mce6SSSJJVWR2GoigZwymrHk5MBtydJCx&#xa;I2NWd8ix41eTlOa58CEMrornO6q0R4iZldXDmviBsgYdWjKmjdJHO7QjFX9G&#xa;7gv3oTgnigttO6WVrEWNnF7sdwGSDDqYaNYX1UjGvTGc6uaEaWiVLcyNXvjV&#xa;V3i6HY59wGcDCtjkbamOc7gmpVVfY5THhWSS7QTO4JLG7QzwamMfeoG1Bqqy&#xa;kZDTuVXbyrkf+jXkupV4Y9iGTPSxK901U5r42MTDF4IzxUDMBqMOSjpGVGpI&#xa;HSLnLuOnirUcTgRrp6qkpJdEehqoqcUjcuUXAG0BrtxFBcoGUzcKxFWXyv2c&#xa;cNRemuMKQaoHsmflrEYxyc1XCAZYMSOoqErGU8zGeUxX5Y5e73lr6QlbNGkr&#xa;YESR6M3aOy9meWQNgFVExnvMaW4U0cUipK16xIqqxHIq8DFmdUrU0W+ZGiLJ&#xa;lNDlVU8leCgbMGtddXIx8zGxbmNVTCu8tURcKqIX1rt31reNb+hRHp/ztVOA&#xa;GWFVEVEXTleRgOrpd4kSNgZIjEe/eOwiKvchb6wlVU26XTjL3oqc8KjVQDZg&#xa;wFrah0T6iKJqwR55uXU9E5qhN1ZK+pZFTtjVHRb1HvcqAZgMSG4R7p3WXRwv&#xa;Y9Y1RXcMp4ZC1U0tS+OmZGqRomVe7mqpnCYAy0VFblNKoDU0EiJDbkVjVV6y&#xa;YXw5mRDUVdQyVzGRIxiqxFVy5VUXAGcDWUlXPHQUkk2l6SKjFXUuUReSqZKV&#xa;7Emn3jo4441SNFV2MuxlQMoGE6rmkqnRUzYnpu2yI9XcOPuI/SS9Uhdoak0j&#xa;1jwrsNRU5qqgZ4Nf9JPaybU2NXxaVVWOyitVeaF7r6fSD6dW4YjM59qcVT/B&#xa;QMrKZRPJyoNbHM6ett8rm4V8T1x7FwS+kJ1puuJA3q3PGpdenxA2AMSSqmdV&#xa;bimbGulEeqvcqJx5ImCz1tZ2U7pIG5WoWPGrkqZTIGxBhLV1MiyOp4mvjiVW&#xa;YVy6nqnPBmMXLEXTjKclAqAAAAAAAAAAAKABkZMq1WusvVyjoKCLfTy5wnLl&#xa;xVVVTq+yPaj0VL+MgHFZGTteyPan0VL+Mg7I9qfRUv4yAcVkZO17I9qPRUv4&#xa;yDsj2o9FS/jIBxWRk7Xsj2o9FS/jIOyPaj0VL+MgHFZGTteyPaj0VL+Mg7I9&#xa;qPRUv4yAcBPFOlYlRBu1XQsase5U785LMdFPukRzma+s75cZxg+i9ke1HoqX&#xa;8ZB2R7UeipfxkA4LcO+kN95OhYt37c5yYqUVR9Gx067pVheiompVa9E8T6P2&#xa;R7UeipfxkHZHtR6Kl/GQD50yjldLO6o3TGSxbvEfcYyzSydSi3sEiJI1UWNy&#xa;qr0TvVO4+ndke1HoqX8ZCDeh/aVq5bT0aKvekyAfNp5HUsVZHHLArH5VUe5d&#xa;TFVOKY7y6lFJpp5mMie9IWxrHJ7D6IvQ/tMr0ctPSqv98hPsj2o9FS/jIB88&#xa;dSTbqKRjYGTxPV6IjcNwqYVCcEM/XJZpt15bGsRjMrjCqfQOyPaj0VL+Mg7I&#xa;9qPRUv4yAcPMzVTyRs0orkVE+8pBHu6SON2lVaxqL9yHc9ke1HoqX8ZB2R7U&#xa;eipfxkA4KpgdOsLPJSFH63p445IZGTteyPaj0VL+Mg7I9qPRUv4yAfP4KNEt&#xa;qUlRpenHOHL45ILbWJWxSs1aGoucvcq57j6H2R7UeipfxkHZHtR6Kl/GQD52&#xa;kNalU+ZWwPVeEeXuTQ3wTgVqIaueaNdMCxsRFWNXKiK//DiiH0Psj2o9FS/j&#xa;IOyPaj0VL+MgHB/2h1M5JGQbzuZqVWqnt4FuGnlhimkTRv5ETHk4YmOSH0Ds&#xa;j2o9FS/jIOyPaj0VL+MgHzukiq6fCOZAupcvfrVXL7eRfq6bf0+I9LHsVr2L&#xa;3ZRcne9ke1HoqX8ZB2R7UeipfxkA+cLv3XWHfNjYqxPRNDlXwIst9SkdPFpp&#xa;kSnka9VTOX4U+kdkO1Gc7il/GQr2R7UeipfxkA4SpgZUUz4l4bxFTJj7mslm&#xa;p1l3CJE/K4cqq/gqH0Psj2o9FS/jIOyPaj0VL+MgHzllBLDqjjipnsVVVHyN&#xa;8pEVc8u8u1dGs9TDIjmoxOEieLUXUiH0Hsj2o9FS/jIOyPaj0VL+MgHzyekf&#xa;1x1RGyCTWiIrJPZ3ouFJJSybykcu6TdalVGNwnFMcD6D2R7UeipfxkHZHtR6&#xa;Kl/GQD531Wqip5KWLdbl2cKrl1MReaYIK2SG5xsp2tXTT4w92OCKfR+yPaj0&#xa;VL+MhTsh2ozncUv4yAcHSQOhZIsulZJHq9cck7sIW1hqIaqSSn3SpLjKPcqY&#xa;VExlMH0Hsj2o9FS/jIOyPaj0VL+MgHzuCilibRZc1erq5V9uUXkX6SB0FO9j&#xa;tPF7n8PBVyd72R7UeipfxkHZHtR6Kl/GQD5u6JaeyPp6l0aaGKjFR3PHFF95&#xa;l0MKx0LEk4yL5b/+peKndu6INp341U9KuP8A7yEuyPaj0VL+MgHBMhc2vln8&#xa;nQ6NrET3KpjfRz+rR/q1kjkdIiLxaqKq8FPo3ZHtR6Kl/GQdke1HoqX8ZAOA&#xa;ip3OhmZLFBGkiaMRt/mvAxltsy21It63f5VVf7+C/wCR9I7I9qPRUv4yDsj2&#xa;o9FS/jIBwT6ZVrKeRmlI4mOYqe/BjdTqkpOpI5m45a9S6tK92D6N2R7Ueipf&#xa;xkHZHtR6Kl/GQD51MvVa3VFLAivjaixyO08E5Khao4JJ6Snk8nhULKq8sple&#xa;R9Hk6H9pn/WpqNffMhPsj2o9FS/jIB88SCrgWRlPutEj1eivzlirz4d5mtyj&#xa;UReK45nbdke1PoqX8ZB2R7U+ipfxkA4rJXJ0l56PNoLDbn1tXTwrBHjUsb0X&#xa;Qcw1QJgoVAAAAAUAoUUqRUDuOiL/AN/x/Z5D72fAuh//AN/R/Z5D76AAAAAA&#xa;AAAAAAAAAAAAAAAAAAAAAAAAAAAAAAAAAAAAAAAAAAAAAAAAAAAAAAAAAAAA&#xa;AAAAAAAAAHO7f/8AsK8fZ1PNyKekdvv/AGDef7hfyPNjVAuFSKFQJAoVAFCp&#xa;QChBSSkFA7fof84Ef9xKffj4B0QecCP7PKffwAAAAACgyUzhDGkr4GI7y2u0&#xa;80TiY5MtMcbvOoTFZnsygaVNoqWGugo5mSRST61jVyJp0t78pwRF7jYUddTV&#xa;zZFp5WyJE9YnY7nJzQmmSmT+iUzW0RuYZYANVQAAAAAAAAAAAAAAAAAAAAAA&#xa;AAAAAAAAAAAAAAAAAAAAAAAAAAAAAAAAAAAAAABzm3/m/vP2dfyPNTD0rt/5&#xa;v7z9nX8jzUwC60kQQmBUqUKgChUoBFSCk1IKB2vQ95wI/s8p6APP/Q95wI/s&#xa;8p6AAAACI5ZKml2quC2nZitrGO0Pjj8lfBV4J/Mi06jatrRWu59HFbf7ZXG2&#xa;3RLbRNZ1eSNMv73KvNENVaLtLFVPSjgknRyaVRG/yTxOWlv9wqkZSOc2p/4j&#xa;FV33aeHvPuGzWz1LYbYjImN38qI6aTvc7H8kPFy8JT6hTd51aOmo7adtOPye&#xa;FWMeOIpMd/WZhxt/rJKLZ19VWtqoYWaV0KxUXPJEwuDWbJbXW6uuEVarqiln&#xa;oafq+5kqE3D2q5V1ck4n1menhqqd8M0SSxvTCtcnBUPlt96P4bRWudZmYSbi&#xa;rHu5ZXkhnj4XF9Mwzu8xvpv9R+m9+Kx5eGmk03eNTH6fTLVdaS8UDauilSWF&#xa;/JTNPl3RZPPQ3i4Wadm7wiy6E5Mw7HD3oqH1FOKHtYclMlYtSdw4cuOcdtT8&#xa;Kue2NiudwRDUWfa2wX+d8Fpu9HXSRt1OZBKj1RPuNhX/AO7qj+6d/I8ldFtw&#xa;n2T2ls20cjsW6rrZLZN7PJjx/wB+TVm9fGkt+1+zt0ubrbQXmjqq1mcwxyor&#xa;kxz4J4GF0ibSJsnsDdLo12Jo4tEP947yW/5nwboWtU9n6ZKKnqv10lvWoVPB&#xa;JI0egHpeuuFJa6N9XXVUVLTxp5Ukr0a1PvU0ds6Q9krxWto6DaGhnqH8GxpJ&#xa;hV92cZPle1jJOkzp3j2RqJnNsloZvJY2OxvHIiK75To9vehzZeXY2tls9rht&#xa;1fRwumgkhymVamcL7APq5zNy6RNkbRWOpK7aGhgnbwdHvMq3345Hz7Zfa+9b&#xa;Rf0dLpVU8r5Lxb4pKZZU+sulEXV79Cmo6FrD0fXzZSOG401vrb5I53WI6j6/&#xa;NdOlF7seAH3K23Ohu9G2rt1ZBV07+UkD0e1fvQx7ftFaLpcKqgobjT1FVSKr&#xa;ZoY5EV0aouOKdxw+w3Rrcdhtt7pU0FbB/VysT9HR5cr41TljPA5joe89u3n2&#xa;if8A86gfT6vpA2St9ZLSVe0VugqIXaJI3zoisXwwZdq2u2dvk25td7oKyZP+&#xa;HDO1zv8ABFyfEtj9mrRtN0+baU15oIq6CJ00jGSckXfIhf6adg7Bsds9R7Q7&#xa;PQfQ9xp6qNjNw9ya8gffzUXnamxbOviZd7rS0Czfq2zyI3VjwK7LV8902StN&#xa;fUt0z1VHDNIn/M5iKp8f6e6eKr262Jppma4ZpVjkZ4tWSMD6nS9IOyFZM2Gn&#xa;2mtUkjuTEqmZ/mdGfKdveibYmn2HutZBaYLdNS0z5o543OTQ5G8O8r0NbSrT&#xa;9DH0ne6nRS258rN9J6JnID6qD42vTvXy0z7nRbC3KpsTMotdrVE4ezQv8zu2&#xa;9INhXYH+t/WF+i0j1r5PlIudOjH72eGAOpNber7bNnLY+4XWsjpKVioiyP5Z&#xa;XknA+Xr043WK2svM2wNwjsbsYrN/3L36dHI3u3m1ezdX0UNv1TbG36zzuiVK&#xa;dz93nK/5KgHeUVZT3GghrKSVs1POxHxyM5K1U4KhYvV4pNn7JVXWuVzaalj3&#xa;kitblcJ7DmX7bWTZfortu0ElKtFb30sS01HHhV8pmWRt/kfOdq+lq437o7uk&#xa;dw2LuNrobhTqymrtW8jXPLOWoB9l2a2hodqrBBeLa57qSo1bvW3SvkuVq8Pu&#xa;NufMuiC50dk6BbZcrhK2ClpmVEkkju5EnkNQvTvXy0z7nRbC3KpsTMotdrVE&#xa;4ezQv8wPsgOIunSXbaToyXbSghdXUfkYi1aHcXoxUXnhUOUn6dKx1oS62vYe&#xa;5V1ujjR9RValjjj8UR2hc4A+xA+ZXrpIdeei116sFkrLjHXRzQSsjdh1Jhi5&#xa;c7CLyOd/o+7R3WWzpaZbRWT0SzSv+k1dmNHIjfIA+3mHcLlRWihkrLhVRUlN&#xa;FjXLK5Gtb3c1Mw+N9OdfNeK/Z/YWika2W7VLXzexiLhP8wPrFtuNDdqCOst1&#xa;VFVUsv1JYnI5q93BUMw+N9BVdNZ67aHYate1ZrRUudD7WKuF/wA8HSbd9KlJ&#xa;sJtFbrbV2yeqZWR695C9Ms4qmNHeB9AB8hXpyntl4podpdjblYaCqXEdVOq/&#xa;5t0odP0h9JNLsBR22ploHV0NfIrMxyo3QiIi55LkDtwfHa/p1qrY6KrrNhrr&#xa;TWSVcNrZfIynijFafV7ZcKa7WynuFFK2amqY2yxPT9pqplAMsAAAAAAAAAAA&#xa;ABzm3/m/vP2dfyPNTD0rt/5v7z9nX8jzUwC4hMghMCpUo0qAKKVKKBFSCk1I&#xa;KB2vQ95wIfs8p6APP/Q95wIfs8p6AAAAChpdq6PrmzFbDo1/o86cc8Ki/kbo&#xa;oqIrcKZZa81JiEaiekvi9tpWWpk9TPSsjpm4kRFZ3p3ofWbPcqa62uGspXao&#xa;pGIqez2fccltZa209sqWSO0xPZhj/DwQ+YW/a+6bIeRBrRXKuIntyx5819Et&#xa;k/kZMeaNWe/XgaZuEicc65f8PROEa32IfIOkXaN1TtGykt9Y5iUrNMm7fjy8&#xa;5x/gaiDpfvN0k6jUtipd6ulJIDQXS2SdchZRNfJUVMmI40blVd7D67ifpuTJ&#xa;i1MQ+C+p8ZfFaMGOP/vh9D6J6mqrblXPq9T3wRomte9XLn8j6oczsNs4/ZzZ&#xa;5kFQ7e1cv6SZ3tX9lPYnI6ZPA5MGGMNOWHq8LF4xRGSeqxX/AO7qj+6d/I80&#xa;7C7NrtR0B7TUcbM1FJW9bp/HWyJp6anh31LLDy3jFb7spg47oz6POzyzVdB9&#xa;JfSPWJt9r3O6xwRMY1L4G7qfJKjaZ3Sz/UTZRH6/+PdPezLP5NepvrUv/wCr&#xa;i5tRuGspkY1PBEp4zsNheiah2I2rut6gq9/1zLYYtzp6uxXalai5XJfpejda&#xa;bpbqduPpXVv26OqbhOH6NGfX1ezwA4S0PZs9/SqukdY7dsukSpTu7nq5rHY/&#xa;I+tbaXSns+xN4rKh7WRxUkn3qrVRqfevA1O33RpadvKaF1S+Sjr6b9TVwfXZ&#xa;7Pahx3Ybdrq+KHabby43eghXKU+lzc/e57gMLoWulJsT0OVt+u7nR0ctcr/I&#xa;YrlxhkafyN5cOinYXpEt0N+tkclvdWs3sdRSfo9XtczGP5H0B2zdpfsyuz60&#xa;Uf0WsO46v+zo8D5pH0KXqzOfBstt7crTb3rnq6tV+j3KjkAwuiy+3yydJVy2&#xa;Au1xddaekjV9PO/m3GFwWeh7z27efaJ//Op3GwHRdQbET1NwfWT3O7Vf6+rn&#xa;5r7kKbHdG39Vdtb9tD9KdaW8Pe/cbnQkWp+vnqXP+AHyS0bOXbabpy2vpbRt&#xa;HU2CaOWaR88DVVXt3qJp4OQ7uDoKdcLjBU7V7X3HaKOD6kEzVa3/ADe46LZj&#xa;o4/q70h3van6U6z9La/7PuNO61PR/wBbUueXgh3QFuONkMSRxtRjGphETgiI&#xa;h8J/pBUzqzbHY2lZO6nWaR0aSM5sy+NMofejhNuujf8ArntDY7ol06mtpk3i&#xa;R9X17zykdjOpMcgPkPSlsDd9kbfbq+4bR3XaK0LUo2qhnlcmhO79pTs+lplv&#xa;i/o/0ybOsbHaXvp92kfolPqO0dhpNp9nayz1qfoKuNY1VObV7lT2opzWyfRs&#xa;yx7DVOyl2uSXq3TakRFp9zpavNv1lA4nZqg6Ua3YG3U1rn2ZdZ56JscTHxvz&#xa;u1bjCmRZejpth6HLpsxtjeqCggraveQ1STIjI1wxW8X6e9nIvU3QptBaoX0F&#xa;k6Q7hb7U5VVKdsSroz4Kj0Oui6MbInR5/U+Z09RRLld5I/MiP56kUD57L2id&#xa;H+yWiaKy7VbMUsKJ4Lucf5/yL3SFebXf/wCjmy5WehZb6WaaPTTsYjEjcj8O&#xa;TDeHiZ/YztI+1/QkvSHWPseEj6t1fju05Mzq5HT37oxorl0aR7GW6q+jqWJW&#xa;K2Xdb1Uw7UvDKcVA+U9KWOyHo4R/+ybmLe+7dMwfW+lFIeyC+pFp3PU/Ixyx&#xa;wwTuHR3b7x0b0WyNxndJFR08UUdQ1qI5rmN0o9E5HGs6DrvUWdbRdNvK6str&#xa;I1ZT026VrWKn1FVFeuceAHJXBZU/oi2vdclqlST/AKd/IdDs1QdKNbsDbqa1&#xa;z7Mus89E2OJj4353atxhTv8AZzo+o7T0bM2OuMrblSaHxyO3W71o5yu5ZXGM&#xa;nHU3QptBaoX0Fk6Q7hb7U5VVKdsSroz4Kj0A527bHXTYj+jlfrbdZoJHPrI5&#xa;olgVXNRqvjT8j6NsyxP/AKf6RvctkX/xKUrui2mk6LX7FUVynghe5r+szN3z&#xa;8o9Hrwyngb+2bM/R+wEOzXWt5uqLqe/0Y/Z06tP5AfL+hvzAbRf9dX/4Wm6/&#xa;o5+a5/26X+TTotguj2PYzYyq2emr/pGGqlkkc/dbrg9qNVuMr4Gm2B6K7lsL&#xa;fXSU+0889lXUqUDmYTUqYRV9wH008xUu2Nxr+mm5bX27Zm4bSU1JqpqZKZjs&#xa;RpjSi5axx6MvlvnudiraClq+pS1ELomz6NW7ymMomU5Gi6ONhIOj/Zt1rjqu&#xa;uSSSulkn3ejWq+zK8gPiE+2Vwt/TTbdr7hszX7OU9XppallUxyJImNKuRXMb&#xa;yOv6UvP3sH/eRf8AmO/6Rdg4ekDZtlrkqupyRStljn3W80Knsyh8l6Tdn3y9&#xa;ImwWz9fXyzvdTxUslXGm6ev6TTqTnhwHbf0hkpuy16zfrEqotz/154HCdK29&#xa;7LejjrH6zcx6/wAJh2D+hC4Xe7U0m0+2lde7dSP1x0srNOfeupTWf0kYY/or&#xa;ZqBEwzrL2oie5oHedLnVuyi/dZ06Or+T/wBWU0/54MToP3vY9ZN7/wDdx7t6&#xa;/Bzlf0IXa57q3123VyqbHCqK2lkbl2E7sn1i2W6ltFsprfRxNhpqWNsUTE/Z&#xa;aiYQDLAAAAAAAAAAAAAc5t/5v7z9nX8jzUw9K7f+b+8/Z1/I81MAuITIITAq&#xa;0qUaVAFFKlFAipBSakFA7Xoe84EP2eU9AHn/AKHvOBD9nlPQAAAAAABi1lHB&#xa;W0zoKiNskbuaLyPn+0nRHTXd8clHXOpFizhrm6m8T6RjuHcZ+HTni+usNceb&#xa;JSJrWej45RdBk0Vwjqam8s3cb0dojg54PpNn2Wt1nckkMWuZExvZOLseCeBu&#xa;0B1Wz5LxqZctsVLX55jqqADFqAAAAAAAAAAAAAAAAAAAAAAAAAAAAAAAAAAA&#xa;AAAAAGguuxljvV/oLzX0e+uFuVFppdbk3eF1JwRcLx9hvwANDtJsZYtro6Zl&#xa;6o+tJSv3kSb1zML/APFUN8AAAAAAAAAAAAAAAAAOc2/8395+zr+R5qYeldv/&#xa;ADf3n7Ov5HmpgFxCZBCYFWlSjSoAopUooEVIKTUgoHa9D3nAh+zynoA8/wDQ&#xa;95wIfs8p6AAAAAAaKv2npLdtbatnnxyrVXRkskT0TyWpG3K5A3oAAAGvr7zb&#xa;7ZU0dNV1TIZq6Tc07Hc5HeCAbAAAAcRQdIDqzZbam8/Run+r1TU0263367ct&#xa;RyrnT5OfcbKDax0uzmz90S1Vky3rcfo6Zm96vvGatT14eQneoHSgAAAAAAAA&#xa;AAAAAAAAAAAAAAAAAAAAAAAAAAAAAAAAAAAAAAAAAAAAAAAAADnNv/N/efs6&#xa;/keamHpXb/zf3n7Ov5HmpgFxCZBCYFWlSjSoAopUooEVIKTUgoHa9D3nAh+z&#xa;ynoA8/8AQ95wIfs8p6AAAAAfO9pvPrsR9mrf/GfRDir7YbhVdK+y15gp0fQ0&#xa;ENUyok1ImhXsw3gBoKGmve1W3+19vk2luNutdvqIUjjpHoyXLo88Hqi6WmZs&#xa;Pd75HQbX2qWqfeK6w1MkdJJL9ebLFdG13+SG12SsVxtu3G2Fwq4Ejp7lPBJT&#xa;P1IuprWK1eXIw9ntm75Q3XbeZu7oJLrVbyhqPJkT6mEcrfyUDjbDXV1+tcE9&#xa;F0iVcG2KqiyW2vkSKna/vjWDT/I2XSVYJ6nbXY6SS73GB9ZXbtY4J0RtO5GJ&#xa;l0eW8Cm0dt2w2t2a+grpsTS/Sio2P6YWqi3TFTnKxE8tPdg323FgvSw7K19r&#xa;pXXaosNS2SWHeNjdOmhGqqK7hkC/tsk9ut9qp59rm2O0xJu6uqfJirnVG4aj&#xa;HYxlearg0Ww20uOkqTZ+g2lq9oLTNQLVRvq/KkgkR+lW61aiqmDP2ote0U+0&#xa;uzm11FYm176KmdHNan1DGvhc9Ey5jl8lXJyIWeg2sr+lim2mu9jit1D9GPo0&#xa;YyobK6Py9aa8fkBo7H5qulT/APs7p/42mdVXSutfR90WpQ1T6ZKyrtlNNp4a&#xa;4nRcWKZVq2RvVNsDt9bZKJqVV3rq6akZvGrrZKxEZx5ISumyt6qNjujuiio0&#xa;WpstbQS1qa2pu2RMw/3/AHAVun05eemKrsFLf6u221lrjqZG0+NedenyFVFR&#xa;qr7i7sfWXKybf3/Ziuu9XdaGjpYqyGWrdrlYi82q7hk2tLZLjH0y1t8fT4t0&#xa;tojpWS6k/WJJqVMc+RCg2er4+lu93ial/wDTay3xU8cmtvFyc0xzTgBz+x9v&#xa;2h25sX9a59qbnbJK18j6KkpXNSCBiOVrUexUXXyN90RXW4Xjo9gq7pVOqqpa&#xa;iZj5F78SKhpNm4NtNhra/Zqj2eiutFTSP6jXurGRsSNXK7EiL5WU9hb6L6y7&#xa;UPQfBVWi3x3S4b+ZY4FlSJsmZlRfKXgB9XBpEuF5/rLFS/RDPoxaXePq98mW&#xa;y+j0/mXdnKy611ljnvVrbbK5yqjqdkqSo1EXh5ScANsAAAAAAAAAAAAAAAAA&#xa;AAAAAAAAAAAAAAAAAAAAAAAAAAAAAAAAAOc2/wDN/efs6/keamHpXb/zf3n7&#xa;Ov5HmpgFxCZBCYFWlSjSoAopUooEVIKTUgoHa9D3nAh+zynoA8/9D3nAh+zy&#xa;noAAAAAAAAAAAAAAAAAAAAOHq+iu01ElSkN0vVFS1TnPmo6WtVkD1d9bycd5&#xa;1lrtlJZrZBb6CBtPS07EZHGzk1EMwAAAAAAAAAAAAAAAAAAAAAAAAAAAAAAA&#xa;AAAAAAAAAAAAAAAAAAAAAAAHObf+b+8/Z1/I81MPSu3/AJv7z9nX8jzUwC4h&#xa;MghMCrSpRpUAUUqUUCKkFJqQUDteh7zgQ/Z5T0Aef+h7zgQ/Z5T0AAAAEc4A&#xa;5Ip8N2t6QNp7ZtbX0VHct3BBJpY3cxrhPvaWrXm6Q5eI4mvD1i1ofcwece1D&#xa;bD1z8PF8o7UNsPXPw8Xyl/Clweb4vbL0cDzj2obYeufh4vlHahth65+Hi+Ue&#xa;FJ5vi9svRwPOPahth65+Hi+UdqG2Hrn4eL5R4Unm+L2y9HA849qG2Hrn4eL5&#xa;R2obYeufh4vlHhSeb4vbL0cDzj2obYeufh4vlHahth65+Hi+UeFJ5vi9svRw&#xa;POPahth65+Hi+UdqG2Hrn4eL5R4Unm+L2y9HA849qG2Hrn4eL5R2obYeufh4&#xa;vlHhSeb4vbL0cDzj2obYeufh4vlHahth65+Hi+UeFJ5vi9svRwPOPahth65+&#xa;Hi+UdqG2Hrn4eL5R4Unm+L2y9HA849qG2Hrn4eL5R2obYeufh4vlHhSeb4vb&#xa;L0cDzj2obYeufh4vlHahth65+Hi+UeFJ5vi9svRwPOPahth65+Hi+UdqG2Hr&#xa;n4eL5R4Unm+L2y9HA849qG2Hrn4eL5R2obYeufh4vlHhSeb4vbL0cDzj2obY&#xa;eufh4vlHahth65+Hi+UeFJ5vi9svRwPOPahth65+Hi+UdqG2Hrn4eL5R4Unm&#xa;+L2y9HA849qG2Hrn4eL5R2obYeufh4vlHhSeb4vbL0cDzj2obYeufh4vlHah&#xa;th65+Hi+UeFJ5vi9svRwPOPahth65+Hi+UdqG2Hrn4eL5R4Unm2L2y9G8+JU&#xa;4TY3aG53TZSkrauq3k8mvK6Goi4cqdyG9+kqv0v+lpnMa6PVx3i9YtHq34NB&#xa;9JVfpf8AS0fSVX6X/S0ho34NB9JVfpf9LR9JVfpf9LQN+DQfSVX6X/S0fSVX&#xa;6X/S0Dfg0H0lV+l/0tH0lV+l/wBLQN+DQfSVX6X/AEtH0lV+l/0tA34MWgnf&#xa;PSo+TnnBlAAABzm3/m/vP2dfyPNTD0rt/wCb+8/Z1/I81MAuITIITAq0qUaV&#xa;AFFKlFAipBSakFA7Xoe84EP2eU9AHn/oe84EP2eU9AAAAAI6U/dJAGkdDfBB&#xa;ob4ISwME7V5YR0N8EGhvghLAwNnLCOhvgg0N8EJYGBs5YR0N8EGhvghLAwNn&#xa;LCOhvgg0N8EJYGBs5YR0N8EGhvghLAwNnLCOhvgg0N8EJYGBs5YR0N8EGhvg&#xa;hLAwNnLCOhvgg0N8EJYGBs5YR0N8EGhvghLAwNnLCOhvgg0N8EJYGBs5YR0N&#xa;8EGhvghLAwNnLCOhvgg0N8EJYGBs5YR0N8EGhvghLAwNnLCOhvgg0N8EJYGB&#xa;s5YR0N8EGhvghLAwNnLCOhvgg0N8EJYGBs5YR0N8EGhvghLAwRs5YMYAAWAA&#xa;AAAAAAAAAAAAAAAABzm3/m/vP2dfyPNTD0rt/wCb+8/Z1/I81MAuITIITAq0&#xa;qUaVAFFKlFAipBSakFA7Xoe84EP2eU9AHn/oe84EP2eU9AAAAAAAAAAAAAAA&#xa;AAAAAAAAAAAAAAAAAAAAAAAAAAAAAAAAAAAAAAAAAAAAAAAAAAAAAAAAAAAA&#xa;ABzm3/m/vP2dfyPNTD0rt/5v7z9nX8jzUwC4hMghMCrSpRpUAUUqUUCKkFJq&#xa;QUDteh7zgQ/Z5T0Aef8Aoe84EP2eU9AAAAAAAAAAAAAAAAAAAAAAAAAAAAAA&#xa;AAAAAAAAAAAAAAAAAAAAAAAAAAAAAAAAAAAAAAAAAAAAAABzm3/m/vP2dfyP&#xa;NTD0rt/5v7z9nX8jzUwC4hMghMCrSpRpUAUUqUUCKkFJqQUDteh7zgQ/Z5T0&#xa;Aef+h7zgQ/Z5T0AAAAAAAAAAAAAAAAAAAAAAAAAAAAAAAAAAAAAAAAAAAAAA&#xa;AAAAAAAAAAAAAGQAAAAAABlPEZAApwKgAAAAAHObf+b+8/Z1/I81MPSu3/m/&#xa;vP2dfyPNTALiEyCEwKtKlGlQBRSpRQIqQUmpBQO16HvOBD9nlPQB5/6HvOBD&#xa;9nlPQAAAAAAAAAAAAAAAAAAAAAAAAAAAAAAAAAAAAAAAAAAAAAAAAAAAAAAA&#xa;AAHGbeXmuoWWy1WyXcVd2qUhbN6JqYyphT7N7Q2CopK2y3a5XZ28RKmmrahr&#xa;mvZ3q3VjSpe6RaOpjkst8pqd9S201W9ljjbl27XCLj3YI1PSJDcZ6Sh2VRtx&#xa;rJpGpJrjejIY+9zuCGkdo0828x4lovOu2v8Axf6QrlWRW+htFqndBcLpOkUc&#xa;jXYWNqcXOynghmbB3mW87KROqlVaynVaeo1c9beC5OUmju21fSRXVloqoKdl&#xa;lb1Vj5otSa1zrwXtmG1+zHSHV2q6TxTLeIlq2PjbpbvEVdSInuJ1GtM4yW8X&#xa;n/t7fDA6Mtr7g2oZQXqolnhuDndUnmerl1pzjybWy7R1VFXbbVVVPLUw26TM&#xa;UbncGomvDW+HcajY/ZxNo+i5YI5N3WQVL5aaXksciYwW9iKWs2ioNtaapY2G&#xa;uq9McicsSYeTMQwx2yxFa/66/wAdm5tOzl7v+z0d5m2luUFwqo97FHDLogZn&#xa;i1FZgxNpq6/R2LZqK6VU9pq6msSCrfTzo3yeWrLVwZNh6QLdZNloLZcGywXW&#xa;ii3PVFhdrerUw3HDvNftnXT1Vh2Wq9oqaKm1VyPqYkYuGM8McV5CN7aWtWMW&#xa;6z106axWSjhukU9Ptfcbi+JFVYJK1srXJjHFqIOjatqq6hu76uqlqHR3GWOP&#xa;eOzpYiNwiGPs5fNgPpeOCyJTR1syLG3d0zmKveqZVqGi2I2xsWzkN3prpWbi&#xa;Z1wlkREie7yV0onFqKRqZheuStLVnca6+r60DAtF0pL1bYq+il3lPLnQ/Cpn&#xa;C45L7jPMnqxMTG4VAAS5zb/zf3n7Ov5Hmph6V2/8395+zr+R5qYBcQmQQmBV&#xa;pUo0qAKKVKKBFSCk1IKB2vQ95wIfs8p6APP/AEPecCH7PKegAAAAAAAAAAAA&#xa;AAAAAAAAAAAAAAAAAAAAAAAAAAAAAAAAAAAAAAAAAAAAABFGNbyaiFQEaMJ4&#xa;DCeBUBKmEGlPAqAIbtqqi4ThyK6UJYGArqEdKeA0p4EsDANQAALAAA5zb/zf&#xa;3n7Ov5Hmph6V2/8AN/efs6/keamAXEJkEJgVaVKNKgCilSgEVIKTUgoHa9D3&#xa;nAh+zynoA8/9D3nAh+zynoAAAAAAAAAAAAAAAAAAAAAAAAAAAAAAAAAAAAAA&#xa;AAAAAAAAAAAAAAAAAAAAAAAAAAAAAAAAAAAAAAOc2/8AN/efs6/keamHpTpA&#xa;8395+zr+R5rYBcQmQQmBVpUoVAFCpQCKkVJKRUCdFX1drrY6yimdBPF9V7O4&#xa;6LtV2z9c/DxfIcsqEVQDqu1bbT1z8LF8hTtW219c/CxfIcpoKaQOs7VttfXP&#xa;wsXyDtW219c/CxfIcnpGkDrO1bbX1z8LF8g7VttfXPwsXyHJ6RpA6ztW219c&#xa;/CxfIO1bbX1z8LF8hyekaQOs7VttfXPwsXyDtW219c/CxfIcnpGkDrO1bbX1&#xa;z8LF8g7VttfXPwsXyHJ6RpA6ztW219c/CxfIO1bbX1z8LF8hyekaQOs7Vttf&#xa;XPwsXyDtW219c/CxfIcnpGkDrO1bbX1z8LF8g7VttfXPwsXyHJ6RpA6ztW21&#xa;9c/CxfIO1bbX1z8LF8hyekaQOs7VttfXPwsXyDtW219c/CxfIcnpGkDrO1bb&#xa;X1z8LF8g7VttfXPwsXyHJ6RpA6ztW219c/CxfIO1bbX1z8LF8hyekaQOs7Vt&#xa;tfXPwsXyDtW219c/CxfIcnpGkDrO1bbX1z8LF8g7VttfXPwsXyHJ6RpA6ztW&#xa;219c/CxfIO1bbX1z8LF8hyekaQOs7VttfXPwsXyDtW219c/CxfIcnpGkDrO1&#xa;bbX1z8LF8g7VttfXPwsXyHJ6RpA6ztW219c/CxfIO1bbX1z8LF8hyekaQOs7&#xa;VttfXPwsXyDtW219c/CxfIcnpGkDrO1bbX1z8LF8g7VttfXPwsXyHJ6RpA6z&#xa;tW219c/CxfIO1bbX1z8LF8hyekaQOs7VttfXPwsXyDtW219c/CxfIcnpGkDr&#xa;O1bbX1z8LF8g7VttfXPwsXyHJ6RpA6ztW219c/CxfIO1bbX1z8LF8hyekaQO&#xa;s7VttfXPwsXyDtW219c/CxfIcnpGkDrO1bbX1z8LF8g7VttfXPwsXyHJ6RpA&#xa;6ztW219c/CxfIV7VttPXPwsXyHJaSuAOguu3e0l9oXUdxuTpoFwqsSJjM48d&#xa;KIaNhFEJtAmhMi0kBUqUKgChUARIqSAFtUI4LmCmALeBguYGALeBguYGALeB&#xa;guYGALeBguYGALeBguYGALeBguYGALeBguYGALeBguYGALeBguYGALeBguYG&#xa;ALeBguYGALeBguYGALeBguYGALeBguYGALeBguYGALeBguYGALeBguYGALeB&#xa;guYGALeBguYGALeBguYGALeBguYGALeBguYGALeBguYGALeBguYGALeBguYG&#xa;ALeBguYGALeBguYGALeBguYGAIYJNQrglgAhUACpUAAAAKFCQAiCoAoCoAoC&#xa;oAoCoAoCoAoCoAoCoAoCoAoCoAoCoAoCoAoCoAoCoAoCoAoCoAoCoAoCoAoC&#xa;oAoCoAoCoAoCoAoCoAoCoAoCoAoCoAoCoAoCoAoCoAoCoAoCoAoVKgAAAAAA&#xa;AAAAAAAAAAAAAAAAAAAAAAAAAAAAAAAAAAAAAAAAAAAAAAAAAAAAAAAAAAAA&#xa;AAAAAAAAAAAAAAAAAAAAAAAAAAAAAAAAAAAAAAAAAAAAAAAAAAAAAAAAAAAA&#xa;AAAAAAAAAAAAAAAAAAAAAAAAAAAAAAAAAAAAAAAAAAAAAAAAAAAAAAAAAAAA&#xa;AAAAAAAAAAAAAAAAAAAAAAAAAAAAAAAAAAAAAAAAAAAAAAAAAAAAAAAAAAAA&#xa;AAAAAAAAAAAAAAAAAAAAAAAAAAAAAAAAAAAAAAAAAAAAAAAAAAAAAAAAAAAA&#xa;AAAAAAAAAAAAAAAAAAAAAAAAAAAAAAAAAAAAAAAAAAAAAAAAAAAAAAAAAAAA&#xa;AAAAAAAAAAAAAAAAAAAAAAAAAAAAAAAAAAAAAAAAAAAAAAAAAAAAAAAAAAAA&#xa;AAAAAAAAAAAAAAAAAAAAAAAAAAAAAAAAAAAAAAAAAAAAAAAAAAAAAAAAAAAA&#xa;AAAAAAAAAAAAAAAAAAAAAAAAAAAAAAAAAAAAAAAAAAAAAAAAAAAAAAAAAAAA&#xa;AAAAAAAAAAAAAAAAAAAAAAAAAAAAAAAAAAAAAAAAAAAAAAAAAAAAAAAAAAAA&#xa;AAAAAAAAAAAAAAAAAAAAAAAAAAAAAAAAAAAAAAAAAAAAAAAAAAAAAAAAAAAA&#xa;AAAAAAAAAAAAAAAAAAAAAAAAAAAAAAAAAAAAAAAAAAAAAAAAAAAAAAAAAAAA&#xa;AAAAAAAAAAAAAAAAAAAAAAAAAAAAAAAAAAAAAAAAAAAAAAAAAAAAAAAAAAAA&#xa;AAAAAAAAAAAAAAAAAAAAAAAAAAAAAAAAAAAAAAAAAAAAAAAAAAAAAAAAAAAA&#xa;AAAAAAAAAAAAAAAAAAAAAAAAAAAAAAAAAAAAAAAAAAAAAAAAAAAAAAAAAAAA&#xa;AAAAAAAAAAAAAAAAAAAAAAAAAAAAAAAAAAAAAAAAAAAAAAAAAAAAAAAAAAAA&#xa;AAAAAAAAAAAAAAAAAAAAAAAAAAAAAAAAAAAAAAAAAAAAAAAAAAAAAAAAAAAA&#xa;AAAAAAAAAAAAAAAAAAAAAAAAAAAAAAAAAAAAAAAAAAAAAAAAAAAAAAAAAAAA&#xa;AAAAAAAAAAAAAAAAAAAAAAAAAAAAAAAAAAAAAAAAAAAAAAAAAAAAAAAAAAAA&#xa;AAAAAAAAAAAAAAAAAAAAAAAAAAAAAAAAAAAAAAAAAAAAAAAAAAAAAAAAAAAA&#xa;AAAAAAAAAAAAAAAAAAAAAAAAAAAAAAAAAAAAAAAAAAAAAAAAAAAAAAAAAAAA&#xa;AAAAAAAAAAAAAAAAAAAAAAAAAAAAAAAAAAAAAAAAAAAAAAAAAAAAAAAAAAAA&#xa;AAAAAAAAAAAAAAAAAAAAAAAAAAAAAAAAAAAAAAAAAAAAAAAAAAAAAAAAAAAA&#xa;AAAAAAAAAAAAAAAAAAAAAAAAAAAAAAAAAAAAAAAAAAAAAAAAAAAAAAAAAAAA&#xa;AAAAAAAAAAAAAAAAAAAAAAAAAAAAAAAAAAAAAAAAAAAAAAAAAAAAAAAAAAAA&#xa;AAAAAAAAAAAAAAAAAAAAAAAAAAAAAAAAAAAAAAAAAAAAAAAAAAAAAAAAAAAA&#xa;AAAAAAAAAAAAAAAAAAAAAAAAAAAAAAAAAAAAAAAAAAAAAAAAAAAAAAAAAAAA&#xa;AAAAAAAAAAAAAAAAAAAAAAAAAAAAAAAAAAAAAAAAAAAAAAAAAAAAAAAAAAAA&#xa;AAAAAAAAAAAAAAAAAAAAAAAAAAAAAAAAAAAAAAAAAAAAAAAAAAAAAAAAAAAA&#xa;AAAAAAAAAAAAAAAAAAAAAAAAAAAAAAAAAAAAAAAAAAAAAAAAAAAAAAAAAAAA&#xa;AAAAAAAAAAAAAAAAAAAAAAAAAAAAAAAAAAAAAAAAAAAAAAAAAAAAAAAAAAAA&#xa;AAAAAAAAAAAAAAAAAAAAAAAAAAAAAAAAAAAAAAAAAAAAAAAAAAAAAAAAAAAA&#xa;AAAAAAAAAAAAAAAAAAAAAAAAAAAAAAAAAAAAAAAAAAAAAAAAAAAAAAAAAAAA&#xa;AAAAAAAAAAAAAAAAAAAAAAAAAAAAAAAAAAAAAAAAAAAAAAAAAAAAAAAAAAAA&#xa;AAAAAAAAAAAAAAAAAAAAAAAAAAAAAAAAAAAAAAAAAAAAAAAAAAAAAAAAAAAA&#xa;AAAAAnFMsPJsa5/fbku9bf6KD8JAMcF59Q6RmhWRJ7UYiKWQAAAAAAAAAAAA&#xa;AAAAAMikwivk0tVY41emfEddqvTuAxwZcU8lQySOZ2tEjV6Z5oqGIAAAAAAA&#xa;AAAAAAAAAABOKJ8r9EbcqXtMFP8AW/TSfuJ9VPeoFjS7TnTw8SJmQ1EsqyI7&#xa;gzdOwxOCJwMMAAAAAAAAAAAAAAAAAAAAAAAAAAAAAAAAAAAAAAAAAAALkU0k&#xa;P6tzUz4tRf5lzrtT+9H+E0tRTyw/q36M88FzrtV6dwFH1U0jNDnNwv8AyIhZ&#xa;Lr6qeRmh0uUXuLQAAAAAAAAAAAAAAAAGRSJls6JzWJTHJMc5r0czgqclL3Xa&#xa;j9+P+BoCkTjMvckSmOXX1U0rNDn8PBGon8i0AAAAAAAAAAAAAAAABdhm3Kuy&#xa;3Wx6YVORc6u2VuaZ2vxjXg5DGAGTSoqSSIvonfyMYyFrJlZhdKqqYyrfKwY4&#xa;AAAAAAAAAAAAAAAAAAAAAAAAAAAAAAAAAAAAAAAAAAAAAAAAAAAAAAAAAAAA&#xa;AAAAAAAAAAAAAAAAAAAAAAAAAAAAAAAAAAAAAAAAAAAAAAAAAAAAAAAAAAAA&#xa;AAAAAAAAAAAAAAAAAAAAAAAAAAAAAAAAAAAAAAAAAAAAAAAAAAAAAAAAAAAA&#xa;AAAAAAAAAAAAAAAAAAAAAAAf/9k=&#xa;;" vertex="1" parent="1">
          <mxGeometry x="300" y="140" width="205.85" height="446" as="geometry" />
        </mxCell>
        <mxCell id="Mn12eef7mgjaIkqNjSOi-13" value="" style="shape=image;verticalLabelPosition=bottom;labelBackgroundColor=default;verticalAlign=top;aspect=fixed;imageAspect=0;image=data:image/jpeg,/9j/4AAQSkZJRgABAQAAAQABAAD/2wBDAAcFBQYFBAcGBgYIBwcICxILCwoK&#xa;CxYPEA0SGhYbGhkWGRgcICgiHB4mHhgZIzAkJiorLS4tGyIyNTEsNSgsLSz/&#xa;2wBDAQcICAsJCxULCxUsHRkdLCwsLCwsLCwsLCwsLCwsLCwsLCwsLCwsLCws&#xa;LCwsLCwsLCwsLCwsLCwsLCwsLCwsLCz/wAARCASSAhwDASIAAhEBAxEB/8QA&#xa;HAABAAEFAQEAAAAAAAAAAAAAAAECAwQFBgcI/8QAUxAAAQMDAgMEBAkIBwcC&#xa;BAcAAAECAwQFEQYSEyExBxRBURciYXEVMjdTVXSTpNIjM0JSgZKxwQgWNXJz&#xa;kaEkNkNigrKzJTQYRWPRKDhEVHXC4f/EABoBAQADAQEBAAAAAAAAAAAAAAAB&#xa;AgMEBQb/xAAtEQEAAgIABQMEAgAHAAAAAAAAAQIDEQQSITFBBVFhEyIjMhSR&#xa;QnGBocHR8P/aAAwDAQACEQMRAD8A0IAAAAAAAAAAAAAAAAAAAAAAAAAAAAAA&#xa;AAAAAAAAAAAAAAAAAAAAAAAAAAAAAAAAAAAAAAAAAAAAAAAAAAAAAAAAAAAA&#xa;AAAAAAOi0rbqKpp7tV1tFJXMpKdqxwMe6NXvV7WpzaY1THQXC8QUsNG2wsVU&#xa;jk48rnIxV8VymUA0wNxb5bJb46la6lkudQkmyKNHrFDs8XKqc1XyQ3i6WtlV&#xa;dqGpj4tNbaigdcpod258TGZy1q+1U5KBxYOnmpLRetO3Cutludbqm3KxzoeO&#xa;srZInO2Z9bo5FOYAAG6odM1NXaaiq2vjmYkbqeFYnK6oRy4y09zhvS65cMZs&#xa;l+WJ+P8AR43EepziyzirXemlBVJFJBMsMrHRvjVWuY9uFYqclTC9FQpOLjuE&#xa;/iX5N7dnBcVHE4+bWgAHA7QAAAAAAAAAAAAAAAAAAAAAAAAAAAAAAAAAAAAA&#xa;AMy02591vFLb43tY+eRsaPVqqiZ8cIBhg66WGzWCw211XZorpVVKzK+TvT2t&#xa;TZIsaIzaqIqcijUGm6dtPJdLe1tLSpTUsy0+5XOY6VvRF67U81A5QA9BsFhs&#xa;8sTfg2zVGpahGIs00r+7UsSqmdvtVAPPgep1Fgp3UznVuion0zfjT2mt3Pj/&#xa;AOjPM88vNLb6S5PjtVY6rpMNVHqzaqZTO1U80A14Ol0ppqjvlNVTVVVLHw5I&#xa;6eNkDNyo9+Ua53/IiobGz6csbGT01zdGtZBKsMzZq5sDEciqn5PDXK73rtQD&#xa;iQZl1joobnNHb3SrTN5M4zmq72828l9imGABk0NFU3KsjpKKB088mcMY3nyT&#xa;JUkG2jn4jMSRqic+qLkDEBtrVaaWottTcK2olhp4ZGQ4giSR6uciqnJVTCJt&#xa;Eunqhup5LJG9r5I5FYsnRqNTmrneSInNQNSDq6bQ61V+uNtbWuxRTMp0ekSu&#xa;y5VVEVyZ9ViY5qc7XUM1ukjim2pI6NsisR2VYi80R3twBjA6q06Rq6vRtbeG&#xa;Uc9TJI5sNLHCzcvX134TwREwcxNDLT1D4JonRyR5RY3tVrkVPBUUCgAAAAAA&#xa;AAAAdBpeK8y01dHY7i2mnVGosCSpHJM3P6CrjobPUnBlbYKO+V//AKhGj211&#xa;RHiZ0cauTYjlb1ciHGADrNJ6ZhuTqqvk21NFSOVsVPvbE6qf4Iu5U2t81M+m&#xa;mr4tU1LL+6CiW60MtHGqPYscKK3DETaqo1qKhwgA69LdNpjSl4S5cKOquCR0&#xa;1PCj2ucrUcjnO9VVw3kcgAAU7Gz6nZDp+d9SsS11A2FlI18r04jUcuEwnkcc&#xa;D6Hh/UMH8euHNE9PZ4PE8BmtmnLimOv/AEuVE8tXUyVE68SSZyucvtVcqWwD&#xa;i9R4unFZItjjURGnb6fwtuGx8t56gAPLeiAAAAAAAAAAAAAAAAAAAAAAAAAA&#xa;AAAAAAAAAAABstO1lPQakoaypc5sEMzZH4aqrhFz0RUNaAO5ulouOptPWiqt&#xa;NHPVsRanfjG6NVmc5EdguanroaKzz2Sp3JW9yoE2dWscxuHtXHRxwQAG6sd7&#xa;go/9mucVTXW1MyJSMnWNj5PBXYNKAO7v9ZFYp2QtsPwHdsMkhmoatdrmL1Rx&#xa;rdb29lDPSYtLLYr2LhGVSTcZiLhr19/n4nMvkfIuZHb1wiZV2eSEOc52NznL&#xa;hERM+SAbXTd/m09c+8s3OhlbwaiNjlar2L1RFTovkp1lj0pTTsqqq2Xupnp6&#xa;5O7IlLEjpI2O68dq9GnnhXHI+Ncxu2KqKi4djkoF64Ua265T0ayxTLDIse+F&#xa;2WrheqKbGHTrpdFzag71hIqru3A2dfVaucmlK+LJweFvdw15qzdyz54A9Ns9&#xa;ho7D2racho+JsnoVqHb3Z9ZY5EU4W4fnrp9YX/vNd3qfiMk47+I1MMXcuURP&#xa;BFLeV/zA6bTtw7rZZ4KK6RWq4vma9ZpMt3xInxUciLjCl2q1FaIbld0joJKq&#xa;Ou2sWeGXgKqIiK/CK1cI53M5MAdRebzbV11WXGmY+SlVzlwj8pM7wz09RV6o&#xa;WtT3O1XKmglpm5q3P3yrsVrubEyjl/SVXZXJzgA9Ts/aJU0egqqV9PR0ywq2&#xa;koGQI5NztvrKu5V6Hl73vlkdJI7e9+VVV5qqqFlesKRK78mzKozwRV6qUAAA&#xa;AAAAAAAAAAAAAAAAAAAAAAAAAAAAAAAAAAAAAAAAAAAAAAAAAAAAAAAAAAAA&#xa;AAAAAAAAAAAAAAAAAAAAAAAAAAAAAAAAAAAAAAAAAAAAAAAAAAAAAAAAAAAA&#xa;AAAAAAAAAAAAAAAAAAAAAAAAAAAAAAAAAAAAAAAAAAAAAAAAAAAAAAAAAAAA&#xa;AAAAAAAAAAAFVEblS3FKsq5RvqeC+ZWbRExCdeVwAFkAAAAGq1BfWWKjZMsX&#xa;GfI/a1m7aBtQY9DWR11BBVR/Elajk9mfA0UeqLjVVVTFRWTvKU0ixq9KhE6L&#xa;7UA6UGptF/Zc55qSWnfRVcKZWKTy80UiyX5l0oKqplibTMp5FjVVflMImc9E&#xa;A24NTZr3JeXzSR0fDomrsZM9/N6+xuDbAAAAAAAAAAAAAAAAAAAAAAAAAAAA&#xa;AAAAAAAAAAAAAAAAAAAAsOc+WThx+oxvVSlrcqYhfBY7qnhLIjvPcVQyOy6O&#xa;T46f6oVi8xOrRpPLHhdABqqAAAAFXDXKABjJPLtZIu3Y/ljxMkzpki3ZM10A&#xa;A0QAAAAAAAAxKtX8RibW8P8AipcRaj5pn7xec1HNwrcopRC18XqLzYnxF8Tl&#xa;nHMX3vu05umlO+f5pv7xcjVys9ZrUUqBvSmvKkz8AALoDjq+uoazWqR1s8TK&#xa;WgjVPyjuTnr1Owdu2O2Nbvxyz0yaCy6ZipaaZ11gpqyqmkWRXq1JE5+W5AMb&#xa;RNaxI6y1slbKlNIqxOTmjmKprrFcqm33K7pT22WuR9SueH4YVTe/ADqTUsFw&#xa;tzKaCn4fDmjRNv7UREK7BZ6i11NxkmfEqVMyyR7HKuEyvXKIBi2egrqrUc16&#xa;rqXumY+HHFuy73qcbFJXOtVXDHFI63R1HFqFZy64TB6saTTljltdBVU9XwpE&#xa;mlV+GZVNqoiYXKIBsba6lfbYHULWtpVam1E8EMo0djs9XZaqpgZLHJbZFV0b&#xa;Fcu5im8AAAAAAAAAAAAAAAAAAAAAAAAAAAAAAAAAAAAAAAAAAAAAABYpfiyJ&#xa;4o9cl8tPhVX8SN2H/wCimV4mJi0eFq9tLpY61qY8GcxmpXltjT2lKI6lflfX&#xa;Y7qviimV77106LVrpkgA6mYAAAAX4oGOyOn43LbvTw3GQYbIX7WR8JqKxcq8&#xa;zDnwT0/XS9gAHQoAAAAAAAAAAAAAAAAAAAAAAAAAAAAAAAAAAAAAAAAAAAAA&#xa;AAAAAAAAAAAAAAAAAAAAAAAAAAAAAAAAAAAAAAAAAAAAAAAAAAAAAAAAAAAA&#xa;AAAAAAAAAAAAAAAAAAAAAAAAAAAAAAAAAAAAAAAAAAAAAAAAAAAAAAAAAAAA&#xa;AAAAAAAAAAAAAAAAAAAAAAAAAAAAAAAAAAAAAAAAAAAAAAAAAAAAFDpY2PRj&#xa;ntR7+iK7moFYKEljc90aPar06ojuaFYAAodLHGqI57UV3JiK7GVArAAAAAAA&#xa;AAAAAAAAAAAAAAAAAAAAEb24z6pJG4AAEgAiovQAAAAAAAAAAAAAAAAAAAAA&#xa;AAAAAAAAAAAADz+O71Vr1fcKl299E2fhzJuyiIqrg9AOQstJDW3zUtNM3Mcj&#xa;0T/VwF/UU7v6xae4b/ycki9HclTLTZXLUNPbqpKNkE9VVKm7hwMyqJ5qcczv&#xa;VNqW02mq5rQ1GI3+bFVFQ3tumiodcXRK2SONZmtWJXuwit8kVQNnS6jp6yin&#xa;lhp6l08GEkpdn5RFVcdDX6QvVZcGTR1TJ5VSRVSZWIjERET1Mp4lNqcyr17c&#xa;Kml9embCkbns6K7kRoSWNLdWQq9vE7y5dnjjCAZ2sZHx6UqnMdsVFZ0/voFv&#xa;tPZ7Ja3VTXqk8TGZTw9VOalOtf8AdGs97P8AvQ1N6/s7S3+JF/BoG5pdU089&#xa;xjopqOqpFm/NLOzailyv1BDSV3cYKWprahibnsgZnYntNfqn+39P/WV/iwt1&#xa;cNPNqOqfb7o63XFiNSVJGIrHpjwyBmzaljnsM9XRQVL5GZjViM9aF2FXLk8k&#xa;Lem77JUWJ09e2VvBRXuqJEwx6bl+LjyLFruElfZLxHLFBxIUfGssCYbKu1eZ&#xa;Zs1xZRdnfEjSOeSFrlWN3PGZFxlAM1usaVEjlloqyGkkXDKh7PULN+VF1jYf&#xa;+o0l5mlm0pHNPe45lm2qlJGxiI32cufI2tz/AN4tNf3P5IBfs3+/F79zS+/W&#xa;NIivdDR1k9LEuH1EbPUQ1sEb5dR6mjg/OPp8M96tMGxsln08sP8AWOChhTc2&#xa;SnfAzLUXrzVUVcgdfXX6hoLZHXufvhlxw0Y3m/PkcxeLulyu9jatHU0j2VTV&#xa;2Ts25RVbzQoraeK20WnJO8JVUMEzlWTbhMK5HIZupaylqr5YWwTxyKlU3Oxy&#xa;LhFc0DrgAAAAAAAAAAAAAAADGjVfhCT3GSYsX9oSe45s3henlV3xq9GOXBcb&#xa;OxYeL4Fqh6P/AL5ah2dyfxOmTGMt9RO+8L8te0L6VbcpljmIvRVKJKh6VSIj&#xa;XY8tvUoVzoWs9dszF6IvUuSqiV8aryTBSb2mNb9kxWI8Lj52tVGI3L1TogZM&#xa;2Vj8NwqdUUtvkVarho9saInXzLdP+fn9bfy6l5zTza8I5Y0p/wDlv7TKdM2G&#xa;NmdyqqJhEMX/AOW/tKpspPCu7YmOplW80jce0LTWJ6MiKdsj9it2P8lKVq2o&#xa;/CNc/HVUaUMjzUoq1DXvROm0ijkbFE9HOaioq5ya/VvOonory18KqD8y73mS&#xa;Y1B+Zd7zJN8H6Qpb9gAHQoAAAAAAAAAAAAAAAAAAAAAAAAAAAAABjwUFLSzz&#xa;TQxNZJNzkVOqqZAAxp7dSVFVHUy08b54viPXqhTW2uhuSIlXTxzbejlbzQyw&#xa;BYpKOmoYFipYWRR+TG4LUNqoaetfVxU8bJ5M5entMwAWqikgrKZ1PUxNkidj&#xa;LF6LhcluS20c7KdklO16U2FiT9THTBkgCxUUNNVTRSzRNe+Fd0ar+gpZrbPb&#xa;7i9H1dGyZ6JhHq3mZoAs01HT0kCQ08TI40/QY3CFils9vo1m7vRxR8ZMORG8&#xa;sGaANW3Tdna16Jbotsn/ACmW620bpaeRYGq+lTES+LDJAFiKhpoKqWpjiak8&#xa;uN706vwYtRYLTU1Dp5qCJ71XK+r195sQBZlo6eel7tLAx8CpjYreWEMSGwWq&#xa;Hh8KgiYsbkkRdvNHIbEAAAAAAAAAAAAAAAAAClI2o/cjea9VKgRMRPcUsja3&#xa;dsbgMjY1mxGtwpUCOSvsnahkETVyjG5D4mSY3Na4rA5KxGtG5UOhjkxua1Qk&#xa;TGLlGtblCsEfTr30c09lHBj2bNrceRLo2ubhWtVCoE8le2jcqI4Y4viNagdB&#xa;E5+5WNVSsDlrrWjcqWRta3DG4KgCYiIjUIAASAAAAAAAAAAAAAAAAAAAAAAA&#xa;AAAAAAAAAAAAAAAAAAAAAAAAAAAAAAAAAAAAAAAAAAAAAAAUcaL9eP8AeKyj&#xa;gxfNR/ulbc3+FMaONF+vH+8ONF+vH+8ODF81H+6ODF81H+6U/J8LfacaL9eP&#xa;94caL9eP94cGL5qP90cGL5qP90fk+D7TjRfrx/vDjRfrx/vDgxfNR/ujgxfN&#xa;R/uj8nwfacaL9eP94caL9eP94cGL5qP90cGL5qP90fk+D7TjRfrx/vDjRfrx&#xa;/vDgxfNR/ujgxfNR/uj8nwfaqY5rviOapJDGtb8RrUJNK711Vn4AASgAAAAA&#xa;AAAAAAAAAAAAAAAAAAAAAAAAAAAAAAAAAAAAAAAAAAAAAAAAAAAAAAAAAAAA&#xa;AAAAAAAAAAAAAAAAAAAAAAAAAAAAAAAAAAAAAAAAAAAAAAAAAAAAAAAAAAAA&#xa;AAAAAAAAAAAAAAAAAAAAAAAAAAAAAAAAAAAAAAAAAAAAAAAAAAAAAAAAAAAA&#xa;AAAAAAAAAAAAAAAAAAAAAAAAAAAAWamrp6OHi1M7IY/+dyIhFJW0tbHxKSoj&#xa;mYnJVY5Fwau+W+oqLlRVdMyCpfSo5VpZnYRUXxT2oW7Q+kdfp80UtvuKxJvh&#xa;VybHtz8ZNvJQNhJfLXG1iur6ZEdnYu9OeFwZUtVTwU6TSTsZCuMPVyInPpzO&#xa;e0lbqOfTuZqeJ6yvej1ViKqoiqhqHc9A1NPuc+OKt4Ua/wDIjkA6quuUUlvn&#xa;WiuVLDJErUWR7kVsaqvRTNmrKanejJqiKN6or0R7kTKJ1U0Oq6Omo9H1UdNB&#xa;HCzLOTGonR6FV4p4anV9njmYkjOHKuxemUQDc0tyoa1r1pqqKbh9djkXBgUG&#xa;o6StvFTRNlgxHtSJ6PReNlOePcYs0MVPrqk4TGx8Wlej8NxnBNnghTV17xEx&#xa;OHwNnL4uWARf7xd6CnqZqaiZDBCqJxpnZVcrj1WodA+RsUTpHOwxqKqr5Ihp&#xa;Na/7o1f/AEf96GXqBVTTVdt//bu/gBi2+sut1fHWRcCkt6vy1j2Kr5GIvXyT&#xa;JvDkm2KJmlWV0dZUpVx0ySxzcVURMNyjUTptOitNU+stNJUyNw+WJr196oBX&#xa;V11Jb2I6qqIoUXor3ImSqCrpqmDjU87JI/NjkVDTV0kLtRbKa3d+rY4U3rI/&#xa;ayNir7c81MW0JJFer5G+BlOqxxuWON2WtVWrzTkgG6de7XHs3V9MnETLPXTm&#xa;hi6jq5qWlonU8uziVUbFVPFqmJpe2UVRpKDi08S8Zq73K1MrzVDTuqJf6iWq&#xa;THFfFWNSNPFUa52EA7eWqghmjikljZJLyjYrsK/3IXTmtN/7Rc62a4tcl3Yu&#xa;FY/pHGvRGew6UAAAAAAAAAAAAAAAAAAAAAAAAAAAAAAAAAAAAAAAAAAAAAAA&#xa;AAAAAAAAFE0rIIXSSOwxiZUTOo2Innjpot0nJpY762SJFj2pnxU5yslfJcO8&#xa;Ml3sdzRN2f2GzobbVLEjpHtYi89inJlnL0tj7Nfx9onqzEuaJyla1Hoq9HZT&#xa;b55M2GaOeFJI3NexyZRUOavEVwoZmSwNasfTKNzzXzL9BeFbPFA5jUjdy9ym&#xa;uO19RzwtkxxGprPd0AANmAAANdcrO2uniqYqiSkqoUVI5o8LyXwVF6oU2+z9&#xa;0rX1tRVS1tW9nD3vajURuc4RENmAOP03aqmpsKPp7nPStkkej2Maip8ZUy3y&#xa;N1Np6ldYWWqJzo4Wq1d3VVVF3G1Y1rW4Y1qN8kJAwrvbGXa2SUT38NJFblU9&#xa;i5E9tZPdqW4K/D6VHMRnguTNAGFLbGS3mC4q/D4Y1jRnguSz8DK2+PuNPWPh&#xa;4qN40e1Fa/amENmAMK721l3tclE9/DSTbzT2Lky3RtkidG5rVYqYVF8UUqAG&#xa;g/qsvd+5tulSluVf/b8unXbu64NpNQq59LwJ308dMqLw4+j2omEavsMsAaqu&#xa;sa1Fy79SVktDUKzhvVjUcj2p5opbpLEy2PrapKiWZ88WHcTmqqidTcgDkbBZ&#xa;qir0xTpHdKmCCZq74ka1fFUXavVDdz2OmlttLRMc6KGklbImOe7abJjWtaiM&#xa;a1E8kJAwKy0sqLlT10croaiHllP02L1a4zwAAAAAAAAAAAAAAAAAAAAAAAAA&#xa;AAAAAAAAAAAAAAAAAAAAAAAAAAAAAAa6+o9bU5GeKobEtVcCVFM6NfEpf9ei&#xa;JruOVzFnoFdcI5JNuEXp5KiHWHMVqPoYUkg9RWPRVNjDqOiWJFqHcF/+aHNw&#xa;l5vEumcMxSJjw2cu3gv3dMLk5GZ1JO9OB6knhnobK6XhJ6N0dFz39V9nsNNb&#xa;IFrbhHFt5ouVXyRDXNhmZiXnTxPLeK0dvGqqxFXrgkA3dIAALT6qGOpjp3Ox&#xa;JIiqxBUVUVJDxZnYYa+4wuluScP84yFXx/3kcilmvmbX0z3M/NxQ8Rf7yphE&#xa;/YgG1mq4oMbvWV/xGMaqqv7EJhqYpmOVjviclRW4VPeimND/AGxLnrwW7Pdl&#xa;clL0j+FZ0dyjWmTiL+1QLzLlTuVPziMdyY9WKjVX3l1aqJOPn/8ATpl/sTGT&#xa;BfxaSlRk7WVNIiNTPRyN8FVOilM3W7/4Sf8AYBlsuVOuM72I/GFfE5qc/apk&#xa;SyNhifI7kxqKq+5DWrHVVlvZTrBHGx7Gor1dnl7EwZlw/syp/wAJ38AKY7jT&#xa;uViflGb+TFexzUXPtUyjUOdPLT0lNKxsccm310du6c0TomFUl8k1RU1PqVK8&#xa;N/Dj4LkaiYTqvNMgbYokkSJWIrfjLhMNya+VKmTgLK2VUSL144XbXI7z5KmU&#xa;HGXg0OyeR6LNsVV5KqYXk4DYvkSKJ8i9GIqr+wRSJLCyROj0RU/aatY3VVNW&#xa;zOllRWq9jER2ERE9hSksjlp6fbK+NKdr1SFyNVVXlzXKAbghVRrXKrsIhq17&#xa;zwqeOR0seZlZncm5WYVUzgOiVFrqfiyrGkTXsy5coqoviBtGOa5iOZzRUyil&#xa;uaoip1jSR2OIqMZ71LdujRtugxzzG1eblXqhg1kkdRWTsc2RUjj4bFZErsPX&#xa;mq8vIDbg1bqh9VT0Ko+SNZJNj8OwuURcoRULJS98gjlkVnd+IzLlVWL05KBt&#xa;Qa5zXUslJIyWV6yPRj0e5VRcobEAWJ6yKB6MXcr8ZwxiuXHmuC+YTmzQV8k0&#xa;cHGZKxqcnIisVPf4AX3VkDaZJt+5j8bMNyqqvgiE09VHUbkZyVnVj2qioaul&#xa;3baFXNaiLNIqInTxwZrP7bf9Xbn37lAvz1UdOqI/m9/RjGqqqTBPHUM3Ru6c&#xa;lRW4VFTwVFKKh0NP/tDm+uibEx1XPghTRwviY+SXakkr96onh4IgFxKqFaru&#xa;278sib8ewT1UVOsaSOwsioxntU1lQituc9SzrTJG/wB7eaOQisclVUpMnOOK&#xa;SOKP3q5FcoGwfcIY5nxbZVWPGdjHORMpnwL0UrJ4kkjc1WL0U18aVPwnXd34&#xa;SfFzvaq/o+wv2rHc9n6bXuR/97PMDMKJ5mU8LpZOTE6lZRLG2WF8bujkVFAi&#xa;aZkELpZOTGJlVLiLlqKaiNzqiKlonc3seqS+5n/3JfJNUVNT6lSvDfw4+C5G&#xa;omE6rzTIG2BrEbPUVsUcz5I17uj3sY7GXZ9hTPxGyTSTPnRM5jkjdlrE8laB&#xa;s+InG4e3miZ+LyKjXz1EkNZUuR2UbSpIieGcqUOa+lpoKlJ5XyKrM5cqo/K4&#xa;6AbMGs4Tp5q7dPKiRr+TRjlRE9VFMqjzPTUtRI52/hp+lhFynigGSAAAAAAA&#xa;AAAAAAAAAAAAAAAADBuNuSsi9R2F8U8FOUrLDXtnfilcrPBWczuQUx0rS3NV&#xa;rGW3Ly+HI2mx1+1ySs4LF/XOjt1tht0OyPm9eaqvVTLBta826OauOsW5gAFG&#xa;gAAKFgYtSk36aIrP2KWkt9OlPNAjcMlyq/tMgAWZqSOfYq7kez4isdhUENJF&#xa;Cx6I3PE+Or3ZV/vyXiGOa5qKzaqL0VAMVttg5IrpVjTmkauVWl11JE7j5/4y&#xa;Yf8A5YLwApjakbEYnREREIljbLC+N3R6Ki+5SsAWX0sclMkCt9RmMeaY6FEt&#xa;FFJI6Tc9iuTC7HK3fjzMkoSZizug/TYiOX3KBafRROcxU3xuYmxFY7C48glF&#xa;CjI2I3lE/enrePmpdlmigZule1ieauwVMc2RiOZzRURUUDHlt0Mj3qvERJPj&#xa;sRyojw6iic2PbuYsabGKx2FwZJamqoafHEc5M9PVVf4AUto4kbH8ZeGqvRVd&#xa;lcr5lfdo+JJIreciIxfchTT1cNQrkiflWYym1U6l4C3TQNp4UjZuVE6ZdnBM&#xa;MDIGYZ4qr19qqWfhCl4vD4rd2dnxVxnyyZIGBUW9HSQ8NrsLMsj8OxjLeqEz&#xa;0CNoalIt0k0rFTL3ZVfJDJmqoafHEc5M9PVVf4FEddTSI9WS+rGmVy1Uwn7Q&#xa;KYaGOJ8ci8RVanqI9yqjPcZRZhrIKh+yN+VxnCtVFx+0vAC1PTsqGokm7b5I&#xa;5URffgq4zO88D9PZv/ZnBWBalpYpYUiVuGNxsxy2KnTBRHRxxMlRN6rImHPV&#xa;y7v8zIAGNNRRzrGqvkRY0wxUdguwwJB+m9+f13ZJSdi1LoP00RH/ALFXBWBb&#xa;SmjSaSTbzkREX3IWmUEDaaOnRuI41R6e9FyZIAxn2+N075UfKxZMZ2OVEXCY&#xa;L0MMdPGkcbcMQTStghfK74rEVVIZMx0nDT4+Efj2KBcBDnNa3LtqInipIFqO&#xa;liiqZKhG/lJERFX3FuWiikkdIjpGK9MLscrd/vMkAWmU0bZkkRuFRnDT3Fp9&#xa;ugke9fyiMk5rGjlRr19qGUALfd4+8Ol281Yka+WELUduhiexfXckfONiuVWs&#xa;9yGSUNnY6eSJPjxo1V/aBDIGNWRU3flea/5YIjpWRpCjNyJEmxibv4l0AAUc&#xa;VnGSL9NUzj2FYAAAAAAAAAAAAAAAAAAAAAAAAAAAAAAAAGNxH/C3D3epwc49&#xa;u4w3TzrFhJXIq1ixovk3Jmz0iSzJKkr45ERUyzHNF8FyUx26JsSMRz1xLxsq&#xa;7K7gLKNkbWSUy1MrmLEkiKrk3IucclLVKqw2OD8vIzibejdy8/BpseAzvXeP&#xa;09nDx4Yzkx0tsaUiQcWXDFR8a7kzHjyAx46qWB9Ui8VUji4rUmxnPPyDknhi&#xa;pJe9SPWWRiPRcYXPkZUdCxkksivkmfIzYu9yc0MKOlkdJTxo2pRkUiPVJnJt&#xa;YieCY6gXMzTRVVR3h8axq5kbExhEb5lC1Usj4IldLju7ZFWFuXKqk1cD987I&#xa;oqlOLnkxybHqqdVXwMpKBOHF+VdHNHGke9nl+0DFSapeyCnc58aySKzercOV&#xa;iJn/ADUriR9Pcp/zk+ImYTlu6r7jJdRMdTpGr5ctXej93rIpMFG2CZ8vFkke&#xa;5ERVe7yApqEbPRPkkgw9I3YR7UVUEEro7bTqyB0n5NvJmPL2qhkPjR8To16P&#xa;RUUiKNIYWRp0YiIn7ANdNVSS1jottSxjGNVUhaiuyvmZdJNIlBxKnkrc5VW4&#xa;XCeJM1Ij5klZK+GTGFVmOae3OSX0jJKXu7nyKzxVXZVeeeYGNEro7dNVSP4M&#xa;k3rqqtzsReTUwU00sjLhHF+XVkjFVeNjqnihnTwMqIHRSfEUsx0CNnZM6eWS&#xa;RiKib3J0UCzPFG5iW6nbyTCvX5tqLn/NRUuc6pexks+WInqQtT1FXxcqlcdt&#xa;4O7h1lSmcqvrN5qv7Ct9A10zpEllZuREejHIm/AE0lQslrjqJdv5veqlukhb&#xa;LSPlqGtzUKkiovl+ihc7jH3BKTc7hpj3qiLnCl6aFlRC6KRvqKBhOdL8KwrU&#xa;MamGO4aMdnevjnOCaiqmdFHGjH0yyyNjyuM4XmqphVL0VGjZkldK+Z7UVGb3&#xa;Jyz7kQu1FMyoi2O5dFRU5Kip4oBrn7qOvkk3uk20qvTf15KIJanfTuTvL1dj&#xa;ib2YZhfFDMjoGMmdK6V8z3sWNd7kxgQ0SQqzE8qsZ8SNXckAxUnmViUm/wDL&#xa;8bhqvjsT1s/5Fp1RPOs7md5R8b1ZGkbMt5eZskpIkrXVP/EVmz2Ft1A1ZHuj&#xa;lljSTm9jHJhVAxXTuirJqhW4elI16s9uVXBU7j0sENStQ6RVVu9i42qirjkZ&#xa;ndY+O6VeavjSNUXphC1HbmNdHmWV8cfOONXJhFQC0yOaqqapO8SxpG9EjRmO&#xa;XqopXSVsstNA5YHvV6JlWYwi5x5lDKJ8lTVKr5YUc9PiORN6bUM2KJkMSRxt&#xa;wxiYRANVNxaq1VNSs8iZR2I0xtRqKqYL7ppGzzMR3qspUeieS8+ZcfbI5ElZ&#xa;xZWRyZVY0cmMqXVo41e93rZdFwl9wGvqYZFsLpZKiV73Ma9emDKfI6iqod0r&#xa;lgcxWKr/AAcnrIpkOpI5KHuy/E2Iz28jGrYFnp46NWvkyqKsi+CIvMCaWedK&#xa;aN0kEsiy5eqpjDEVeSc1Qsrx3w1sveHsWne7homMckzzNoWEpI0hnj9bE2VX&#xa;9qY5AYUtXJLUQxflUYsTZF4LeaqpMc9Q1sEkvERiSrGu9uFe1fiqplOomLw1&#xa;Y+SN8abEVmM48lyJKJklG6mke96P6qrsu8wMFKyoWnmRXevNtfD7EVdqFUsz&#xa;qWe4ys5qyKPGfcpnOo4nTQSK3nT52BaSJZJ3Lz4yIxUXphAMd6TUT6d3eJJO&#xa;JIkb0fjC58ULeZpoqqo7w+NY1cyNiYwiN8zJjoGtkY50ssiR/m0e5MIYlXA/&#xa;fOyKKpTi55Mcmx6qnVV8AK4qqRJoVVzlTunEVPNyYK6aKpkp4KnvDle7a9WL&#xa;8XC+CIXoaNsSxyLzfHEkXswUst0bVYnFlWNq5ZGrk2oqAZYAAAAAAAAAAAAA&#xa;AAAAAAAAAAAAAAAAAAAAAAAAAAAAAAAAAAAAAAAAAAAAAAAAAAAAAAAAAAAA&#xa;AAAAAAAAAAAAAAAAAAAAAAAAAAAAAAAAAAAAAAAAAAAAAAAAAAAAAAAAAAAA&#xa;AAAAAAAAAAAAAAAAAAAAAAAAAAAAAAAAAAAAAAAAAAAAAAAAAAAAAAAAAAAA&#xa;AAAAAAAAAAAAAAAAAAAAAAAAAAAADG7xL8Jd27q/g8Ldx9ybc5xtMkAAAAAA&#xa;AGPXVEtLRvlgpZKl6YxGx2FXKgZABr6m5Pgv1Fb0Y1WVLXuVfFNqAbAAAADG&#xa;mraenraelkc5JqnPDTb12plQMkAAAAAAAAAAADX19yfSXW3UiMaqVTnMVfLC&#xa;ZA2AAAAAAAAAAAAAAAAAAAAAAAAAAAAAAAAAAAAAAAAACqiNypbWdiNTG5+e&#xa;iIVm9Y7mlwFiOtge3KPx6+zny5l8mJiexNZjuAAkAABz15SebU9to46qWCOW&#xa;KTfwXYVcIY0lBNS6jgttPcaplJVRLI5FkVXJt/VcvTJtau3zy6lt9axreDBH&#xa;Ij/W55VBUW+eTVFJXI1vAihdGvrc8qBhUcT7XqtKGOonkpZqZZeHM9XbHI7H&#xa;JVLVrpH6jhmuNVWVLGOkc2GOKVY0jai4zy6qbKW3zu1VBXI1vAjp1jX1ueVX&#xa;Jh01HdrKs9PQU8FVSSSLJHvfw1iz1RfNALVPWXNbJdaSJ7p66hk4Ub/0nN8F&#xa;/vYMa391fUU/wfeKiOuareLDVvd66eLVavibOlslZT2eqRtY2O41MizPlYnq&#xa;o7y9xjVlFd713eCroqalbFI2RZ2S5Xl+omOWQMpk0v8AXt0G93B7hv2bl254&#xa;nXBrrPbn3eGtkqq+swypkjjZHKrUZhTbpQTpqxbjtbwFpOD8bnu37jTWGa6w&#xa;QVy0VLBURrVy4R79isd/NANppmqqJqSqpqp/Gmo6h1PvXqqJ0VS1qd9RvtcV&#xa;PUPp1lqmx5Y7wVC7brdW2uzVKs4U9fNIsy5yjFcpXc6GrrX2qRGs300zJZW7&#xa;uSYTngDXXmX4Co6ShjrKljKqVeJUPcskrGJ1wY1NcaSlvdC211tVUxzO4U0c&#xa;+/HPo5Fchvb1bJq1tPUUj2sq6STiRq/4q+bV95FLNe6iqj7xS01JAzO/1+I5&#xa;/uxjAGlqJYlvFa291lZRJxMUqxuc2LZ4Kit5ZL94kq6TQsj1r+PMm3bUROwq&#xa;tV6eKGa9L5TTTxsggudPK9VjWR/DWNF/RVMc0Qw5tO1aaLktcbmPqJHpJhHY&#xa;YzLkXCAZF4dNXXyktEdRJTQLGtRMsbtrnoi4RqKYy2/4O1la42TzyRrHKrEm&#xa;fuVnLwVTYXe3Va3Cludv4bqinRY3wyOwj2L4ZMeKiutXqCiuNZBBDDC17NjH&#xa;5VmU8VA1a3SiuFwq3XK41VMyKVYoYYN6IiJ+kqtRcqpTJdauXR1VsqnrJTVT&#xa;Yo6jm1z2bkwqm3jo7pZqyqW3wRVtLUyLNw3v4bo3r188oTc7fdLlp59PNwHV&#xa;T5WuRjOTWNRyLjK9QMW8Ucllip7hDX1ck6TMZJxHqrXoq80VpTerbHJqy1Zn&#xa;qU7zxc4lVNmGfoeRtdQ2+e5W1kNO1qvSZknN2OSKWr1Q1r7hbrhRRMmko1fm&#xa;N7tuUcmOoFF94MU1LHVXKWClwqcCHdvmd7288GPp6rxfaqhgnqZKRImyxpUI&#xa;7dGucKibueDIrqK5RXqC7UcEU7+78GSB79uOe7LVJttDc01FNca6OBrZYEjR&#xa;I3Z4ao7KIBrrDbJLxZEqKm5V3E3PSPZKqcPDi1UXKuk0VK507m1dNUpTrIx2&#xa;FVUciZKtOTXiKwIlDS008bnP4avftWNcr1TxJvFsfa9DOp3Pa+d8zZJH+CuV&#xa;4F+8W+ey0HwrTV9VJPArVkSR6q2RFXCoqHTscjmI5OioinPV9HerzClvqYKa&#xa;CmVzVmmjert7UXOGpjkbly1jbhFHHFF3Lau5Vcu5HeCIgGjui0i3aRlwulSv&#xa;JOHS0u/Maebtpj0ddUSaUvTe8SvWkfJHFI/1X7UTKZ8cmYlHdrZdq6aipoKq&#xa;GsekmZH8NY1Tz80MV1urKDTd+Wt2K+o3yosfRcoBL7TP/V1LlHcqzvjKdJkV&#xa;ZV2rhu7bt6YLV1usaLp26TtcjdjpHo3zVickLzI77Waegt8cFMkUtOxq1G/o&#xa;xW/q+eDOqLK7vVlbAjVgt+Ufv642oiKBGn1nuX/rNRUZ4yKkUDHLsiann5uN&#xa;4aekttRbL3K6ka1bdU5e+PdjhP8ANvsU3AAAAAAAAAAAAAAAAAAAAAAAAAAA&#xa;AAAAAAAAAAqojcqDX32V0Vql2eOE5EWnUbVm2o21NyuNS6tdEv8A7bww0vUK&#xa;1MsSIyJyx9UU11tgmrK2Fkm5YfNW+CczsGNRrURjWoidEOScVc0bnu3+pfUd&#xa;NQ5e5Vq0NYiSxPXKc13Y5Ly5KbS23Kn2xUiO6p6irzX9pnVlJDV0+yVjX45p&#xa;nwU5eam4L2SwStfsXKInVBuuHVVr3jJqIjTrwQxcsRfNCTsYAAAAZTO0KqJ1&#xa;AAKqI3K7UQIqK3KAARubnHq58hlAJMahoILfHKyna5EkkWVcuz6y9TIRzV6b&#xa;SQAIRzV6bXEgABlEAAKqI3KuwidVCKjmoqbVRUyigAAAAGUAAAAAAMagoILb&#xa;SJTUzcRplcK7PVciuoYLlSup6luY1VFwjsc0XJkkK5reu1AJAVURuQiorcp6&#xa;yAC1V0sVZSyU0zXLHKitVOnJS4qonXagRUXptcBTDCyCnjgjbhkaIxnuRMFY&#xa;ymdoVUQACNzUXG5pIAAKqIAAAAAAAMpnAAAAAAAAAAAAAAAAAAAAAAAAAAGN&#xa;cIFno3sTr1QyQVvXddDmVlfa2slT1/X5nQU1XDVRo6J7V/ihrrvb5JafETco&#xa;vNUTqhyNSksUz41c5Nv7Dl4Otoma2dlopbHuPDs7xco6SjejOcjkwiJ4Z8VO&#xa;XpI1nrImR/HVUQm1JPVsdHt4mDorLZEoV7xNtWd/+TEO7JhiOu3izF75NeIb&#xa;dEw1EABV3AAA1Ny3NucczOtPEsmPNEcmU/yIvUiVFNwo/iJGsyr7P0TPdTK6&#xa;vSo9XCRLGqe9cmMy1K2hqYOLlZeTFXwanRAJ4bKu5cOZrXxxRNVGL0yviI4u&#xa;BXz01P8Ak2SQ8RieDHZxlC9NSy8dKine1JEZsVHtyj0Ijo3qs0kz8zSpsyzl&#xa;sTyQDCjip4oo4KiDuk6YxNt6u893tK5ut3/wk/7C8+jqp6fu8srFh5ZVGLuV&#xa;ELj6NzlrfWb/ALQxGJ7PVwBr3JSyUEaUkH+1YbsVkStVF81XBs7h/ZlT/hO/&#xa;gXYY+HCxn6qIhFREs9JJEnJZGKzPvQDUf7M6GnjpINlWuxUVGLH06qqrjKGT&#xa;PclSaZkctNHwuWJHc3qZEtG51NAjHNSaHarF93Jf2KUrSTxzSOp3RYl9dUka&#xa;q4XplALT7i53d9jo4WSx7t83NM/q+BVLNJspFlij3ulRPNE5LzaXpYanKLHL&#xa;G9uzYrJG8l9vItR25Ww08e9v5KTiL6uE555IBbmnqainrFj4SQx7o8K1cvwn&#xa;NShtdwYqenSWCFeC16rN08kROhedRVCNnjgljSGbKrlqqrFXrgnuUsawyROj&#xa;4jYkiej25R6IBbZcpZIYeE2JXvlWJV6t5Iq5QqdPVKyqgc6LiRsR6KjVwqKi&#xa;+GepeWlld3dZHtV8civXDcJ0VMIStIqzzyK7lLGkfuxkBb1kWghWRzVVWNXK&#xa;eWDEr0dVVPDjdhaVvET++vRDOo4pIKVkUm1ysRGIqeSFmK2w5ldURRzSSPV6&#xa;qrM+5AKZa17oaR1O1q94VE9fwymSl9bUU7amOVrHSRxcWNUaqIqe1CzNSyU7&#xa;6eONzUTvCrH6vJiK1VwV1dNKlJWVEzmrIsSsRGdERALveKqGSBZmxLHMqM9R&#xa;q5YqplPeZxgx088qwLNLGscWHojGqiquMJkzgBh1cEKP7xLBJUrjYke1HY9y&#xa;GYY0sVSk/EglbhURFjkyqJjxTAGvTaluoll2rTcRd/iiJz2ovsQyaCSH4QnZ&#xa;TbeBhr+Xxd3NFwX4ad9PR8ONzXSLlVV7eSqq5XkhMVPJCyV29r55E6q3CJjo&#xa;mPJALNxhfKtOiQNnYj1VWK5EToqJ1K7esX5SNlO2CRioj2Jj9i8iuaKdeG6O&#xa;VqSM6oudr8ilpnxPkllc10kuM4bhEREwiIBr5nLBfJKnwYjGP/urlMk3Nyy1&#xa;kaJ8SmkZn+8rk/ghmrRJJPUuc5qsmY1mPcWWW56UbIllzJxGyvXzVFAx3JCt&#xa;zreJROqfiYwxHY9X2mZav7OZ62evL9Tn8Xn5Ed2qoqyeWB8GJdq4e1VVMJgv&#xa;UlP3WFzFdve9Veq9MqoF8tVcCVVJJAv6aF0AauWd1Zb6eD/iVCox3sRPjEzX&#xa;JUmmjjlpo20/LEjub1RPDmmEL8NBwbhJUbtyLnYzyVfjBaSeOaR1O6LEvNUk&#xa;aq4XplMAUJWz1E0LKdrESSJJVV+VxzKXVs61MkcfARY1wkb+Tnp5opktpnJW&#xa;JMrmriLhr6uMrnOSxUUVRO18SyxrC7mivZlzM+QFUlQ2GvmVzG4jp0kVdvrd&#xa;V5FPeqqFkU0zYuHIrUViNXLM9OfiXXUSSVMjnc2SQpEqeJbSjqHNjimljdDH&#xa;heTVRz8dMgQ6oq5JKpIuAiU68t7VVV5ZMiCWSoigmTakb2ZVPHKoRHSq19Su&#xa;5v5Zcp7OWBTQywQ08W5qsjZhfV5qqeQGQAAAAAAAAAAAAAAAAAAAAAAAAUPh&#xa;ik/ORNf72opWAKWRsjbhjWonkjcFQAAAAAAABY469/7vtbjhcTP7cGO64SJF&#xa;lkTVd3hYUTdgDPBhJUVPGkp3MiSRGJIxUcuMKuCijnqfgiGRWtkeqJhVdjl5&#xa;uVQNgDBhuHrTpLsXhM4mY3ZRUI75VNbBJJBGjJntRERy5ZnzAzwYDqyoVs8k&#xa;ETFhp8ouXKivVOuCXXBy8GOPhJJJEkqrI7DURQM4ZTdj1cmA25OkhYkbGrO+&#xa;RY8bvVynVc+RRDK6K5zuqtkeImZXdy6r5gbIGHVoypo3SRzu2IxV/Ju5L+1C&#xa;uCeKC207pZWsRY2c3ux4AZIMOpho1hfVSMa9MZzu6oU0tEqW5kavfGqrxF2O&#xa;x18AM4GFbHI21Mc53JNyqq+xymPCskl2gmdySWN2xnk1MY/aoG1BqqykZDTu&#xa;VXcSrkf+TXou5V5Y9iGTPSxK901U5r42MTDF5IzzUDMBqMOSjpGVG5IHSLnL&#xa;ue3mrUcVwI109VSUkuyPY1UVOaRuXKLgDaA13AiguUDKZuFYirL636OOW4vT&#xa;XGFIN0D2TPy1iMY5OqrhAMsGJHUVCVjKeZjPWYr8scvh7y18IStmjSVsCJI9&#xa;GcNHZezPTIGwCqiYz4mNLcKaOKRUla9YkVVYjkVeRizOqVqaLjMjRFkymxyq&#xa;qeqvJQNmDWuurkY+ZjYuDGqphXeuqIuFVEL613D71xGt/Ioj0/52qnIDLCqi&#xa;KiLtyvQwHV0vESJGwMkRiPfxHYRFXwQt94SqqbdLtxl70VOuFRqoBswYC1tQ&#xa;6J9RFE1YI89XLueidVQrdWSvqWRU7Y1R0XFR73KgGYDEhuEfCd3l0cL2PWNU&#xa;V3LKeWQtVNLUvjpmRqkaJlXu6qqZwmAMtFRW5TaqA1NBIiQ25FY1VesmF8up&#xa;kQ1FXUMlcxkSMYqsRVcuVVFwBnA1lJVzx0FJJNtekioxV3LlEXoqmSlexJp+&#xa;I6OOONUjRVdjLsZUDKBhOq5pKp0VM2J6cNsiPV3Ln7in4SXukLtjUmkeseFd&#xa;hqKnVVUDPBr/AISe1k25savi2qqsdlFaq9UL3f0+EH06twxGZz7U5qn+SgZW&#xa;UyierlQa2OZ09bb5XNwr4nrj2Lgq+EJ1pu+JA3u3XG5d+3zA2AMSSqmdVcCm&#xa;bGu1EeqvcqJz6ImCz3tZ2U7pIG5WoWPG7oqZTIGxBhLV1MiyOp4mvjiVWYVy&#xa;7nqnXBmMXLEXbjKdFAkAAAAAAAAAAAQAGRkyrVa6y9XKOgoIuNPLnCdOnNVV&#xa;VOr9EeqPmqX7ZAOKyMna+iPVPzVL9sg9EeqfmqX7ZAOKyMna+iPVHzVL9sg9&#xa;EeqPmqX7ZAOKyMna+iPVHzVL9sg9EeqPmqX7ZAOKyMna+iPVHzVL9sg9EeqP&#xa;mqX7ZAOAninSsSog4arsWNWPcqeOclmOin4SI5zN/eeMuM4wei+iPVHzVL9s&#xa;g9EeqPmqX7ZAOC4DvhDjersWLh+3OcmKlFUfBsdOvCVYXoqJuVWvRPM9H9Ee&#xa;qPmqX7ZB6I9UfNUv2yAedMo5XSzuqOExksXDxH4GMs0sncouLBIiSNVFjcqq&#xa;9E8VTwPTvRHqj5ql+2Qob2P6lauW09Gir4pMgHm08jqWKsjjlgVj8qqPcu5i&#xa;qnNMeJdSik208zGRPekLY1jk9h6IvY/qZXo5aelVf8ZCv0R6o+apftkA88dS&#xa;TcKKRjYGTxPV6IjcNwqYVCuCGfvks03C9djWIxmVxhVPQPRHqj5ql+2QeiPV&#xa;HzVL9sgHDzM3U8kbNqK5FRP2kQR8OkjjdtVWsai/sQ7n0R6o+apftkHoj1R8&#xa;1S/bIBwVTA6dYWeqkKP3vTzx0QyMna+iPVHzVL9sg9EeqPmqX7ZAPP4KNEtq&#xa;UlRtenPOHL55KFtrErYpWbtjUXOXuVc+B6H6I9UfNUv2yD0R6o+apftkA87S&#xa;GtSqfMrYHqvKPL3Jsb5JyJqIaueaNdsCxsRFWNXKiK//AC5oh6H6I9UfNUv2&#xa;yD0R6o+apftkA4P/AGh1M5JGQcTwZuVWqnt5FuGnlhimkTZx5ETHq4YmOiHo&#xa;Hoj1R81S/bIPRHqj5ql+2QDzukiq6fCOZAu5cvfvVXL7ehfq6bj0+I9rHsVr&#xa;2L4ZRcne+iPVHzVL9sg9EeqPmqX7ZAPOF47rrDxmxsVYnomxyr5FLLfUpHTx&#xa;baZEp5GvVUzl+FPSPRDqjOeBS/bIT6I9UfNUv2yAcJUwMqKZ8S8uIipkx+DW&#xa;SzU6y8BEiflcOVVfyVD0P0R6o+apftkHoj1R81S/bIB5yyglh3RxxUz2Kqqj&#xa;5G+siKueniXaujWephkRzUYnKRPNqLuRD0H0R6o+apftkHoj1R81S/bIB55P&#xa;SP746ojZBJvREVkns8UXClSUsnEpHLwk4W5VRjcJzTHI9B9EeqPmqX7ZB6I9&#xa;UfNUv2yAed91qoqeSli4XBdnCq5dzEXqmChWyQ3ONlO1q7afGHuxyRT0f0R6&#xa;o+apftkI9EOqM54FL9sgHB0kDoWSLLtWSR6vXHRPDCFtYaiGqkkp+EqS4yj3&#xa;KmFRMZTB6D6I9UfNUv2yD0R6o+apftkA87gopYm0WXNXu6uVfblF6F+kgdBT&#xa;vY7bze5/LyVcne+iPVHzVL9sg9EeqPmqX7ZAPN3RLT2R9PUujTYxUYqO645o&#xa;vvMuhhWOhYknORfXf/eXmp3buyDU78bqelXH/wBZCr0R6o+apftkA4JkLm18&#xa;s/q7HRtYie5VMb4Of3aP82skcjpERebVRVXkp6N6I9UfNUv2yD0R6o+apftk&#xa;A4CKnc6GZksUEaSJsxG3+K8jGW2zLbUi4rePlVV/v5L/AKHpHoj1R81S/bIP&#xa;RHqj5ql+2QDgn0yrWU8jNqRxMcxU9+DG7nVJSdyRzOB037l3bV8MHo3oj1R8&#xa;1S/bIPRHqj5ql+2QDzqZe61u6KWBFfG1Fjkdt5J0VC1RwST0lPJ6vKoWVV6Z&#xa;TK9D0eTsf1M/41NRr75kK/RHqj5ql+2QDzxIKuBZGU/C2SPV6K/OWKvXl4ma&#xa;3KNRF5rjqdt6I9U/NUv2yD0R6p+apftkA4rJOTpLz2eagsNufW1dPCsEeNyx&#xa;vRdhzDVArBBIAAAACAIIUkpUDuOyL/f+P6vIe9ngXY//AL/R/V5D30AAAAAA&#xa;AAAAAAAAAAAAAAAAAAAAAAAAAAAAAAAAAAAAAAAAAAAAAAAAAAAAAAAAAAAA&#xa;AAAAAAAAAOd1/wD7hXj6up83Ip9I6+/3BvP+Av8AI+bGqBcJKUJAqBBIAgkg&#xa;CChSpShQO37H/lAj/wACU9+PAOyD5QI/q8p7+AAAAAAQBnkYslfTsR3rtXb1&#xa;ROZjfLTHHNedQmKzPZlA0qaipYa6CimZLFJPvWNXIm3a3xynJEXwNhR11NXN&#xa;kWnlbIkT1idjwcnVCaZKZP0lM1tEbmGWADVUAAAAAAAAAAAAAAAAAAAAAAAA&#xa;AAAAAAAAAAAAAAAAAAAAAAAAAAAAAAAAAAAAAc5r/wCT+8/V1/kfNTD6V1/8&#xa;n95+rr/I+amAXWlRQhWBJJBIAgkgClShStShQO17HvlAj+ryn0AfP/Y98oEf&#xa;1eU+gAAAApHTJJpdU3FbRpitq2O2Pjj9VfJV5IRadRtW1orXmnw4rX+srjbb&#xa;oltoms7vJGmX+LlXqiGqtF1liqnpRwSTo5Nqojf4J5nLS3+4VLWUjnNqf+Ix&#xa;Vd/07eXvPcNNaeprDbEZGxveJUR00n6zsfwPFycJT1Cm7zq0dNR207acfk+l&#xa;WMeOIpMd/MzDjb/WSUWnX1Va2qhhZtXYrFRc9ETC4NbpLV1urq+KtV1RSz0V&#xa;P3fhSVCcB7Vcq7uicz1ienhqqd0M8TZY3JhWuTkqe48tvvZ/DaK1zrKzak3N&#xa;WPd0z4IZ4+FxemYZ3eY3037R7N78Vjy8NNJpu8amPZ6barpSXigZV0UqSwu6&#xa;OMzPI8u7LJ56G8XCzTs4eEWXYnRmHY5e9FQ9RTmqKe1hyUyVi1J3Diy45x21&#xa;Pwlz2sYrnckQ1Fn1bYL/ADvgtN3o66SNu5zIJUeqJ+w2Ff8A2dUf4Tv4HyV2&#xa;W3CfSepbNqOR2LdV1slsm9nqx4/78mrJ9fGkt+r9O3S5uttBeaOqrWZzDHKi&#xa;uTHXknkYXaJqRNJ6Cul1a7E0cWyH/Ed6rf8AU8G7FrVPZ+2Sip6r89Jb1qFT&#xa;ySSNHoB9L11wpLXRvq66qipaeNPWklejWp+1TR2ztD0leK1tHQahoZ6h/Jsa&#xa;SYVfdnGTyvVscnaX28R6SqZntsloZxJYWOxxHYRXf/Y6PXvY5peXRtbLZ7XD&#xa;bq+jhdNBJDlMq1M4X2AernM3LtE0jaKx1JXahoYJ28nR8TKt9+Oh59pfV961&#xa;F/R0ulVTyvkvFvikpllT4y7URd3v2KajsWsPZ9fNKRw3Gmt9bfJHO7xHUfH6&#xa;rt2ovhjyA9yttzobvRtq7dWQVdO/pJA9HtX9qGPb9RWi6XCqoKG409RVUiq2&#xa;aGORFdGqLjmngcPobs1uOhtb3SpoK2D+rlYn5Ojy5XxqnTGeRzHY98tuvPrE&#xa;/wD51A9Pq+0DSVvrJaSr1FboKiF2ySN86IrF8sGXatXadvk3Btd7oKyZP+HD&#xa;O1zv8kXJ4lo/TVo1N2+a0przQRV0ETppGMk6IvGRC/206DsGjtPUeodPQfA9&#xa;xp6qNjOA9yb8ge/movOqbFp18TLvdaWgWb822eRG7seROlq+e6aStNfUt2z1&#xa;VHDNIn/M5iKp4/2908VXrrRNNMzfDNKscjPNqyRgep0vaDpCsmbDT6mtUkju&#xa;jEqmZ/idGeU697JtE0+h7rWQWmC3TUtM+aOeNzk2ORvLxJ7GtSrT9jHwne6n&#xa;ZS258rONJ80zoB6qDxte3evmpn3Oi0LcqixMyi129UTl7EYv8Tu29oNhXQP9&#xa;b+8L8FpHvX1fWRc7dmP1s8sAdSa29X22actj7hdayOkpWKiLI/pleicjy9e3&#xa;G6xW1l5m0DcI7G7GKzj+C+O3Z0N7rzVem6vsobfqm2Nv1nndEqU7n8POV/0V&#xa;AO8oqynuNBDWUkrZqediPjkZ0VqpyVCxerxSafslVda5XNpqWPiSK1uVwnsO&#xa;ZfrayaX7K7bqCSlWit76WJaajjwq+szLI2/wPOdV9rVxv3Z3dI7hou42uhuF&#xa;OrKau3cSNc9M5agHsumtQ0OqrBBeLa57qSo3cPe3avquVq8v2G3PMuyC50dk&#xa;7BbZcrhK2ClpmVEkkjvBEnkNQvbvXzUz7nRaFuVRYmZRa7eqJy9iMX+IHsgO&#xa;IunaXbaTsyXWlBC6uo/UxFu2O5vRiovXCocpP26VjrQl1teh7lXW6ONH1FVu&#xa;WOOPzRHbFzgD2IHmV67SHXnstderBZKy4x10c0ErI3YdSYYuXOwi9Dnf6Puo&#xa;7rLZ0tMtorJ6JZpX/CauzGjkRvqAe3mHcLlRWihkrLhVRUlNFjfLK5Gtb4dV&#xa;Mw8b7c6+a8V+n9C0UjWy3apa+b2MRcJ/qB6xbbjQ3agjrLdVRVVLL8SWJyOa&#xa;vhyVDMPG+wqums9dqHQ1a9qzWipc6H2sVcL/AK4Ok132qUmhNRW621dsnqmV&#xa;ke/iQvTLOapjZ4gegA8hXtzntl4podS6NuVhoKpcR1U6r/q3ah0/aH2k0ugK&#xa;O21MtA6uhr5FZmOVG7EREXPRcgduDx2v7daq2Oiq6zQ11prJKuG1svqZTzRi&#xa;tPV7ZcKa7WynuFFK2amqY2yxPT9JqplAMsAAAAAAAAAAAABzmv8A5P7z9XX+&#xa;R81MPpXX/wAn95+rr/I+amAXEKyhCsCSSGkgCFJIUClShStShQO17HvlAh+r&#xa;yn0AfP8A2PfKBD9XlPoAAAAINLquj75pith2b/yedvnhUX+RuiFRFbgyyV5q&#xa;TEImInpLxe20rLUyepmpY46duJERWeKeKHrNnuVNdrXBWUrt0UjEVPZ7P2HJ&#xa;astbae2VLJHbYntwx/l5IeYW/V900g3ZBvRXKuIntyx5816JbJ/IyY8sal79&#xa;eBpm4SJxzrl/p9E4RrfYeQdouo3VGo2Ulvq3MSlZtk4b8evnOP8AI1FP2v3m&#xa;6SdxqWxUvFXakkBoLpbJO+RMomvkqKmTEcaNyqu9h9dxPpuTJi1MQ+C9T4y+&#xa;K0YMcf8Avh6J2T1NVW3KtfV7nvgjRN6+KuXP8j1M5nQ2nH6c08yCodxayX8p&#xa;M72r+insTodMi+ByYcMYacsPV4WLxiiMk9Viv/s6o/wnfwPmnQum11R2A6mo&#xa;42ZqKWt73T/32RNwfTU8KTUssPTiMVvuymDjuzPs89Hlmq6D4S+Ee8Tcbfwe&#xa;FjkiYxuXyN3U8jqNTO7WP6iaUR+//j3T3sy3/ta9Tf2pf/xcXNqNw1lMjGp5&#xa;IlPGdhoXsmodEarut6gq+P3zLYYuDt7uxXblai5XJfpezdabtbqdcfCu7jt2&#xa;d04CcvyaM+Pu9nkBwloezT39Kq6R1juGy6RKlO7wermsdj+R61rS6U9n0TeK&#xa;yoe1kcVJJ+1VaqNT9q8jU6+7NLTrymhdUvko6+m/M1cHx2ez2ocd6DbtdXxQ&#xa;6m15cbvQQrlKfa5uf2ue4DC7FrpSaJ7HK2/Xdzo6OWuV/qMVy4wyNP4G8uHZ&#xa;ToXtEt0N+tkclvdWs4sdRSfk93tczGP4HoDtN2l+mV0+tFH8FrDwO7/o7PI8&#xa;0j7FL1ZnPg0tr25Wm3vXPd1ar9nuVHIBhdll9vlk7SrloC7XF11p6SNX087+&#xa;rcYXBZ7Hvlt159Yn/wDOp3GgOy6g0RPU3B9ZPc7tV/n6ufqvuQjR3Zt/VXWt&#xa;+1D8Kd6W8Pe/gcHYkW5+/ruXP+QHklo05dtTduWr6W0ajqbBNHLNI+eBqqr2&#xa;8VE28nId3B2FOuFxgqdV6vuOoo4PiQTNVrf9XuOi0x2cf1d7Q73qn4U7z8Lb&#xa;/wDZ+Bt4W56P+NuXPTyQ7oC3HGyGJI42oxjUwiJyREQ8J/pBUzqzWOjaVk7q&#xa;dZpHRpIzqzL40yh70cJrrs3/AK56hsd0S6dzW0ycRI+77+J6yOxncmOgHkPa&#xa;loG76Rt9ur7hqO66itC1KNqoZ5XJsTw/SU7PtaZb4v6P9MmnWNjtL30/DSP5&#xa;pT1HUdhpNT6drLPWp+Qq41jVU6tXwVPainNaT7NmWPQ1TpS7XJL1bptyIi0/&#xa;B2tXq34ygcTpqg7Ua3QNuprXPpl1nnomxxMfG/PDVuMKZFl7Om2HscummNY3&#xa;qgoIK2r4kNUkyIyNcMVvN+3xZ0L1N2KagtUL6Cydodwt9qcqqlO2JV2Z8lR6&#xa;HXRdmNkTs8/qfM6eoolyvEkfmRH9dyKB57L6ROz/AElsmisuqtMUsKJ5Lwcf&#xa;6/wL3aFebXf/AOjmy5WehZb6WaaPbTsYjEjcj8OTDeXmZ/oZ1I+1/AkvaHWP&#xa;seEj7t3fnw06Mzu6HT37sxorl2aR6Mt1V8HUsSsVsvC4qph25eWU5qB5T2pY&#xa;9EPZwj//AGnBi4vu4TMHrfaikPogvqRbeD3P1MdMcsFdw7O7feOzei0jcZ3S&#xa;RUdPFFHUNaiOa5jdqPROhxrOw68VNnW0XTXldV22ONWU9MkStaxU+Iqor1zj&#xa;yA5K4LKn9EW18LotWqSf3ePJ/wD4dDpqg7Ua3QNuprXPpl1nnomxxMfG/PDV&#xa;uMKd/pzs+o7T2bM0dcZW3Kk2PjkdwuHvRzld0yuMZOOpuxTUFqhfQWTtDuFv&#xa;tTlVUp2xKuzPkqPQDnbto66aI/o5X623WaCRz6yOaJYFVzUar40/kejaZYn/&#xa;AMP9I3wWyL/4lIruy2mk7LX6KorlPBC9zX95mbxn5R6PXllPI39s0z8H6Ah0&#xa;13ricKi7nx9mP0du7b/IDy7sa/8Ay/6i/vVf/gabv+jn8lz/AK9L/Bp0Wguz&#xa;2PRmjKrT01f8Iw1Uskjn8LhcntRqtxlfI02geyu5aFvrpKfU889lXcqUDmYT&#xa;cqYRV9wHpp8xUusbjX9tNy1fbtM3DUlNSbqamSmY7EaY2ouWscfRl8t89zsV&#xa;bQUtX3KWohdE2fZu4eUxlEynQ0XZxoSDs/0261x1XfJJJXSyT8PZvVfZlegH&#xa;iE+srhb+2m26vuGma/TlPV7aWpZVMciSJjarkVzG9Dr+1L5e9B/4kX/mO/7R&#xa;dBw9oGm2WuSq7nJFK2WOfhcTYqezKHkvabp98vaJoLT9fXyzvdTxUslXGnCe&#xa;v5TbuTrhwHbf0hkpvRa9ZscRKqLg/wB/PI4TtW4vot7OO8fnODHv+yYdg/sQ&#xa;uF3u1NJqfWlde7dSP3x0srNufeu5TWf0kYY/grTUCJhneXtRE9zQO87XO7ei&#xa;i/d527O7+r/eym3/AFwYvYfxfQ/ZeL/9Xb/d4r8HN1/YhdrnwrfXa6uVTY4V&#xa;RW0sjcuwnhk9YtlupbRbKa30cTYaaljbFExP0WomEAywAAAAAAAAAAAAHOa/&#xa;+T+8/V1/kfNTD6V1/wDJ/efq6/yPmpgFxCsoQrAlpJDSQBCkkKBSpQpWpQoH&#xa;a9j3ygQ/V5T6APn/ALHvlAh+ryn0AAAAAAAYtZRwVtM6CojbJG7qi9Dz/UnZ&#xa;HTXd8clHXOpFizhrm7m8z0jHgPAz+nTni+usNcebJSJrWejxyi7DJorhHU1N&#xa;5Zw43o7ZHB1wek2fS1us7kkhi3zImOLJzdjyTyN2gOq2fJeNTLltipa/PMdU&#xa;gAxagAAAAAAAAAAAAAAAAAAAAAAAAAAAAAAAAAAAAAAABoLroyx3q/0F5r6P&#xa;jXC3Ki00u9ycPC7k5IuF5+w34AGh1JoyxaujpmXqj70lK/iRJxXMwv8A0qhv&#xa;gAAAAAAAAAAAAAAAABzmv/k/vP1df5HzUw+ldf8Ayf3n6uv8j5qYBcQrKEKw&#xa;JaSQ0kAQpJCgUqUKVqUKB2vY98oEP1eU+gD5/wCx75QIfq8p9AAAAAALM00d&#xa;PA+aVzWRxornOXoiInUC8Dm9Fa2teurPJcrU2VkUcqwuZKiI5FREXoir5nSA&#xa;AAAANVW3laG+2+2pb6ydK7f/ALRFFmKDamfXd4Z6IBtQAAANfX3m32ypo6ar&#xa;qmQzV0nBp2O6yO8kA2AAAA4ig7QHVmltU3n4N2/1eqamm4XG/PcFqOVc7fVz&#xa;7jpNP3Nb3pu23VYeB36mjqeHnOze1HYzjwyBswAABzmldVf1krL5T907v8E1&#xa;z6Hdv3cTb+l0THuOjAAAAAAAAAAAAAAAAAAAAAAAAAAAAAAAAAAAAAAAAAAA&#xa;AAAOc1/8n95+rr/I+amH0rr/AOT+8/V1/kfNTALiFZQhWBLSSGkgCFJIUClS&#xa;hStShQO17HvlAh+ryn0AfP8A2PfKBD9XlPoAAAABwXa1cZI9Kw2Kll4dXqCd&#xa;lvjd+ox35x37Gnennt30ZJrDtL7xf7ayXT9uo+HSse9FSWZ6+u7CLlMJyAw7&#xa;VHRaM7XILdQrGlr1BQNjjRjkVEnp24RP2xk3Nt6vfbHWWCC/1lrtsdrjqXMp&#xa;XNR6rv2+qqou0p1b2VW6ls0dfo2yU1LfaCojqabY7bvVq/FVXLjGDCq6+90f&#xa;blWVVss7a6b4CiWajWobE9qcT9Fy5auFA2+l6m76c7SqrSNwu1RdqKehSvo5&#xa;6p26VmH7HMc7x9hotC2bUGt9FNudbrS8Us/FljgSlejEZteqJxOWX/6HRaXs&#xa;19umv6vV9/oG2vFGlDRUXFbK5jN25znK3lzXwOS7Mb5qy3dn0cVq0q27wyTz&#xa;8GWOrZDsXevJ7XdAO87MtQXDUGkN922rcaGpkoal7G4R741wqohjanutbTdr&#xa;WirbBVyRUlalYtRC34smyLLc+5TP7OtMVOltJNpK+Vs1fUTSVVU9nTivXLsG&#xa;JqOxXGs7UtHXenp2vobYlWlTJuRNm+La3kBoaGmveqtf6vt8mpbjbrXb6iFI&#xa;46R6Mly6PPJ6ou1pmaHu98joNX2qWqfeK6w1MkdJJL8ebLFdG13+iG10lYrj&#xa;bdcawuFXAkdPcp4JKZ+5F3NaxWr06GHp7Td8obrreZvDoJLrVcShqPVkT4mE&#xa;crf5KBxthrq6/WuCei7RKuDWKqiyW2vkSKna/wAY1g2/wNl2lWCep1ro6SS7&#xa;3GB9ZXcNY4J0RtO5GJl0eW8iNR23WGrdNfAV00TS/Cio2P4YWqi4TFTrKxE9&#xa;dPdg32uLBelh0rX2ulddqiw1LZJYeI2N06bEaqoruWQL+tknt1vtVPPq5tjt&#xa;MScOrqnyYq51RuGox2MZXqq4NFobUuO0qTT9BqWr1BaZqBaqN9X60kEiP2q3&#xa;erUVUwZ+qLXqKfUunNXUVibXvoqZ0c1qfUMa+Fz0TLmOX1VcnQos9Bqyv7WK&#xa;bU13scVuofgx9GjGVDZXR+vvTfj+QGisfyVdqf8A/J3T/sQyLtq6TTvZboSg&#xa;p7iy2PutJTRPrnJnu8TYWq96GxtWkb1TaB19bZKJqVV3rq6akZxGrvZKxEZz&#xa;6IV3DRt4l0To2ahigS/abhhd3eZ3qSYiRkkauQDR23V1DaNb2OksutanUlHc&#xa;pe6VFPWT8V8ar8R7V2obeyRXjtBvN7uEmo7nabbQVslBR09A9sWdnV71VF3e&#xa;43lnuOqLjeaZs2jqayUceVqJqiojlevkkaR/xU1FuotU6Fv14gtWnfh603Or&#xa;dXQrHVMgdA9/x2uR3h5AVdj0NTBNrGGsqO9VMd7lbJNsRm9UROeEPSzznQ9r&#xa;1Pp616rrbha4HXKurpK2CnjnTbIqtTCbvDodxaZ6uptNLPX0qUVXJE10sCPR&#xa;6RuxzblOuAM4AAAAAAAAAAAAAAAAAAAAAAAAAAAAAAAAAAAAAAAAAAAABzmv&#xa;/k/vP1df5HzUw+ldf/J/efq6/wAj5qYBcQrKEKwJaSQ0kAQpJCgUqUKVqUKB&#xa;2vY98oEP1eU+gD5/7HvlAh+ryn0AAAAAAADTRabootXzajY5/fJqVtI5N3q7&#xa;EduTkbkADTaX0zRaTsjLXb3SrTte56cVUVcuXK9EQ3IAAAAAAAAAAAAAAAAA&#xa;AAAAAAAAAAAAAAAAAAAAAAAAAAAAAAAAAAAAAAAAAAAAAAAA5zX/AMn95+rr&#xa;/I+amH0rr/5P7z9XX+R81MAuIVlCFYEtJIaSAIUkhQKVKFK1KFA7Xse+UCH6&#xa;vKfQB8/9j3ygQ/V5T6AAAAAAAAAAAAAAAAAAAAAAAAAAAAAAAAAAAAAAAAAA&#xa;AAAAAAAAAAAAAAAAAAAAAAAAAAAAAAAAAADnNf8Ayf3n6uv8j5qYfSuv/k/v&#xa;P1df5HzUwC4hWUIVgS0khpIAhSSFApUoUrUoUDtex75QIfq8p9AHz/2PfKBD&#xa;9XlPoAAAAAAAAAAAAAAAAAAAAAAAAAAAAAAAAAAAAAAAAAAAAAAAAAAAAAAA&#xa;AAAAAAAAAAAAAAAAAAAAAOc1/wDJ/efq6/yPmph9K6/+T+8/V1/kfNTALiFZ&#xa;QhWBLSSGkgCFJIUClShStShQO17HvlAh+ryn0AfP/Y98oEP1eU+gAAAAAAAA&#xa;AAAAAAAAAAAAAAAAAAAAAAAAAAAAAAAAAAAAAAAAAAAAAAAAAAAAAAAAAAAA&#xa;AAAAAAAA5zX/AMn95+rr/I+amH0rr/5P7z9XX+R81MAuIVlCFYEtJIaSAIUk&#xa;hQKVKFK1KFA7Xse+UCH6vKfQB8/9j3ygQ/V5T6AAAAAAAAAAAAAAAAAAAAAA&#xa;AAAAAAAAAAAAAAAAAAAAAAAAAAAAAAAAAAAAAAAAAAAAAAAAAAAAAADnNf8A&#xa;yf3n6uv8j5qYfSuv/k/vP1df5HzUwC4hWUIVgS0khpIAhSSFApUoUrUoUDte&#xa;x75QIfq8p9AHz/2PfKBD9XlPoAAAAAAAAAAAAAAAAAAAAAAAAAAAAAAAAAAA&#xa;AAAAAAAAAAAyAAIygEgZAAAjkBIAAAAAAAAGSMoBIBHICQMgAAAAAA5zX/yf&#xa;3n6uv8j5qYfSuv8A5P7z9XX+R81MAuIVlCFYEtJIaSAIUkhQKVKFK1KFA7Xs&#xa;e+UCH6vKfQB8/wDY98oEP1eU+gAAAAAAAAAAAAAAAAAAAAAAAAAAAAAAAAAA&#xa;AAAAAAAAAApToeb3WCuvXanPaUvNyoaWOhbMjKSbhpuzg9IPMLnfaDT3bFU1&#xa;dxn4ETrc2NuGudldyL0QvX4cXFzERXfSNtnYrrcrFq2fTd2rFronU61VNUPT&#xa;19qLhWu9xgWGhu2uqOa+VV9uFuhkkc2lp6KXhta1Fxl3LmXrRBNq/XE2oUpZ&#xa;ae2Q0i0kCyN2rNnOXInlzMTSmp6PQ9pk0/qHiUdRSSP4TuE5WzsVcorMIW17&#xa;OSJncReft66/4Vw6kui6G1NR1dUvwnZlWHvUfqq/9Vxl9neqauutMlsuj3fC&#xa;UEKTMc92XSxOblrjTxUNU/Q+sL7VQyUq3ZyyxxycnMYnJuTMrbNU/wBRtP6h&#xa;tKf+pW2ijdt+di4abmKTqOzOLZImLR4j/bbUuvt19CaV3wlVd77xt4/FXibd&#xa;3TcdPbLFRd9p3Q63ulRIjkXhOuDXo/HhtwcW75AWfWf/AO51Nnv/AGcw3KlW&#xa;gZTx1m9GxKylejty8v1SZjp0ThtM2jmnxD0oAGD2wAAUnBXuquWoddO03RV8&#xa;ttpKOBJ6mWB2JHq74rWr4HfY5HnN2qE0h2kzX2tik+DLjTNiknYxVSJ7cIm7&#xa;HmiFquPielY9t9f8ldFNcdI63o7PUXKouVuuUbliWodufE9vhnyNfY7bW6lv&#xa;+o1n1BdqSOjr3xRR09RsajcqZLK6PW/aDbKy2te+2Whj3OqFYqNfI5MI1ucG&#xa;BpjStv1BqLVL6xZ0WK5SNThyq39J3kXcPW1oivWu+n9LkF+u7NN6ut81ykqJ&#xa;rRyhrE9V/PPVU8UwXLHaaa52iiqKjXN1jqZ4mOfElybycqc24wbvUen7bp/s&#xa;1u9LbqZII+A5Vx1VfNVU5fTt77O6O0W51WylbXwRRq9/dXbmyI3rlGkx26J1&#xa;NMkVyT4917U2o7tYO0vfBLUT26kpWSVNOj8t4aqjVft80N7fb1LLrXSfca2R&#xa;KOt4jnpG/wBSVu1FblDFiijrO2WtjeiSQzWjCovRzVc05ynttdYO06w2WdeJ&#xa;Q080slG9fm3pnb+xUGoV5sld+02/rq9pToAnQGL2wAAc5r/5P7z9XX+R81MP&#xa;pXX/AMn95+rr/I+amAXEKyhCsCWkkNJAEKSQoFKlClalCgdr2PfKBD9XlPoA&#xa;+f8Ase+UCH6vKfQAAAAAAAAAAAAAAAAAAAAAAAAAAAAAAAAAAAAAAAAAAAAC&#xa;MJ+qSAGEKVa1eqJyJARownkTgAJU4TyGE8ioBXQAAsAAAQqIqYUkAUtaiJhE&#xa;wThAAjSSnan6pIBowgwnkSAkAAAAAc5r/wCT+8/V1/kfNTD6V1/8n95+rr/I&#xa;+amAXEKyhCsCWkkNJAEKSQBSpQpWpQoHa9j3ygQ/V5T6APn/ALHvlAh+ryn0&#xa;AAAAAAAAAAAAAAAAAAAAAAAAAAAAAAAAAAAAAAAAAAAAAAAAAAAAAAAAAAAA&#xa;AAAAAAAAAAAAAAAAHOa/+T+8/V1/kfNTD6U7QPk/vP1df5HzWwC4hWUIVgS0&#xa;kgkAQSQBSpSpUpSoFdFX1drrY6yimdBPF8V7PA6L0q6z+mfu8X4DllQpVAOq&#xa;9K2tPpn7rF+Aj0ra1+mfusX4DlNhG0DrPStrX6Z+6xfgHpW1r9M/dYvwHJ7R&#xa;tA6z0ra1+mfusX4B6Vta/TP3WL8Bye0bQOs9K2tfpn7rF+AelbWv0z91i/Ac&#xa;ntG0DrPStrX6Z+6xfgHpW1r9M/dYvwHJ7RtA6z0ra1+mfusX4B6Vta/TP3WL&#xa;8Bye0bQOs9K2tfpn7rF+AelbWv0z91i/AcntG0DrPStrX6Z+6xfgHpW1r9M/&#xa;dYvwHJ7RtA6z0ra1+mfusX4B6Vta/TP3WL8Bye0bQOs9K2tfpn7rF+AelbWv&#xa;0z91i/AcntG0DrPStrX6Z+6xfgHpW1r9M/dYvwHJ7RtA6z0ra1+mfusX4B6V&#xa;ta/TP3WL8Bye0bQOs9K2tfpn7rF+AelbWv0z91i/AcntG0DrPStrX6Z+6xfg&#xa;HpW1r9M/dYvwHJ7RtA6z0ra1+mfusX4B6Vta/TP3WL8Bye0bQOs9K2tfpn7r&#xa;F+AelbWv0z91i/AcntG0DrPStrX6Z+6xfgHpW1r9M/dYvwHJ7RtA6z0ra1+m&#xa;fusX4B6Vta/TP3WL8Bye0bQOs9K2tfpn7rF+AelbWv0z91i/AcntG0DrPStr&#xa;X6Z+6xfgHpW1r9M/dYvwHJ7RtA6z0ra1+mfusX4B6Vta/TP3WL8Bye0bQOs9&#xa;K2tfpn7rF+AelbWv0z91i/AcntG0DrPStrX6Z+6xfgHpW1r9M/dYvwHJ7RtA&#xa;6z0ra1+mfusX4B6Vta/TP3WL8Bye0bQOs9K2tfpn7rF+AelbWv0z91i/Acnt&#xa;G0DrPStrX6Z+6xfgHpW1r9M/dYvwHJ7RtA6z0ra1+mfusX4B6Vta/TP3WL8B&#xa;ye0bQOs9K2tfpn7rF+An0ra0+mfusX4DktpOAOguuu9SX2hdR3G5OmgXCqxI&#xa;mMzjz2oho2FKIVtArQrKWlQEkkEgCCQBSUqVAC2qFOC5gjAFvAwXMDAFvAwX&#xa;MDAFvAwXMDAFvAwXMDAFvAwXMDAFvAwXMDAFvAwXMDAFvAwXMDAFvAwXMDAF&#xa;vAwXMDAFvAwXMDAFvAwXMDAFvAwXMDAFvAwXMDAFvAwXMDAFvAwXMDAFvAwX&#xa;MDAFvAwXMDAFvAwXMDAFvAwXMDAFvAwXMDAFvAwXMDAFvAwXMDAFvAwXMDAF&#xa;vAwXMDAFvAwXMDAFvAwXMDAFvAwXMDAFGCpqE4KsAEJAAkkAAAAIIKgBSCQB&#xa;AJAEAkAQCQBAJAEAkAQCQBAJAEAkAQCQBAJAEAkAQCQBAJAEAkAQCQBAJAEA&#xa;kAQCQBAJAEAkAQCQBAJAEAkAQCQBAJAEAkAQCQBAJAEAkAQSSAAAAAAAAAAA&#xa;AAAAAAAAAAAAAAAAAAAAAAAAAAAAAAAAAAAAAAAAAAAAAAAAAAAAAAAAAAAA&#xa;AAAAAAAAAAAAAAAAAAAAAAAAAAAAAAAAAAAAAAAAAAAAAAAAAAAAAAAAAAAA&#xa;AAAAAAAAAAAAAAAAAAAAAAAAAAAAAAAAAAAAAAAAAAAAAAAAAAAAAAAAAAAA&#xa;AAAAAAAAAAAAAAAAAAAAAAAAAAAAAAAAAAAAAAAAAAAAAAAAAAAAAAAAAAAA&#xa;AAAAAAAAAAAAAAAAAAAAAAAAAAAAAAAAAAAAAAAAAAAAAAAAAAAAAAAAAAAA&#xa;AAAAAAAAAAAAAAAAAAAAAAAAAAAAAAAAAAAAAAAAAAAAAAAAAAAAAAAAAAAA&#xa;AAAAAAAAAAAAAAAAAAAAAAAAAAAAAAAAAAAAAAAAAAAAAAAAAAAAAAAAAAAA&#xa;AAAAAAAAAAAAAAAAAAAAAAAAAAAAAAAAAAAAAAAAAAAAAAAAAAAAAAAAAAAA&#xa;AAAAAAAAAAAAAAAAAAAAAAAAAAAAAAAAAAAAAAAAAAAAAAAAAAAAAAAAAAAA&#xa;AAAAAAAAAAAAAAAAAAAAAAAAAAAAAAAAAAAAAAAAAAAAAAAAAAAAAAAAAAAA&#xa;AAAAAAAAAAAAAAAAAAAAAAAAAAAAAAAAAAAAAAAAAAAAAAAAAAAAAAAAAAAA&#xa;AAAAAAAAAAAAAAAAAAAAAAAAAAAAAAAAAAAAAAAAAAAAAAAAAAAAAAAAAAAA&#xa;AAAAAAAAAAAAAAAAAAAAAAAAAAAAAAAAAAAAAAAAAAAAAAAAAAAAAAAAAAAA&#xa;AAAAAAAAAAAAAAAAAAAAAAAAAAAAAAAAAAAAAAAAAAAAAAAAAAAAAAAAAAAA&#xa;AAAAAAAAAAAAAAAAAAAAAAAAAAAAAAAAAAAAAAAAAAAAAAAAAAAAAAAAAAAA&#xa;AAAAAAAAAAAAAAAAAAAAAAAAAAAAAAAAAAAAAAAAAAAAAAAAAAAAAAAAAAAA&#xa;AAAAAAAAAAAAAAAAAAAAAAAAAAAAAAAAAAAAAAAAAAAAAAAAAAAAAAAAAAAA&#xa;AAAAAAAAAAAAAAAAAAAAAAAAAAAAAAAAAAAAAAAAAAAAAAAAAAAAAAAAAAAA&#xa;AAAAAAAAAAAAAAAAAAAAAAAAAAAAAAAAAAAAAAAAAAAAAAAAAAAAAAAAAAAA&#xa;AAAAAAAAAAAAAAAAAAAAAAAAAAAAAAAAAAAAAAAAAAAAAAAAAAAAAAAAAAAA&#xa;AAAAAAAAAAAAAAAAAAAAAAAAAAAAAAAAAAAAAAAAAAAAAAAAAAAAAAAAAAAA&#xa;AAAAAAAAAAAAAAAAAAAAAAAAAAAAAAAAAAAAAAAAAAAAAAAAAAAAAAAAAAAA&#xa;AAAAAAAAAAAAAAAAAAAAAAAAAAAAAAAAAAAAAAAAAAAAAAAAAAAAAAAAAAAA&#xa;AAAAAAAAAAAAAAAAAAAAAAAAAAAAAAAAAAAAAAAAAAAAAAAAAAAAAAAAAAAA&#xa;AAAAAAAAAAAAAAAAAAAAAAAAAAAAAAAAAAAAAAAAAAAAAAAAAAAAAAAAAAAA&#xa;AAAAAAAAAAAAAAAAAAAAAAAAAAAAAAAAAAAAAAAAAAAAAAAAAAAAAAAAAAAA&#xa;AAAAAAAAAAAAAAAAAAAAAAAAAAAAAAAAAAAAAAAAAAAAAAAAAAAAAAAAAAAA&#xa;AAAAAAAAAAAAAAAAAAAAAAAAAAAAAAAAAAAAAAAAAAAAAAAAAAAAAAAAAAAA&#xa;AAAAAAAAAAAAAAAAAAAAAAAAAAAAAAAAAAAAAAAAAAAAAAAAAAAAAAAAAAAA&#xa;AAAAAAAAAAAAAAAAAAAAAAAAAAAAAAAAAAAAAAAAAAAAAAAAAAAAAAAAAAAA&#xa;AAAAAAAAAAAAAAAAAAAAAAAAAAAAAAAAAAAAAAAAAAAAAAAAAAAAAAAAAAAA&#xa;AAAAAAAAAAAAAAAAAAAAAAAAAAAAAAAAAAAAAAAAAAAAAAAAAAAAAAAAAAAA&#xa;AAAAAAAAAAAAAAAAAAAAAAAAAAAAAAAAAAAAAAAAAAAAAAAAAAAAAAAAAAAA&#xa;AAAAAAAAAAAAAAAAAAAAAAAAAAAAAAAAAAAAAAAAAAAAAAAAAAAAAAAAAAAA&#xa;AAAAAAAAAAAAAAAAAAAAAAAAAAAAAAAAAAAAAAAAAAAAAAAAAAAAAAAAAAAA&#xa;CuKZYejY1z+u3Jd72/5qD7JAMcF59Q6RmxWRJ7UYiKWQAAAAAAAAAAAAAAAA&#xa;AMikwivk2tVY41emfMd9qvn3AY4MuKeSoZJHM7eiRq9M9UVDEAAAAAAAAAAA&#xa;AAAAAAAriifK/ZG3Kl7bBT/G/LSfqJ8VPeoFja7bnby8ykzIaiWVZEdyZwnY&#xa;YnJE5GGAAAAAAAAAAAAAAAAAAAAAAAAAAAAAAAAAAAAAAAAAAAFyKaSH825q&#xa;Z82ov8S532p/Wj+yaWop5Yfzb9meuC532q+fcBD6qZ7Nj3Nx/cRCyXX1U8jN&#xa;jpcovgWgAAAAAAAAAAAAAAAAMikTLZ0TqsSmOVMc5r0czkqdFL3faj9eP9xo&#xa;CkTnMvgkSmOXX1U0rNjn8vJGon8C0AAAAAAAAAAAAAAAABdhm4Kuy3ex6YVO&#xa;hc7u2VuaZ2/zjXk5DGAGTSoqSSIvzTv4GMZC1kyswu1VVMZVvrYMcAAAAAAA&#xa;AAAAAAAAAAAAAAAAAAAAAAAAAAAAAAAAAAAAAAAAAAAAAAAAAAAAAAAAAAAA&#xa;AAAAAAAAAAAAAAAAAAAAAAAAAAAAAAAAAAAAAAAAAAAAAAAAAAAAAAAAAAAA&#xa;AAAAAAAAAAAAAAAAAAAAAAAAAAAAAAAAAAAAAAAAAAAAAAAAAAAAAAAAAAAA&#xa;AAAAAAAAAAAAAAAAP//Z&#xa;;" vertex="1" parent="1">
          <mxGeometry x="560" y="140" width="205.85" height="446" as="geometry" />
        </mxCell>
        <mxCell id="Mn12eef7mgjaIkqNjSOi-16" value="&lt;b&gt;Step 2&lt;/b&gt;" style="text;html=1;strokeColor=none;fillColor=none;align=center;verticalAlign=middle;whiteSpace=wrap;rounded=0;" vertex="1" parent="1">
          <mxGeometry x="365" y="50" width="60" height="30" as="geometry" />
        </mxCell>
        <mxCell id="Mn12eef7mgjaIkqNjSOi-17" value="&lt;b&gt;Step 3&lt;/b&gt;" style="text;html=1;strokeColor=none;fillColor=none;align=center;verticalAlign=middle;whiteSpace=wrap;rounded=0;" vertex="1" parent="1">
          <mxGeometry x="610" y="50" width="60" height="30" as="geometry" />
        </mxCell>
        <mxCell id="Mn12eef7mgjaIkqNjSOi-18" value="Installation in progress" style="text;html=1;align=center;verticalAlign=middle;resizable=0;points=[];autosize=1;strokeColor=none;fillColor=none;" vertex="1" parent="1">
          <mxGeometry x="325" y="90" width="140" height="30" as="geometry" />
        </mxCell>
      </root>
    </mxGraphModel>
  </diagram>
</mxfile>
